<svg xmlns="http://www.w3.org/2000/svg" width="296" height="296" viewBox="0 0 296 296">
      <style>.pet { transform-origin: center; }</style>
      
                <defs>
                    <linearGradient id="synthwaveGrad" x1="0%" y1="0%" x2="0%" y2="100%">
                        <stop offset="0%" style="stop-color:#2d1b69"/>
                        <stop offset="40%" style="stop-color:#7c3aed"/>
                        <stop offset="60%" style="stop-color:#f472b6"/>
                        <stop offset="80%" style="stop-color:#fb923c"/>
                        <stop offset="100%" style="stop-color:#1e1b4b"/>
                    </linearGradient>
                </defs>
                <rect x="0" y="0" width="296" height="296" fill="url(#synthwaveGrad)" rx="12" ry="12"/>
                <!-- Sun -->
                <circle cx="148" cy="118.4" r="30" fill="#ff6b9d" opacity="0.8"/>
                <rect x="113" y="113.4" width="70" height="3" fill="#2d1b69"/>
                <rect x="113" y="121.4" width="70" height="4" fill="#2d1b69"/>
                <rect x="113" y="128.4" width="70" height="5" fill="#2d1b69"/>
                <!-- Grid lines -->
                <g stroke="#ff00ff" stroke-opacity="0.4" stroke-width="1">
                    <line x1="0" y1="177.6" x2="68" y2="296"/><line x1="37" y1="177.6" x2="88" y2="296"/><line x1="74" y1="177.6" x2="108" y2="296"/><line x1="111" y1="177.6" x2="128" y2="296"/><line x1="148" y1="177.6" x2="148" y2="296"/><line x1="185" y1="177.6" x2="168" y2="296"/><line x1="222" y1="177.6" x2="188" y2="296"/><line x1="259" y1="177.6" x2="208" y2="296"/>
                </g>
            
      <g transform="translate(20, 20)" opacity="1">
        <g class="pet"><rect x="96" y="16" width="16" height="16" fill="#FFD700" /><rect x="64" y="32" width="16" height="16" fill="#ffffff" /><rect x="80" y="32" width="16" height="16" fill="#ffffff" /><rect x="96" y="32" width="16" height="16" fill="#FFD700" /><rect x="112" y="32" width="16" height="16" fill="#ffffff" /><rect x="128" y="32" width="16" height="16" fill="#ffffff" /><rect x="48" y="48" width="16" height="16" fill="#ffffff" /><rect x="64" y="48" width="16" height="16" fill="#2d333b" /><rect x="80" y="48" width="16" height="16" fill="#ffffff" /><rect x="96" y="48" width="16" height="16" fill="#ffffff" /><rect x="112" y="48" width="16" height="16" fill="#ffffff" /><rect x="128" y="48" width="16" height="16" fill="#ffffff" /><rect x="144" y="48" width="16" height="16" fill="#FF0000" /><rect x="48" y="64" width="16" height="16" fill="#ffffff" /><rect x="64" y="64" width="16" height="16" fill="#ffffff" /><rect x="80" y="64" width="16" height="16" fill="#ffffff" /><rect x="96" y="64" width="16" height="16" fill="#ffffff" /><rect x="112" y="64" width="16" height="16" fill="#ffffff" /><rect x="128" y="64" width="16" height="16" fill="#FF0000" /><rect x="144" y="64" width="16" height="16" fill="#FF9F00" /><rect x="64" y="80" width="16" height="16" fill="#ffffff" /><rect x="80" y="80" width="16" height="16" fill="#ffffff" /><rect x="96" y="80" width="16" height="16" fill="#ffffff" /><rect x="112" y="80" width="16" height="16" fill="#ffffff" /><rect x="128" y="80" width="16" height="16" fill="#FF0000" /><rect x="144" y="80" width="16" height="16" fill="#FF9F00" /><rect x="160" y="80" width="16" height="16" fill="#FFD700" /><rect x="80" y="96" width="16" height="16" fill="#ffffff" /><rect x="96" y="96" width="16" height="16" fill="#ffffff" /><rect x="112" y="96" width="16" height="16" fill="#FF0000" /><rect x="128" y="96" width="16" height="16" fill="#FF9F00" /><rect x="144" y="96" width="16" height="16" fill="#FFD700" /><rect x="160" y="96" width="16" height="16" fill="#98c379" /><rect x="64" y="112" width="16" height="16" fill="#ffffff" /><rect x="80" y="112" width="16" height="16" fill="#ffffff" /><rect x="96" y="112" width="16" height="16" fill="#FF0000" /><rect x="112" y="112" width="16" height="16" fill="#FF9F00" /><rect x="128" y="112" width="16" height="16" fill="#FFD700" /><rect x="144" y="112" width="16" height="16" fill="#98c379" /><rect x="160" y="112" width="16" height="16" fill="#00ADD8" /><rect x="48" y="128" width="16" height="16" fill="#ffffff" /><rect x="64" y="128" width="16" height="16" fill="#ffffff" /><rect x="80" y="128" width="16" height="16" fill="#FF0000" /><rect x="96" y="128" width="16" height="16" fill="#FF9F00" /><rect x="112" y="128" width="16" height="16" fill="#FFD700" /><rect x="128" y="128" width="16" height="16" fill="#98c379" /><rect x="144" y="128" width="16" height="16" fill="#00ADD8" /><rect x="160" y="128" width="16" height="16" fill="#C678DD" /><rect x="32" y="144" width="16" height="16" fill="#ffffff" /><rect x="48" y="144" width="16" height="16" fill="#ffffff" /><rect x="64" y="144" width="16" height="16" fill="#ffffff" /><rect x="80" y="144" width="16" height="16" fill="#ffffff" /><rect x="96" y="144" width="16" height="16" fill="#ffffff" /><rect x="112" y="144" width="16" height="16" fill="#98c379" /><rect x="128" y="144" width="16" height="16" fill="#00ADD8" /><rect x="144" y="144" width="16" height="16" fill="#C678DD" /><rect x="32" y="160" width="16" height="16" fill="#ffffff" /><rect x="48" y="160" width="16" height="16" fill="#ffffff" /><rect x="64" y="160" width="16" height="16" fill="#ffffff" /><rect x="80" y="160" width="16" height="16" fill="#ffffff" /><rect x="96" y="160" width="16" height="16" fill="#ffffff" /><rect x="112" y="160" width="16" height="16" fill="#ffffff" /><rect x="16" y="176" width="16" height="16" fill="#ffffff" /><rect x="32" y="176" width="16" height="16" fill="#ffffff" /><rect x="80" y="176" width="16" height="16" fill="#ffffff" /><rect x="96" y="176" width="16" height="16" fill="#ffffff" /><rect x="16" y="192" width="16" height="16" fill="#ffffff" /><rect x="32" y="192" width="16" height="16" fill="#ffffff" /><rect x="80" y="192" width="16" height="16" fill="#ffffff" /><rect x="96" y="192" width="16" height="16" fill="#ffffff" /><animateTransform attributeName="transform" type="translate" values="0 0; 0 -4; 0 0" dur="0.5s" repeatCount="indefinite" /></g>
      </g>
      <text x="50%" y="291" text-anchor="middle" font-family="monospace" font-size="12" fill="#ff6b9d">HAPPY</text>
    </svg>