<svg xmlns="http://www.w3.org/2000/svg" width="316" height="336" viewBox="0 0 316 336">
      <style>.pet { transform-origin: center; }</style>
      <rect x="5" y="5" width="306" height="321" rx="12" ry="12" fill="rgba(45, 51, 59, 0.15)"/>
      <g class="evolution-layer" style="pointer-events: none;">
        
            <defs>
                <radialGradient id="evolutionAura-mythical">
                    <stop offset="0%" stop-color="#00FFFF" stop-opacity="0.6"/>
                    <stop offset="70%" stop-color="#00FFFF" stop-opacity="0.2"/>
                    <stop offset="100%" stop-color="#00FFFF" stop-opacity="0"/>
                </radialGradient>
            </defs>
            <circle cx="158" cy="148" r="80" fill="url(#evolutionAura-mythical)">
                <animate attributeName="r" values="80;88;80" dur="2s" repeatCount="indefinite"/>
                <animate attributeName="opacity" values="0.7;1;0.7" dur="2s" repeatCount="indefinite"/>
            </circle>
        <g class="evolution-sparkles">
                <circle cx="218" cy="148" r="2" fill="#FFFFFF">
                    <animate attributeName="opacity" values="0;1;0" dur="1.5s" begin="0s" repeatCount="indefinite"/>
                    <animate attributeName="r" values="1;3;1" dur="1.5s" begin="0s" repeatCount="indefinite"/>
                </circle>
            
                <circle cx="200.42640687119285" cy="190.42640687119285" r="2" fill="#FFFFFF">
                    <animate attributeName="opacity" values="0;1;0" dur="1.5s" begin="0.5s" repeatCount="indefinite"/>
                    <animate attributeName="r" values="1;3;1" dur="1.5s" begin="0.5s" repeatCount="indefinite"/>
                </circle>
            
                <circle cx="158" cy="208" r="2" fill="#FFFFFF">
                    <animate attributeName="opacity" values="0;1;0" dur="1.5s" begin="1s" repeatCount="indefinite"/>
                    <animate attributeName="r" values="1;3;1" dur="1.5s" begin="1s" repeatCount="indefinite"/>
                </circle>
            
                <circle cx="115.57359312880715" cy="190.42640687119285" r="2" fill="#FFFFFF">
                    <animate attributeName="opacity" values="0;1;0" dur="1.5s" begin="1.5s" repeatCount="indefinite"/>
                    <animate attributeName="r" values="1;3;1" dur="1.5s" begin="1.5s" repeatCount="indefinite"/>
                </circle>
            
                <circle cx="98" cy="148" r="2" fill="#FFFFFF">
                    <animate attributeName="opacity" values="0;1;0" dur="1.5s" begin="2s" repeatCount="indefinite"/>
                    <animate attributeName="r" values="1;3;1" dur="1.5s" begin="2s" repeatCount="indefinite"/>
                </circle>
            
                <circle cx="115.57359312880715" cy="105.57359312880715" r="2" fill="#FFFFFF">
                    <animate attributeName="opacity" values="0;1;0" dur="1.5s" begin="2.5s" repeatCount="indefinite"/>
                    <animate attributeName="r" values="1;3;1" dur="1.5s" begin="2.5s" repeatCount="indefinite"/>
                </circle>
            
                <circle cx="158" cy="88" r="2" fill="#FFFFFF">
                    <animate attributeName="opacity" values="0;1;0" dur="1.5s" begin="0s" repeatCount="indefinite"/>
                    <animate attributeName="r" values="1;3;1" dur="1.5s" begin="0s" repeatCount="indefinite"/>
                </circle>
            
                <circle cx="200.42640687119285" cy="105.57359312880715" r="2" fill="#FFFFFF">
                    <animate attributeName="opacity" values="0;1;0" dur="1.5s" begin="0.5s" repeatCount="indefinite"/>
                    <animate attributeName="r" values="1;3;1" dur="1.5s" begin="0.5s" repeatCount="indefinite"/>
                </circle>
            </g><g class="mythical-runes">
                <text x="218" y="148" fill="#00FFFF" font-size="8" text-anchor="middle" opacity="0.8">
                    ⚡
                    <animateTransform attributeName="transform" type="rotate"
                        values="0 218 148; 360 218 148" dur="10s" repeatCount="indefinite"/>
                    <animate attributeName="opacity" values="0.4;1;0.4" dur="2s" begin="0s" repeatCount="indefinite"/>
                </text>
            
                <text x="188" y="199.96152422706632" fill="#00FFFF" font-size="8" text-anchor="middle" opacity="0.8">
                    ★
                    <animateTransform attributeName="transform" type="rotate"
                        values="0 188 199.96152422706632; 360 188 199.96152422706632" dur="10s" repeatCount="indefinite"/>
                    <animate attributeName="opacity" values="0.4;1;0.4" dur="2s" begin="0.3s" repeatCount="indefinite"/>
                </text>
            
                <text x="128" y="199.96152422706632" fill="#00FFFF" font-size="8" text-anchor="middle" opacity="0.8">
                    ◆
                    <animateTransform attributeName="transform" type="rotate"
                        values="0 128 199.96152422706632; 360 128 199.96152422706632" dur="10s" repeatCount="indefinite"/>
                    <animate attributeName="opacity" values="0.4;1;0.4" dur="2s" begin="0.6s" repeatCount="indefinite"/>
                </text>
            
                <text x="98" y="148" fill="#00FFFF" font-size="8" text-anchor="middle" opacity="0.8">
                    ✧
                    <animateTransform attributeName="transform" type="rotate"
                        values="0 98 148; 360 98 148" dur="10s" repeatCount="indefinite"/>
                    <animate attributeName="opacity" values="0.4;1;0.4" dur="2s" begin="0.8999999999999999s" repeatCount="indefinite"/>
                </text>
            
                <text x="127.99999999999997" y="96.0384757729337" fill="#00FFFF" font-size="8" text-anchor="middle" opacity="0.8">
                    ○
                    <animateTransform attributeName="transform" type="rotate"
                        values="0 127.99999999999997 96.0384757729337; 360 127.99999999999997 96.0384757729337" dur="10s" repeatCount="indefinite"/>
                    <animate attributeName="opacity" values="0.4;1;0.4" dur="2s" begin="1.2s" repeatCount="indefinite"/>
                </text>
            
                <text x="188" y="96.03847577293368" fill="#00FFFF" font-size="8" text-anchor="middle" opacity="0.8">
                    △
                    <animateTransform attributeName="transform" type="rotate"
                        values="0 188 96.03847577293368; 360 188 96.03847577293368" dur="10s" repeatCount="indefinite"/>
                    <animate attributeName="opacity" values="0.4;1;0.4" dur="2s" begin="1.5s" repeatCount="indefinite"/>
                </text>
            </g>
      </g>
      <g transform="translate(10.800000000000011, 0.8000000000000114) scale(1.15)">
        <g class="pet"><rect x="32" y="16" width="16" height="16" fill="#2d333b" /><rect x="48" y="16" width="16" height="16" fill="#2d333b" /><rect x="192" y="16" width="16" height="16" fill="#2d333b" /><rect x="208" y="16" width="16" height="16" fill="#2d333b" /><rect x="16" y="32" width="16" height="16" fill="#2d333b" /><rect x="32" y="32" width="16" height="16" fill="#00FFFF" /><rect x="48" y="32" width="16" height="16" fill="#00FFFF" /><rect x="64" y="32" width="16" height="16" fill="#2d333b" /><rect x="176" y="32" width="16" height="16" fill="#2d333b" /><rect x="192" y="32" width="16" height="16" fill="#00FFFF" /><rect x="208" y="32" width="16" height="16" fill="#00FFFF" /><rect x="224" y="32" width="16" height="16" fill="#2d333b" /><rect x="16" y="48" width="16" height="16" fill="#2d333b" /><rect x="32" y="48" width="16" height="16" fill="#00FFFF" /><rect x="48" y="48" width="16" height="16" fill="#00FFFF" /><rect x="64" y="48" width="16" height="16" fill="#00FFFF" /><rect x="80" y="48" width="16" height="16" fill="#2d333b" /><rect x="160" y="48" width="16" height="16" fill="#2d333b" /><rect x="176" y="48" width="16" height="16" fill="#00FFFF" /><rect x="192" y="48" width="16" height="16" fill="#00FFFF" /><rect x="208" y="48" width="16" height="16" fill="#00FFFF" /><rect x="224" y="48" width="16" height="16" fill="#2d333b" /><rect x="32" y="64" width="16" height="16" fill="#2d333b" /><rect x="48" y="64" width="16" height="16" fill="#00FFFF" /><rect x="64" y="64" width="16" height="16" fill="#00FFFF" /><rect x="80" y="64" width="16" height="16" fill="#00FFFF" /><rect x="96" y="64" width="16" height="16" fill="#2d333b" /><rect x="112" y="64" width="16" height="16" fill="#2d333b" /><rect x="128" y="64" width="16" height="16" fill="#2d333b" /><rect x="144" y="64" width="16" height="16" fill="#2d333b" /><rect x="160" y="64" width="16" height="16" fill="#2d333b" /><rect x="176" y="64" width="16" height="16" fill="#00FFFF" /><rect x="192" y="64" width="16" height="16" fill="#00FFFF" /><rect x="208" y="64" width="16" height="16" fill="#2d333b" /><rect x="16" y="80" width="16" height="16" fill="#2d333b" /><rect x="32" y="80" width="16" height="16" fill="#00FFFF" /><rect x="48" y="80" width="16" height="16" fill="#00FFFF" /><rect x="64" y="80" width="16" height="16" fill="#00FFFF" /><rect x="80" y="80" width="16" height="16" fill="#00FFFF" /><rect x="96" y="80" width="16" height="16" fill="#00FFFF" /><rect x="112" y="80" width="16" height="16" fill="#00FFFF" /><rect x="128" y="80" width="16" height="16" fill="#00FFFF" /><rect x="144" y="80" width="16" height="16" fill="#00FFFF" /><rect x="160" y="80" width="16" height="16" fill="#00FFFF" /><rect x="176" y="80" width="16" height="16" fill="#00FFFF" /><rect x="192" y="80" width="16" height="16" fill="#00FFFF" /><rect x="208" y="80" width="16" height="16" fill="#00FFFF" /><rect x="224" y="80" width="16" height="16" fill="#2d333b" /><rect x="16" y="96" width="16" height="16" fill="#2d333b" /><rect x="32" y="96" width="16" height="16" fill="#00FFFF" /><rect x="48" y="96" width="16" height="16" fill="#00FFFF" /><rect x="64" y="96" width="16" height="16" fill="#ffffff" /><rect x="80" y="96" width="16" height="16" fill="#2d333b" /><rect x="96" y="96" width="16" height="16" fill="#00FFFF" /><rect x="112" y="96" width="16" height="16" fill="#00FFFF" /><rect x="128" y="96" width="16" height="16" fill="#00FFFF" /><rect x="144" y="96" width="16" height="16" fill="#00FFFF" /><rect x="160" y="96" width="16" height="16" fill="#2d333b" /><rect x="176" y="96" width="16" height="16" fill="#ffffff" /><rect x="192" y="96" width="16" height="16" fill="#00FFFF" /><rect x="208" y="96" width="16" height="16" fill="#00FFFF" /><rect x="224" y="96" width="16" height="16" fill="#2d333b" /><rect x="16" y="112" width="16" height="16" fill="#2d333b" /><rect x="32" y="112" width="16" height="16" fill="#00FFFF" /><rect x="48" y="112" width="16" height="16" fill="#00FFFF" /><rect x="64" y="112" width="16" height="16" fill="#2d333b" /><rect x="80" y="112" width="16" height="16" fill="#2d333b" /><rect x="96" y="112" width="16" height="16" fill="#00FFFF" /><rect x="112" y="112" width="16" height="16" fill="#00FFFF" /><rect x="128" y="112" width="16" height="16" fill="#00FFFF" /><rect x="144" y="112" width="16" height="16" fill="#00FFFF" /><rect x="160" y="112" width="16" height="16" fill="#2d333b" /><rect x="176" y="112" width="16" height="16" fill="#2d333b" /><rect x="192" y="112" width="16" height="16" fill="#00FFFF" /><rect x="208" y="112" width="16" height="16" fill="#00FFFF" /><rect x="224" y="112" width="16" height="16" fill="#2d333b" /><rect x="16" y="128" width="16" height="16" fill="#2d333b" /><rect x="32" y="128" width="16" height="16" fill="#00FFFF" /><rect x="48" y="128" width="16" height="16" fill="#00FFFF" /><rect x="64" y="128" width="16" height="16" fill="#00FFFF" /><rect x="80" y="128" width="16" height="16" fill="#00FFFF" /><rect x="96" y="128" width="16" height="16" fill="#00FFFF" /><rect x="112" y="128" width="16" height="16" fill="#00FFFF" /><rect x="128" y="128" width="16" height="16" fill="#00FFFF" /><rect x="144" y="128" width="16" height="16" fill="#00FFFF" /><rect x="160" y="128" width="16" height="16" fill="#00FFFF" /><rect x="176" y="128" width="16" height="16" fill="#00FFFF" /><rect x="192" y="128" width="16" height="16" fill="#00FFFF" /><rect x="208" y="128" width="16" height="16" fill="#00FFFF" /><rect x="224" y="128" width="16" height="16" fill="#2d333b" /><rect x="16" y="144" width="16" height="16" fill="#2d333b" /><rect x="32" y="144" width="16" height="16" fill="#00FFFF" /><rect x="48" y="144" width="16" height="16" fill="#00FFFF" /><rect x="64" y="144" width="16" height="16" fill="#2d333b" /><rect x="80" y="144" width="16" height="16" fill="#00FFFF" /><rect x="96" y="144" width="16" height="16" fill="#00FFFF" /><rect x="144" y="144" width="16" height="16" fill="#00FFFF" /><rect x="160" y="144" width="16" height="16" fill="#00FFFF" /><rect x="176" y="144" width="16" height="16" fill="#2d333b" /><rect x="192" y="144" width="16" height="16" fill="#00FFFF" /><rect x="208" y="144" width="16" height="16" fill="#00FFFF" /><rect x="224" y="144" width="16" height="16" fill="#2d333b" /><rect x="32" y="160" width="16" height="16" fill="#2d333b" /><rect x="48" y="160" width="16" height="16" fill="#00FFFF" /><rect x="64" y="160" width="16" height="16" fill="#00FFFF" /><rect x="80" y="160" width="16" height="16" fill="#00FFFF" /><rect x="96" y="160" width="16" height="16" fill="#00FFFF" /><rect x="112" y="160" width="16" height="16" fill="#00FFFF" /><rect x="128" y="160" width="16" height="16" fill="#00FFFF" /><rect x="144" y="160" width="16" height="16" fill="#00FFFF" /><rect x="160" y="160" width="16" height="16" fill="#00FFFF" /><rect x="176" y="160" width="16" height="16" fill="#00FFFF" /><rect x="192" y="160" width="16" height="16" fill="#00FFFF" /><rect x="208" y="160" width="16" height="16" fill="#2d333b" /><rect x="48" y="176" width="16" height="16" fill="#2d333b" /><rect x="64" y="176" width="16" height="16" fill="#00FFFF" /><rect x="80" y="176" width="16" height="16" fill="#00FFFF" /><rect x="96" y="176" width="16" height="16" fill="#00FFFF" /><rect x="112" y="176" width="16" height="16" fill="#00FFFF" /><rect x="128" y="176" width="16" height="16" fill="#00FFFF" /><rect x="144" y="176" width="16" height="16" fill="#00FFFF" /><rect x="160" y="176" width="16" height="16" fill="#00FFFF" /><rect x="176" y="176" width="16" height="16" fill="#00FFFF" /><rect x="192" y="176" width="16" height="16" fill="#2d333b" /><rect x="48" y="192" width="16" height="16" fill="#2d333b" /><rect x="64" y="192" width="16" height="16" fill="#00FFFF" /><rect x="80" y="192" width="16" height="16" fill="#2d333b" /><rect x="96" y="192" width="16" height="16" fill="#2d333b" /><rect x="144" y="192" width="16" height="16" fill="#2d333b" /><rect x="160" y="192" width="16" height="16" fill="#2d333b" /><rect x="176" y="192" width="16" height="16" fill="#00FFFF" /><rect x="192" y="192" width="16" height="16" fill="#2d333b" /><rect x="64" y="208" width="16" height="16" fill="#2d333b" /><rect x="80" y="208" width="16" height="16" fill="#2d333b" /><rect x="160" y="208" width="16" height="16" fill="#2d333b" /><rect x="176" y="208" width="16" height="16" fill="#2d333b" /></g>
      </g>
      <text x="50%" y="296" text-anchor="middle" font-family="monospace" font-size="12" fill="#333">
        🌟 Lv.100 Mythical
      </text>
      <text x="50%" y="311" text-anchor="middle" font-family="monospace" font-size="10" fill="#666">
        Scale: 115%
      </text>
    </svg>