<svg xmlns="http://www.w3.org/2000/svg" width="296" height="296" viewBox="0 0 296 296">
      <style>.pet { transform-origin: center; }</style>
      <rect x="5" y="5" width="286" height="281" rx="12" ry="12" fill="rgba(45, 51, 59, 0.15)"/>
      <g transform="translate(20, 20)" opacity="1">
        <g class="pet"><rect x="48" y="16" width="16" height="16" fill="#2d333b" /><rect x="64" y="16" width="16" height="16" fill="#2d333b" /><rect x="80" y="16" width="16" height="16" fill="#2d333b" /><rect x="160" y="16" width="16" height="16" fill="#2d333b" /><rect x="176" y="16" width="16" height="16" fill="#2d333b" /><rect x="192" y="16" width="16" height="16" fill="#2d333b" /><rect x="32" y="32" width="16" height="16" fill="#2d333b" /><rect x="48" y="32" width="16" height="16" fill="#61afef" /><rect x="64" y="32" width="16" height="16" fill="#61afef" /><rect x="80" y="32" width="16" height="16" fill="#61afef" /><rect x="96" y="32" width="16" height="16" fill="#2d333b" /><rect x="144" y="32" width="16" height="16" fill="#2d333b" /><rect x="160" y="32" width="16" height="16" fill="#61afef" /><rect x="176" y="32" width="16" height="16" fill="#61afef" /><rect x="192" y="32" width="16" height="16" fill="#61afef" /><rect x="208" y="32" width="16" height="16" fill="#2d333b" /><rect x="48" y="48" width="16" height="16" fill="#2d333b" /><rect x="64" y="48" width="16" height="16" fill="#61afef" /><rect x="80" y="48" width="16" height="16" fill="#61afef" /><rect x="96" y="48" width="16" height="16" fill="#61afef" /><rect x="112" y="48" width="16" height="16" fill="#61afef" /><rect x="128" y="48" width="16" height="16" fill="#61afef" /><rect x="144" y="48" width="16" height="16" fill="#61afef" /><rect x="160" y="48" width="16" height="16" fill="#61afef" /><rect x="176" y="48" width="16" height="16" fill="#61afef" /><rect x="192" y="48" width="16" height="16" fill="#61afef" /><rect x="208" y="48" width="16" height="16" fill="#2d333b" /><rect x="32" y="64" width="16" height="16" fill="#2d333b" /><rect x="48" y="64" width="16" height="16" fill="#61afef" /><rect x="64" y="64" width="16" height="16" fill="#61afef" /><rect x="80" y="64" width="16" height="16" fill="#ffffff" /><rect x="96" y="64" width="16" height="16" fill="#2d333b" /><rect x="112" y="64" width="16" height="16" fill="#61afef" /><rect x="128" y="64" width="16" height="16" fill="#61afef" /><rect x="144" y="64" width="16" height="16" fill="#2d333b" /><rect x="160" y="64" width="16" height="16" fill="#ffffff" /><rect x="176" y="64" width="16" height="16" fill="#61afef" /><rect x="192" y="64" width="16" height="16" fill="#61afef" /><rect x="208" y="64" width="16" height="16" fill="#2d333b" /><rect x="32" y="80" width="16" height="16" fill="#2d333b" /><rect x="48" y="80" width="16" height="16" fill="#61afef" /><rect x="64" y="80" width="16" height="16" fill="#61afef" /><rect x="80" y="80" width="16" height="16" fill="#2d333b" /><rect x="96" y="80" width="16" height="16" fill="#2d333b" /><rect x="112" y="80" width="16" height="16" fill="#61afef" /><rect x="128" y="80" width="16" height="16" fill="#61afef" /><rect x="144" y="80" width="16" height="16" fill="#2d333b" /><rect x="160" y="80" width="16" height="16" fill="#2d333b" /><rect x="176" y="80" width="16" height="16" fill="#61afef" /><rect x="192" y="80" width="16" height="16" fill="#61afef" /><rect x="208" y="80" width="16" height="16" fill="#2d333b" /><rect x="32" y="96" width="16" height="16" fill="#2d333b" /><rect x="48" y="96" width="16" height="16" fill="#61afef" /><rect x="64" y="96" width="16" height="16" fill="#61afef" /><rect x="80" y="96" width="16" height="16" fill="#61afef" /><rect x="96" y="96" width="16" height="16" fill="#61afef" /><rect x="112" y="96" width="16" height="16" fill="#61afef" /><rect x="128" y="96" width="16" height="16" fill="#61afef" /><rect x="144" y="96" width="16" height="16" fill="#61afef" /><rect x="160" y="96" width="16" height="16" fill="#61afef" /><rect x="176" y="96" width="16" height="16" fill="#61afef" /><rect x="192" y="96" width="16" height="16" fill="#61afef" /><rect x="208" y="96" width="16" height="16" fill="#2d333b" /><rect x="16" y="112" width="16" height="16" fill="#2d333b" /><rect x="32" y="112" width="16" height="16" fill="#61afef" /><rect x="48" y="112" width="16" height="16" fill="#61afef" /><rect x="64" y="112" width="16" height="16" fill="#61afef" /><rect x="80" y="112" width="16" height="16" fill="#ffffff" /><rect x="96" y="112" width="16" height="16" fill="#ffffff" /><rect x="112" y="112" width="16" height="16" fill="#ffffff" /><rect x="128" y="112" width="16" height="16" fill="#ffffff" /><rect x="144" y="112" width="16" height="16" fill="#ffffff" /><rect x="160" y="112" width="16" height="16" fill="#61afef" /><rect x="176" y="112" width="16" height="16" fill="#61afef" /><rect x="192" y="112" width="16" height="16" fill="#61afef" /><rect x="208" y="112" width="16" height="16" fill="#2d333b" /><rect x="16" y="128" width="16" height="16" fill="#2d333b" /><rect x="32" y="128" width="16" height="16" fill="#61afef" /><rect x="48" y="128" width="16" height="16" fill="#61afef" /><rect x="64" y="128" width="16" height="16" fill="#61afef" /><rect x="80" y="128" width="16" height="16" fill="#2d333b" /><rect x="96" y="128" width="16" height="16" fill="#ffffff" /><rect x="112" y="128" width="16" height="16" fill="#ffffff" /><rect x="128" y="128" width="16" height="16" fill="#ffffff" /><rect x="144" y="128" width="16" height="16" fill="#2d333b" /><rect x="160" y="128" width="16" height="16" fill="#61afef" /><rect x="176" y="128" width="16" height="16" fill="#61afef" /><rect x="192" y="128" width="16" height="16" fill="#61afef" /><rect x="208" y="128" width="16" height="16" fill="#2d333b" /><rect x="16" y="144" width="16" height="16" fill="#2d333b" /><rect x="32" y="144" width="16" height="16" fill="#61afef" /><rect x="48" y="144" width="16" height="16" fill="#61afef" /><rect x="64" y="144" width="16" height="16" fill="#61afef" /><rect x="80" y="144" width="16" height="16" fill="#61afef" /><rect x="96" y="144" width="16" height="16" fill="#2d333b" /><rect x="112" y="144" width="16" height="16" fill="#2d333b" /><rect x="128" y="144" width="16" height="16" fill="#2d333b" /><rect x="144" y="144" width="16" height="16" fill="#61afef" /><rect x="160" y="144" width="16" height="16" fill="#61afef" /><rect x="176" y="144" width="16" height="16" fill="#61afef" /><rect x="192" y="144" width="16" height="16" fill="#61afef" /><rect x="208" y="144" width="16" height="16" fill="#2d333b" /><rect x="32" y="160" width="16" height="16" fill="#2d333b" /><rect x="48" y="160" width="16" height="16" fill="#61afef" /><rect x="64" y="160" width="16" height="16" fill="#61afef" /><rect x="80" y="160" width="16" height="16" fill="#61afef" /><rect x="96" y="160" width="16" height="16" fill="#61afef" /><rect x="112" y="160" width="16" height="16" fill="#61afef" /><rect x="128" y="160" width="16" height="16" fill="#61afef" /><rect x="144" y="160" width="16" height="16" fill="#61afef" /><rect x="160" y="160" width="16" height="16" fill="#61afef" /><rect x="176" y="160" width="16" height="16" fill="#61afef" /><rect x="192" y="160" width="16" height="16" fill="#61afef" /><rect x="208" y="160" width="16" height="16" fill="#2d333b" /><rect x="48" y="176" width="16" height="16" fill="#2d333b" /><rect x="64" y="176" width="16" height="16" fill="#61afef" /><rect x="80" y="176" width="16" height="16" fill="#61afef" /><rect x="96" y="176" width="16" height="16" fill="#2d333b" /><rect x="144" y="176" width="16" height="16" fill="#2d333b" /><rect x="160" y="176" width="16" height="16" fill="#61afef" /><rect x="176" y="176" width="16" height="16" fill="#61afef" /><rect x="192" y="176" width="16" height="16" fill="#2d333b" /><rect x="64" y="192" width="16" height="16" fill="#2d333b" /><rect x="80" y="192" width="16" height="16" fill="#2d333b" /><rect x="160" y="192" width="16" height="16" fill="#2d333b" /><rect x="176" y="192" width="16" height="16" fill="#2d333b" /><animateTransform attributeName="transform" type="scale" values="1 1; 1.02 0.98; 1 1" dur="2s" repeatCount="indefinite" /></g>
      </g>
      <text x="50%" y="291" text-anchor="middle" font-family="monospace" font-size="12" fill="#666">SLEEPING</text>
    </svg>