<svg xmlns="http://www.w3.org/2000/svg" width="336" height="316" viewBox="0 0 336 316">
      <style>.pet { transform-origin: center; }</style>
      <rect x="5" y="5" width="326" height="301" rx="12" ry="12" fill="rgba(45, 51, 59, 0.15)"/>
      <g transform="translate(30, 30)">
        <g class="pet"><rect x="32" y="16" width="16" height="16" fill="#2d333b" /><rect x="48" y="16" width="16" height="16" fill="#2d333b" /><rect x="192" y="16" width="16" height="16" fill="#2d333b" /><rect x="208" y="16" width="16" height="16" fill="#2d333b" /><rect x="16" y="32" width="16" height="16" fill="#2d333b" /><rect x="32" y="32" width="16" height="16" fill="#e5c07b" /><rect x="48" y="32" width="16" height="16" fill="#e5c07b" /><rect x="64" y="32" width="16" height="16" fill="#2d333b" /><rect x="176" y="32" width="16" height="16" fill="#2d333b" /><rect x="192" y="32" width="16" height="16" fill="#e5c07b" /><rect x="208" y="32" width="16" height="16" fill="#e5c07b" /><rect x="224" y="32" width="16" height="16" fill="#2d333b" /><rect x="16" y="48" width="16" height="16" fill="#2d333b" /><rect x="32" y="48" width="16" height="16" fill="#e5c07b" /><rect x="48" y="48" width="16" height="16" fill="#e5c07b" /><rect x="64" y="48" width="16" height="16" fill="#e5c07b" /><rect x="80" y="48" width="16" height="16" fill="#2d333b" /><rect x="160" y="48" width="16" height="16" fill="#2d333b" /><rect x="176" y="48" width="16" height="16" fill="#e5c07b" /><rect x="192" y="48" width="16" height="16" fill="#e5c07b" /><rect x="208" y="48" width="16" height="16" fill="#e5c07b" /><rect x="224" y="48" width="16" height="16" fill="#2d333b" /><rect x="32" y="64" width="16" height="16" fill="#2d333b" /><rect x="48" y="64" width="16" height="16" fill="#e5c07b" /><rect x="64" y="64" width="16" height="16" fill="#e5c07b" /><rect x="80" y="64" width="16" height="16" fill="#e5c07b" /><rect x="96" y="64" width="16" height="16" fill="#2d333b" /><rect x="112" y="64" width="16" height="16" fill="#2d333b" /><rect x="128" y="64" width="16" height="16" fill="#2d333b" /><rect x="144" y="64" width="16" height="16" fill="#2d333b" /><rect x="160" y="64" width="16" height="16" fill="#2d333b" /><rect x="176" y="64" width="16" height="16" fill="#e5c07b" /><rect x="192" y="64" width="16" height="16" fill="#e5c07b" /><rect x="208" y="64" width="16" height="16" fill="#2d333b" /><rect x="16" y="80" width="16" height="16" fill="#2d333b" /><rect x="32" y="80" width="16" height="16" fill="#e5c07b" /><rect x="48" y="80" width="16" height="16" fill="#e5c07b" /><rect x="64" y="80" width="16" height="16" fill="#e5c07b" /><rect x="80" y="80" width="16" height="16" fill="#e5c07b" /><rect x="96" y="80" width="16" height="16" fill="#e5c07b" /><rect x="112" y="80" width="16" height="16" fill="#e5c07b" /><rect x="128" y="80" width="16" height="16" fill="#e5c07b" /><rect x="144" y="80" width="16" height="16" fill="#e5c07b" /><rect x="160" y="80" width="16" height="16" fill="#e5c07b" /><rect x="176" y="80" width="16" height="16" fill="#e5c07b" /><rect x="192" y="80" width="16" height="16" fill="#e5c07b" /><rect x="208" y="80" width="16" height="16" fill="#e5c07b" /><rect x="224" y="80" width="16" height="16" fill="#2d333b" /><rect x="16" y="96" width="16" height="16" fill="#2d333b" /><rect x="32" y="96" width="16" height="16" fill="#e5c07b" /><rect x="48" y="96" width="16" height="16" fill="#e5c07b" /><rect x="64" y="96" width="16" height="16" fill="#ffffff" /><rect x="80" y="96" width="16" height="16" fill="#2d333b" /><rect x="96" y="96" width="16" height="16" fill="#e5c07b" /><rect x="112" y="96" width="16" height="16" fill="#e5c07b" /><rect x="128" y="96" width="16" height="16" fill="#e5c07b" /><rect x="144" y="96" width="16" height="16" fill="#e5c07b" /><rect x="160" y="96" width="16" height="16" fill="#2d333b" /><rect x="176" y="96" width="16" height="16" fill="#ffffff" /><rect x="192" y="96" width="16" height="16" fill="#e5c07b" /><rect x="208" y="96" width="16" height="16" fill="#e5c07b" /><rect x="224" y="96" width="16" height="16" fill="#2d333b" /><rect x="16" y="112" width="16" height="16" fill="#2d333b" /><rect x="32" y="112" width="16" height="16" fill="#e5c07b" /><rect x="48" y="112" width="16" height="16" fill="#e5c07b" /><rect x="64" y="112" width="16" height="16" fill="#2d333b" /><rect x="80" y="112" width="16" height="16" fill="#2d333b" /><rect x="96" y="112" width="16" height="16" fill="#e5c07b" /><rect x="112" y="112" width="16" height="16" fill="#e5c07b" /><rect x="128" y="112" width="16" height="16" fill="#e5c07b" /><rect x="144" y="112" width="16" height="16" fill="#e5c07b" /><rect x="160" y="112" width="16" height="16" fill="#2d333b" /><rect x="176" y="112" width="16" height="16" fill="#2d333b" /><rect x="192" y="112" width="16" height="16" fill="#e5c07b" /><rect x="208" y="112" width="16" height="16" fill="#e5c07b" /><rect x="224" y="112" width="16" height="16" fill="#2d333b" /><rect x="16" y="128" width="16" height="16" fill="#2d333b" /><rect x="32" y="128" width="16" height="16" fill="#e5c07b" /><rect x="48" y="128" width="16" height="16" fill="#e5c07b" /><rect x="64" y="128" width="16" height="16" fill="#e5c07b" /><rect x="80" y="128" width="16" height="16" fill="#e5c07b" /><rect x="96" y="128" width="16" height="16" fill="#e5c07b" /><rect x="112" y="128" width="16" height="16" fill="#e5c07b" /><rect x="128" y="128" width="16" height="16" fill="#e5c07b" /><rect x="144" y="128" width="16" height="16" fill="#e5c07b" /><rect x="160" y="128" width="16" height="16" fill="#e5c07b" /><rect x="176" y="128" width="16" height="16" fill="#e5c07b" /><rect x="192" y="128" width="16" height="16" fill="#e5c07b" /><rect x="208" y="128" width="16" height="16" fill="#e5c07b" /><rect x="224" y="128" width="16" height="16" fill="#2d333b" /><rect x="16" y="144" width="16" height="16" fill="#2d333b" /><rect x="32" y="144" width="16" height="16" fill="#e5c07b" /><rect x="48" y="144" width="16" height="16" fill="#e5c07b" /><rect x="64" y="144" width="16" height="16" fill="#2d333b" /><rect x="80" y="144" width="16" height="16" fill="#e5c07b" /><rect x="96" y="144" width="16" height="16" fill="#e5c07b" /><rect x="144" y="144" width="16" height="16" fill="#e5c07b" /><rect x="160" y="144" width="16" height="16" fill="#e5c07b" /><rect x="176" y="144" width="16" height="16" fill="#2d333b" /><rect x="192" y="144" width="16" height="16" fill="#e5c07b" /><rect x="208" y="144" width="16" height="16" fill="#e5c07b" /><rect x="224" y="144" width="16" height="16" fill="#2d333b" /><rect x="32" y="160" width="16" height="16" fill="#2d333b" /><rect x="48" y="160" width="16" height="16" fill="#e5c07b" /><rect x="64" y="160" width="16" height="16" fill="#e5c07b" /><rect x="80" y="160" width="16" height="16" fill="#e5c07b" /><rect x="96" y="160" width="16" height="16" fill="#e5c07b" /><rect x="112" y="160" width="16" height="16" fill="#e5c07b" /><rect x="128" y="160" width="16" height="16" fill="#e5c07b" /><rect x="144" y="160" width="16" height="16" fill="#e5c07b" /><rect x="160" y="160" width="16" height="16" fill="#e5c07b" /><rect x="176" y="160" width="16" height="16" fill="#e5c07b" /><rect x="192" y="160" width="16" height="16" fill="#e5c07b" /><rect x="208" y="160" width="16" height="16" fill="#2d333b" /><rect x="48" y="176" width="16" height="16" fill="#2d333b" /><rect x="64" y="176" width="16" height="16" fill="#e5c07b" /><rect x="80" y="176" width="16" height="16" fill="#e5c07b" /><rect x="96" y="176" width="16" height="16" fill="#e5c07b" /><rect x="112" y="176" width="16" height="16" fill="#e5c07b" /><rect x="128" y="176" width="16" height="16" fill="#e5c07b" /><rect x="144" y="176" width="16" height="16" fill="#e5c07b" /><rect x="160" y="176" width="16" height="16" fill="#e5c07b" /><rect x="176" y="176" width="16" height="16" fill="#e5c07b" /><rect x="192" y="176" width="16" height="16" fill="#2d333b" /><rect x="48" y="192" width="16" height="16" fill="#2d333b" /><rect x="64" y="192" width="16" height="16" fill="#e5c07b" /><rect x="80" y="192" width="16" height="16" fill="#2d333b" /><rect x="96" y="192" width="16" height="16" fill="#2d333b" /><rect x="144" y="192" width="16" height="16" fill="#2d333b" /><rect x="160" y="192" width="16" height="16" fill="#2d333b" /><rect x="176" y="192" width="16" height="16" fill="#e5c07b" /><rect x="192" y="192" width="16" height="16" fill="#2d333b" /><rect x="64" y="208" width="16" height="16" fill="#2d333b" /><rect x="80" y="208" width="16" height="16" fill="#2d333b" /><rect x="160" y="208" width="16" height="16" fill="#2d333b" /><rect x="176" y="208" width="16" height="16" fill="#2d333b" /></g>
        
        <g transform="translate(118, -24)">
            <rect x="10" y="20" width="35" height="35" rx="3" fill="#FF5722"/>
            <path d="M18,20 Q18,10 27.5,10 Q37,10 37,20" stroke="#D84315" stroke-width="4" fill="none"/>
            <text x="15" y="42" font-family="Arial" font-size="12" font-weight="bold" fill="#FFFFFF">11.11</text>
            <polygon points="45,15 47,20 52,20 48,24 50,29 45,26 40,29 42,24 38,20 43,20" fill="#FFD700">
                <animate attributeName="transform" values="rotate(0 45 22);rotate(360 45 22)" dur="4s" repeatCount="indefinite"/>
            </polygon>
        </g>
    
      </g>
      <text x="50%" y="308" text-anchor="middle" font-family="monospace" font-size="9" fill="#666">🛒 Singles Day (Nov 11)</text>
    </svg>