<svg xmlns="http://www.w3.org/2000/svg" width="296" height="296" viewBox="0 0 296 296">
      <style>.pet { transform-origin: center; }</style>
      <rect x="5" y="5" width="286" height="281" rx="12" ry="12" fill="rgba(45, 51, 59, 0.15)"/>
      <g transform="translate(20, 20)" opacity="0.7">
        <g class="pet"><rect x="48" y="16" width="16" height="16" fill="#2d333b" /><rect x="192" y="16" width="16" height="16" fill="#2d333b" /><rect x="48" y="32" width="16" height="16" fill="#2d333b" /><rect x="80" y="32" width="16" height="16" fill="#2d333b" /><rect x="128" y="32" width="16" height="16" fill="#2d333b" /><rect x="160" y="32" width="16" height="16" fill="#2d333b" /><rect x="192" y="32" width="16" height="16" fill="#2d333b" /><rect x="48" y="48" width="16" height="16" fill="#2d333b" /><rect x="80" y="48" width="16" height="16" fill="#2d333b" /><rect x="160" y="48" width="16" height="16" fill="#2d333b" /><rect x="192" y="48" width="16" height="16" fill="#2d333b" /><rect x="48" y="64" width="16" height="16" fill="#2d333b" /><rect x="80" y="64" width="16" height="16" fill="#2d333b" /><rect x="128" y="64" width="16" height="16" fill="#2d333b" /><rect x="160" y="64" width="16" height="16" fill="#2d333b" /><rect x="192" y="64" width="16" height="16" fill="#2d333b" /><rect x="48" y="80" width="16" height="16" fill="#2d333b" /><rect x="80" y="80" width="16" height="16" fill="#2d333b" /><rect x="160" y="80" width="16" height="16" fill="#2d333b" /><rect x="192" y="80" width="16" height="16" fill="#2d333b" /><rect x="48" y="96" width="16" height="16" fill="#2d333b" /><rect x="80" y="96" width="16" height="16" fill="#2d333b" /><rect x="128" y="96" width="16" height="16" fill="#2d333b" /><rect x="160" y="96" width="16" height="16" fill="#2d333b" /><rect x="192" y="96" width="16" height="16" fill="#2d333b" /><rect x="48" y="112" width="16" height="16" fill="#2d333b" /><rect x="80" y="112" width="16" height="16" fill="#2d333b" /><rect x="160" y="112" width="16" height="16" fill="#2d333b" /><rect x="192" y="112" width="16" height="16" fill="#2d333b" /><rect x="48" y="128" width="16" height="16" fill="#2d333b" /><rect x="80" y="128" width="16" height="16" fill="#2d333b" /><rect x="128" y="128" width="16" height="16" fill="#2d333b" /><rect x="160" y="128" width="16" height="16" fill="#2d333b" /><rect x="192" y="128" width="16" height="16" fill="#2d333b" /></g>
      </g>
      <text x="50%" y="291" text-anchor="middle" font-family="monospace" font-size="12" fill="#666">GHOST</text>
    </svg>