<svg xmlns="http://www.w3.org/2000/svg" width="232" height="232" viewBox="0 0 232 232">
      <style>.pet { transform-origin: center; }</style>
      <rect width="100%" height="100%" fill="transparent" />
      <g transform="translate(20, 20)" opacity="0.7">
        <g class="pet"><rect x="32" y="16" width="16" height="16" fill="#2d333b" /><rect x="144" y="16" width="16" height="16" fill="#2d333b" /><rect x="32" y="32" width="16" height="16" fill="#2d333b" /><rect x="64" y="32" width="16" height="16" fill="#abb2bf" /><rect x="112" y="32" width="16" height="16" fill="#abb2bf" /><rect x="144" y="32" width="16" height="16" fill="#2d333b" /><rect x="32" y="48" width="16" height="16" fill="#2d333b" /><rect x="144" y="48" width="16" height="16" fill="#2d333b" /><rect x="32" y="64" width="16" height="16" fill="#2d333b" /><rect x="64" y="64" width="16" height="16" fill="#abb2bf" /><rect x="80" y="64" width="16" height="16" fill="#abb2bf" /><rect x="96" y="64" width="16" height="16" fill="#abb2bf" /><rect x="112" y="64" width="16" height="16" fill="#abb2bf" /><rect x="144" y="64" width="16" height="16" fill="#2d333b" /><rect x="32" y="80" width="16" height="16" fill="#2d333b" /><rect x="80" y="80" width="16" height="16" fill="#2d333b" /><rect x="96" y="80" width="16" height="16" fill="#2d333b" /><rect x="144" y="80" width="16" height="16" fill="#2d333b" /><rect x="32" y="96" width="16" height="16" fill="#2d333b" /><rect x="64" y="96" width="16" height="16" fill="#abb2bf" /><rect x="80" y="96" width="16" height="16" fill="#abb2bf" /><rect x="96" y="96" width="16" height="16" fill="#abb2bf" /><rect x="112" y="96" width="16" height="16" fill="#abb2bf" /><rect x="144" y="96" width="16" height="16" fill="#2d333b" /><rect x="32" y="112" width="16" height="16" fill="#2d333b" /><rect x="144" y="112" width="16" height="16" fill="#2d333b" /><rect x="32" y="128" width="16" height="16" fill="#2d333b" /><rect x="64" y="128" width="16" height="16" fill="#abb2bf" /><rect x="112" y="128" width="16" height="16" fill="#abb2bf" /><rect x="144" y="128" width="16" height="16" fill="#2d333b" /><rect x="32" y="144" width="16" height="16" fill="#2d333b" /><rect x="144" y="144" width="16" height="16" fill="#2d333b" /></g>
      </g>
      <text x="50%" y="227" text-anchor="middle" font-family="monospace" font-size="12" fill="#666">GHOST</text>
    </svg>