<svg xmlns="http://www.w3.org/2000/svg" width="232" height="242" viewBox="0 0 232 242">
          <style>.pet { transform-origin: center; }</style>
          
                <rect x="0" y="0" width="232" height="242" fill="#1a0a2e" rx="12" ry="12"/>
                <g stroke="#ff00ff" stroke-opacity="0.3" stroke-width="1">
                    <line x1="0" y1="0" x2="0" y2="242"/><line x1="23.2" y1="0" x2="23.2" y2="242"/><line x1="46.4" y1="0" x2="46.4" y2="242"/><line x1="69.6" y1="0" x2="69.6" y2="242"/><line x1="92.8" y1="0" x2="92.8" y2="242"/><line x1="116" y1="0" x2="116" y2="242"/><line x1="139.2" y1="0" x2="139.2" y2="242"/><line x1="162.4" y1="0" x2="162.4" y2="242"/><line x1="185.6" y1="0" x2="185.6" y2="242"/><line x1="208.79999999999998" y1="0" x2="208.79999999999998" y2="242"/>
                    <line x1="0" y1="0" x2="232" y2="0"/><line x1="0" y1="24.2" x2="232" y2="24.2"/><line x1="0" y1="48.4" x2="232" y2="48.4"/><line x1="0" y1="72.6" x2="232" y2="72.6"/><line x1="0" y1="96.8" x2="232" y2="96.8"/><line x1="0" y1="121" x2="232" y2="121"/><line x1="0" y1="145.2" x2="232" y2="145.2"/><line x1="0" y1="169.4" x2="232" y2="169.4"/><line x1="0" y1="193.6" x2="232" y2="193.6"/><line x1="0" y1="217.79999999999998" x2="232" y2="217.79999999999998"/>
                </g>
                <rect x="5" y="5" width="222" height="232" fill="none" stroke="#00ffff" stroke-width="2" rx="8" ry="8" stroke-opacity="0.5"/>
            
          <g transform="translate(20, 20)">
            <g class="pet"><rect x="96" y="0" width="16" height="16" fill="#2d333b" /><rect x="112" y="0" width="16" height="16" fill="#2d333b" /><rect x="128" y="0" width="16" height="16" fill="#2d333b" /><rect x="144" y="0" width="16" height="16" fill="#2d333b" /><rect x="80" y="16" width="16" height="16" fill="#2d333b" /><rect x="96" y="16" width="16" height="16" fill="#2e7d32" /><rect x="112" y="16" width="16" height="16" fill="#2e7d32" /><rect x="128" y="16" width="16" height="16" fill="#2e7d32" /><rect x="144" y="16" width="16" height="16" fill="#2e7d32" /><rect x="160" y="16" width="16" height="16" fill="#2d333b" /><rect x="64" y="32" width="16" height="16" fill="#2d333b" /><rect x="80" y="32" width="16" height="16" fill="#2e7d32" /><rect x="96" y="32" width="16" height="16" fill="#FF0000" /><rect x="112" y="32" width="16" height="16" fill="#2e7d32" /><rect x="128" y="32" width="16" height="16" fill="#2e7d32" /><rect x="144" y="32" width="16" height="16" fill="#2d333b" /><rect x="160" y="32" width="16" height="16" fill="#2e7d32" /><rect x="176" y="32" width="16" height="16" fill="#2d333b" /><rect x="64" y="48" width="16" height="16" fill="#2d333b" /><rect x="80" y="48" width="16" height="16" fill="#2e7d32" /><rect x="96" y="48" width="16" height="16" fill="#2e7d32" /><rect x="112" y="48" width="16" height="16" fill="#2e7d32" /><rect x="128" y="48" width="16" height="16" fill="#2e7d32" /><rect x="144" y="48" width="16" height="16" fill="#2e7d32" /><rect x="160" y="48" width="16" height="16" fill="#2e7d32" /><rect x="176" y="48" width="16" height="16" fill="#2d333b" /><rect x="48" y="64" width="16" height="16" fill="#2d333b" /><rect x="64" y="64" width="16" height="16" fill="#2e7d32" /><rect x="80" y="64" width="16" height="16" fill="#2e7d32" /><rect x="96" y="64" width="16" height="16" fill="#2e7d32" /><rect x="112" y="64" width="16" height="16" fill="#2e7d32" /><rect x="128" y="64" width="16" height="16" fill="#2e7d32" /><rect x="144" y="64" width="16" height="16" fill="#2e7d32" /><rect x="160" y="64" width="16" height="16" fill="#2e7d32" /><rect x="176" y="64" width="16" height="16" fill="#2d333b" /><rect x="0" y="80" width="16" height="16" fill="#2d333b" /><rect x="32" y="80" width="16" height="16" fill="#2d333b" /><rect x="48" y="80" width="16" height="16" fill="#2e7d32" /><rect x="64" y="80" width="16" height="16" fill="#2e7d32" /><rect x="80" y="80" width="16" height="16" fill="#2e7d32" /><rect x="96" y="80" width="16" height="16" fill="#2e7d32" /><rect x="112" y="80" width="16" height="16" fill="#2e7d32" /><rect x="128" y="80" width="16" height="16" fill="#2e7d32" /><rect x="144" y="80" width="16" height="16" fill="#2e7d32" /><rect x="160" y="80" width="16" height="16" fill="#2e7d32" /><rect x="176" y="80" width="16" height="16" fill="#2d333b" /><rect x="0" y="96" width="16" height="16" fill="#2d333b" /><rect x="16" y="96" width="16" height="16" fill="#2d333b" /><rect x="32" y="96" width="16" height="16" fill="#2e7d32" /><rect x="48" y="96" width="16" height="16" fill="#2e7d32" /><rect x="64" y="96" width="16" height="16" fill="#2e7d32" /><rect x="80" y="96" width="16" height="16" fill="#2e7d32" /><rect x="96" y="96" width="16" height="16" fill="#2e7d32" /><rect x="112" y="96" width="16" height="16" fill="#2e7d32" /><rect x="128" y="96" width="16" height="16" fill="#2e7d32" /><rect x="144" y="96" width="16" height="16" fill="#2e7d32" /><rect x="160" y="96" width="16" height="16" fill="#2e7d32" /><rect x="176" y="96" width="16" height="16" fill="#2d333b" /><rect x="16" y="112" width="16" height="16" fill="#2d333b" /><rect x="32" y="112" width="16" height="16" fill="#2e7d32" /><rect x="48" y="112" width="16" height="16" fill="#2e7d32" /><rect x="64" y="112" width="16" height="16" fill="#2e7d32" /><rect x="96" y="112" width="16" height="16" fill="#2d333b" /><rect x="112" y="112" width="16" height="16" fill="#2e7d32" /><rect x="128" y="112" width="16" height="16" fill="#2e7d32" /><rect x="144" y="112" width="16" height="16" fill="#2e7d32" /><rect x="160" y="112" width="16" height="16" fill="#2d333b" /><rect x="32" y="128" width="16" height="16" fill="#2d333b" /><rect x="48" y="128" width="16" height="16" fill="#2e7d32" /><rect x="64" y="128" width="16" height="16" fill="#2d333b" /><rect x="112" y="128" width="16" height="16" fill="#2d333b" /><rect x="128" y="128" width="16" height="16" fill="#2e7d32" /><rect x="144" y="128" width="16" height="16" fill="#2d333b" /><rect x="32" y="144" width="16" height="16" fill="#2d333b" /><rect x="48" y="144" width="16" height="16" fill="#2e7d32" /><rect x="64" y="144" width="16" height="16" fill="#2d333b" /><rect x="112" y="144" width="16" height="16" fill="#2d333b" /><rect x="128" y="144" width="16" height="16" fill="#2e7d32" /><rect x="144" y="144" width="16" height="16" fill="#2d333b" /><rect x="48" y="160" width="16" height="16" fill="#2d333b" /><rect x="128" y="160" width="16" height="16" fill="#2d333b" /></g>
          </g>
          <text x="50%" y="232" text-anchor="middle" font-family="monospace" font-size="10" fill="#00ffff">🦖 MECHA-REX</text>
        </svg>