<svg xmlns="http://www.w3.org/2000/svg" width="296" height="306" viewBox="0 0 296 306">
          <style>.pet { transform-origin: center; }</style>
          
                <rect x="0" y="0" width="296" height="306" fill="#1a0a2e" rx="12" ry="12"/>
                <g stroke="#ff00ff" stroke-opacity="0.3" stroke-width="1">
                    <line x1="0" y1="0" x2="0" y2="306"/><line x1="29.6" y1="0" x2="29.6" y2="306"/><line x1="59.2" y1="0" x2="59.2" y2="306"/><line x1="88.80000000000001" y1="0" x2="88.80000000000001" y2="306"/><line x1="118.4" y1="0" x2="118.4" y2="306"/><line x1="148" y1="0" x2="148" y2="306"/><line x1="177.60000000000002" y1="0" x2="177.60000000000002" y2="306"/><line x1="207.20000000000002" y1="0" x2="207.20000000000002" y2="306"/><line x1="236.8" y1="0" x2="236.8" y2="306"/><line x1="266.40000000000003" y1="0" x2="266.40000000000003" y2="306"/>
                    <line x1="0" y1="0" x2="296" y2="0"/><line x1="0" y1="30.6" x2="296" y2="30.6"/><line x1="0" y1="61.2" x2="296" y2="61.2"/><line x1="0" y1="91.80000000000001" x2="296" y2="91.80000000000001"/><line x1="0" y1="122.4" x2="296" y2="122.4"/><line x1="0" y1="153" x2="296" y2="153"/><line x1="0" y1="183.60000000000002" x2="296" y2="183.60000000000002"/><line x1="0" y1="214.20000000000002" x2="296" y2="214.20000000000002"/><line x1="0" y1="244.8" x2="296" y2="244.8"/><line x1="0" y1="275.40000000000003" x2="296" y2="275.40000000000003"/>
                </g>
                <rect x="5" y="5" width="286" height="296" fill="none" stroke="#00ffff" stroke-width="2" rx="8" ry="8" stroke-opacity="0.5"/>
            
          <g transform="translate(20, 20)">
            <g class="pet">
              <rect x="112" y="0" width="16" height="16" fill="#FF0000" /><rect x="128" y="0" width="16" height="16" fill="#FF0000" /><rect x="96" y="16" width="16" height="16" fill="#FF0000" /><rect x="112" y="16" width="16" height="16" fill="#FF9F00" /><rect x="128" y="16" width="16" height="16" fill="#FFD700" /><rect x="144" y="16" width="16" height="16" fill="#00ADD8" /><rect x="80" y="32" width="16" height="16" fill="#2d333b" /><rect x="96" y="32" width="16" height="16" fill="#2d333b" /><rect x="112" y="32" width="16" height="16" fill="#2d333b" /><rect x="128" y="32" width="16" height="16" fill="#2d333b" /><rect x="144" y="32" width="16" height="16" fill="#2d333b" /><rect x="64" y="48" width="16" height="16" fill="#2d333b" /><rect x="80" y="48" width="16" height="16" fill="#ffffff" /><rect x="96" y="48" width="16" height="16" fill="#ffffff" /><rect x="112" y="48" width="16" height="16" fill="#ffffff" /><rect x="128" y="48" width="16" height="16" fill="#ffffff" /><rect x="144" y="48" width="16" height="16" fill="#ffffff" /><rect x="160" y="48" width="16" height="16" fill="#2d333b" /><rect x="48" y="64" width="16" height="16" fill="#2d333b" /><rect x="64" y="64" width="16" height="16" fill="#ffffff" /><rect x="80" y="64" width="16" height="16" fill="#ffffff" /><rect x="96" y="64" width="16" height="16" fill="#ffffff" /><rect x="112" y="64" width="16" height="16" fill="#ffffff" /><rect x="128" y="64" width="16" height="16" fill="#ffffff" /><rect x="144" y="64" width="16" height="16" fill="#ffffff" /><rect x="160" y="64" width="16" height="16" fill="#ffffff" /><rect x="176" y="64" width="16" height="16" fill="#2d333b" /><rect x="48" y="80" width="16" height="16" fill="#2d333b" /><rect x="64" y="80" width="16" height="16" fill="#ffffff" /><rect x="80" y="80" width="16" height="16" fill="#ffffff" /><rect x="96" y="80" width="16" height="16" fill="#2d333b" /><rect x="112" y="80" width="16" height="16" fill="#ffffff" /><rect x="128" y="80" width="16" height="16" fill="#ffffff" /><rect x="144" y="80" width="16" height="16" fill="#ffffff" /><rect x="160" y="80" width="16" height="16" fill="#ffffff" /><rect x="176" y="80" width="16" height="16" fill="#ffffff" /><rect x="192" y="80" width="16" height="16" fill="#2d333b" /><rect x="48" y="96" width="16" height="16" fill="#2d333b" /><rect x="64" y="96" width="16" height="16" fill="#ffffff" /><rect x="80" y="96" width="16" height="16" fill="#ffffff" /><rect x="96" y="96" width="16" height="16" fill="#ffffff" /><rect x="112" y="96" width="16" height="16" fill="#ffffff" /><rect x="128" y="96" width="16" height="16" fill="#ffffff" /><rect x="144" y="96" width="16" height="16" fill="#ffffff" /><rect x="160" y="96" width="16" height="16" fill="#ffffff" /><rect x="192" y="96" width="16" height="16" fill="#ffffff" /><rect x="208" y="96" width="16" height="16" fill="#2d333b" /><rect x="32" y="112" width="16" height="16" fill="#2d333b" /><rect x="48" y="112" width="16" height="16" fill="#ffffff" /><rect x="64" y="112" width="16" height="16" fill="#ffffff" /><rect x="80" y="112" width="16" height="16" fill="#ffffff" /><rect x="96" y="112" width="16" height="16" fill="#ffffff" /><rect x="112" y="112" width="16" height="16" fill="#ffffff" /><rect x="128" y="112" width="16" height="16" fill="#ffffff" /><rect x="144" y="112" width="16" height="16" fill="#ffffff" /><rect x="160" y="112" width="16" height="16" fill="#ffffff" /><rect x="176" y="112" width="16" height="16" fill="#ffffff" /><rect x="208" y="112" width="16" height="16" fill="#2d333b" /><rect x="32" y="128" width="16" height="16" fill="#2d333b" /><rect x="48" y="128" width="16" height="16" fill="#ffffff" /><rect x="64" y="128" width="16" height="16" fill="#ffffff" /><rect x="80" y="128" width="16" height="16" fill="#ffffff" /><rect x="96" y="128" width="16" height="16" fill="#ffffff" /><rect x="112" y="128" width="16" height="16" fill="#ffffff" /><rect x="128" y="128" width="16" height="16" fill="#ffffff" /><rect x="144" y="128" width="16" height="16" fill="#ffffff" /><rect x="160" y="128" width="16" height="16" fill="#ffffff" /><rect x="176" y="128" width="16" height="16" fill="#ffffff" /><rect x="192" y="128" width="16" height="16" fill="#ffffff" /><rect x="208" y="128" width="16" height="16" fill="#2d333b" /><rect x="16" y="144" width="16" height="16" fill="#2d333b" /><rect x="32" y="144" width="16" height="16" fill="#ffffff" /><rect x="48" y="144" width="16" height="16" fill="#ffffff" /><rect x="64" y="144" width="16" height="16" fill="#ffffff" /><rect x="80" y="144" width="16" height="16" fill="#ffffff" /><rect x="96" y="144" width="16" height="16" fill="#ffffff" /><rect x="112" y="144" width="16" height="16" fill="#ffffff" /><rect x="128" y="144" width="16" height="16" fill="#ffffff" /><rect x="144" y="144" width="16" height="16" fill="#ffffff" /><rect x="160" y="144" width="16" height="16" fill="#ffffff" /><rect x="176" y="144" width="16" height="16" fill="#ffffff" /><rect x="192" y="144" width="16" height="16" fill="#ffffff" /><rect x="208" y="144" width="16" height="16" fill="#ffffff" /><rect x="224" y="144" width="16" height="16" fill="#2d333b" /><rect x="16" y="160" width="16" height="16" fill="#2d333b" /><rect x="32" y="160" width="16" height="16" fill="#ffffff" /><rect x="48" y="160" width="16" height="16" fill="#2d333b" /><rect x="64" y="160" width="16" height="16" fill="#ffffff" /><rect x="80" y="160" width="16" height="16" fill="#ffffff" /><rect x="96" y="160" width="16" height="16" fill="#ffffff" /><rect x="112" y="160" width="16" height="16" fill="#ffffff" /><rect x="128" y="160" width="16" height="16" fill="#ffffff" /><rect x="144" y="160" width="16" height="16" fill="#ffffff" /><rect x="160" y="160" width="16" height="16" fill="#ffffff" /><rect x="176" y="160" width="16" height="16" fill="#ffffff" /><rect x="192" y="160" width="16" height="16" fill="#2d333b" /><rect x="208" y="160" width="16" height="16" fill="#ffffff" /><rect x="224" y="160" width="16" height="16" fill="#2d333b" /><rect x="32" y="176" width="16" height="16" fill="#2d333b" /><rect x="64" y="176" width="16" height="16" fill="#2d333b" /><rect x="80" y="176" width="16" height="16" fill="#ffffff" /><rect x="96" y="176" width="16" height="16" fill="#ffffff" /><rect x="112" y="176" width="16" height="16" fill="#ffffff" /><rect x="128" y="176" width="16" height="16" fill="#ffffff" /><rect x="144" y="176" width="16" height="16" fill="#ffffff" /><rect x="160" y="176" width="16" height="16" fill="#ffffff" /><rect x="176" y="176" width="16" height="16" fill="#2d333b" /><rect x="208" y="176" width="16" height="16" fill="#2d333b" /><rect x="64" y="192" width="16" height="16" fill="#2d333b" /><rect x="80" y="192" width="16" height="16" fill="#ffffff" /><rect x="96" y="192" width="16" height="16" fill="#2d333b" /><rect x="144" y="192" width="16" height="16" fill="#2d333b" /><rect x="160" y="192" width="16" height="16" fill="#ffffff" /><rect x="176" y="192" width="16" height="16" fill="#2d333b" /><rect x="64" y="208" width="16" height="16" fill="#2d333b" /><rect x="80" y="208" width="16" height="16" fill="#ffffff" /><rect x="96" y="208" width="16" height="16" fill="#2d333b" /><rect x="144" y="208" width="16" height="16" fill="#2d333b" /><rect x="160" y="208" width="16" height="16" fill="#ffffff" /><rect x="176" y="208" width="16" height="16" fill="#2d333b" /><rect x="80" y="224" width="16" height="16" fill="#2d333b" /><rect x="160" y="224" width="16" height="16" fill="#2d333b" />
              
            <animateTransform 
                attributeName="transform" 
                type="translate" 
                values="0 0; 0 -8; 0 0" 
                dur="0.6s" 
                repeatCount="indefinite" 
            />
            </g>
          </g>
          <text x="50%" y="296" text-anchor="middle" font-family="monospace" font-size="10" fill="#00ffff">🦄 UNICORN</text>
        </svg>