<svg xmlns="http://www.w3.org/2000/svg" width="296" height="306" viewBox="0 0 296 306">
          <style>.pet { transform-origin: center; }</style>
          
            <defs>
                <radialGradient id="mythical_celestial" cx="50%" cy="50%" r="70%">
                    <stop offset="0%" style="stop-color:#7c4dff;stop-opacity:0.3"/>
                    <stop offset="100%" style="stop-color:#0a0a1a;stop-opacity:1"/>
                </radialGradient>
            </defs>
            <rect x="0" y="0" width="296" height="306" fill="url(#mythical_celestial)" rx="12" ry="12"/>
            <g fill="#ffffff" opacity="0.6">
                <circle cx="29.6" cy="61.2" r="1.5">
                    <animate attributeName="opacity" values="0.3;1;0.3" dur="2s" repeatCount="indefinite"/>
                </circle>
                <circle cx="266.40000000000003" cy="45.9" r="1">
                    <animate attributeName="opacity" values="0.5;1;0.5" dur="1.5s" repeatCount="indefinite"/>
                </circle>
                <circle cx="236.8" cy="244.8" r="1.5">
                    <animate attributeName="opacity" values="0.2;1;0.2" dur="2.5s" repeatCount="indefinite"/>
                </circle>
                <circle cx="44.4" cy="229.5" r="1">
                    <animate attributeName="opacity" values="0.6;1;0.6" dur="1.8s" repeatCount="indefinite"/>
                </circle>
            </g>
        
          <g transform="translate(20, 20)">
            <g class="pet">
              <rect x="64" y="0" width="16" height="16" fill="#FFD700" /><rect x="176" y="0" width="16" height="16" fill="#FFD700" /><rect x="48" y="16" width="16" height="16" fill="#FFD700" /><rect x="64" y="16" width="16" height="16" fill="#7c4dff" /><rect x="80" y="16" width="16" height="16" fill="#FFD700" /><rect x="160" y="16" width="16" height="16" fill="#FFD700" /><rect x="176" y="16" width="16" height="16" fill="#7c4dff" /><rect x="192" y="16" width="16" height="16" fill="#FFD700" /><rect x="64" y="32" width="16" height="16" fill="#FFD700" /><rect x="112" y="32" width="16" height="16" fill="#2d333b" /><rect x="128" y="32" width="16" height="16" fill="#2d333b" /><rect x="176" y="32" width="16" height="16" fill="#FFD700" /><rect x="96" y="48" width="16" height="16" fill="#2d333b" /><rect x="112" y="48" width="16" height="16" fill="#7c4dff" /><rect x="128" y="48" width="16" height="16" fill="#7c4dff" /><rect x="144" y="48" width="16" height="16" fill="#2d333b" /><rect x="80" y="64" width="16" height="16" fill="#2d333b" /><rect x="96" y="64" width="16" height="16" fill="#7c4dff" /><rect x="112" y="64" width="16" height="16" fill="#7c4dff" /><rect x="128" y="64" width="16" height="16" fill="#7c4dff" /><rect x="144" y="64" width="16" height="16" fill="#7c4dff" /><rect x="160" y="64" width="16" height="16" fill="#2d333b" /><rect x="64" y="80" width="16" height="16" fill="#2d333b" /><rect x="80" y="80" width="16" height="16" fill="#7c4dff" /><rect x="96" y="80" width="16" height="16" fill="#7c4dff" /><rect x="112" y="80" width="16" height="16" fill="#ffffff" /><rect x="128" y="80" width="16" height="16" fill="#ffffff" /><rect x="144" y="80" width="16" height="16" fill="#7c4dff" /><rect x="160" y="80" width="16" height="16" fill="#7c4dff" /><rect x="176" y="80" width="16" height="16" fill="#2d333b" /><rect x="64" y="96" width="16" height="16" fill="#2d333b" /><rect x="80" y="96" width="16" height="16" fill="#7c4dff" /><rect x="96" y="96" width="16" height="16" fill="#7c4dff" /><rect x="112" y="96" width="16" height="16" fill="#2d333b" /><rect x="128" y="96" width="16" height="16" fill="#2d333b" /><rect x="144" y="96" width="16" height="16" fill="#7c4dff" /><rect x="160" y="96" width="16" height="16" fill="#7c4dff" /><rect x="176" y="96" width="16" height="16" fill="#2d333b" /><rect x="64" y="112" width="16" height="16" fill="#2d333b" /><rect x="80" y="112" width="16" height="16" fill="#7c4dff" /><rect x="96" y="112" width="16" height="16" fill="#7c4dff" /><rect x="112" y="112" width="16" height="16" fill="#7c4dff" /><rect x="128" y="112" width="16" height="16" fill="#7c4dff" /><rect x="144" y="112" width="16" height="16" fill="#7c4dff" /><rect x="160" y="112" width="16" height="16" fill="#7c4dff" /><rect x="176" y="112" width="16" height="16" fill="#2d333b" /><rect x="48" y="128" width="16" height="16" fill="#2d333b" /><rect x="64" y="128" width="16" height="16" fill="#7c4dff" /><rect x="80" y="128" width="16" height="16" fill="#7c4dff" /><rect x="96" y="128" width="16" height="16" fill="#7c4dff" /><rect x="112" y="128" width="16" height="16" fill="#7c4dff" /><rect x="128" y="128" width="16" height="16" fill="#7c4dff" /><rect x="144" y="128" width="16" height="16" fill="#7c4dff" /><rect x="160" y="128" width="16" height="16" fill="#7c4dff" /><rect x="176" y="128" width="16" height="16" fill="#7c4dff" /><rect x="192" y="128" width="16" height="16" fill="#2d333b" /><rect x="32" y="144" width="16" height="16" fill="#2d333b" /><rect x="48" y="144" width="16" height="16" fill="#7c4dff" /><rect x="64" y="144" width="16" height="16" fill="#7c4dff" /><rect x="80" y="144" width="16" height="16" fill="#7c4dff" /><rect x="96" y="144" width="16" height="16" fill="#7c4dff" /><rect x="112" y="144" width="16" height="16" fill="#7c4dff" /><rect x="128" y="144" width="16" height="16" fill="#7c4dff" /><rect x="144" y="144" width="16" height="16" fill="#7c4dff" /><rect x="160" y="144" width="16" height="16" fill="#7c4dff" /><rect x="176" y="144" width="16" height="16" fill="#7c4dff" /><rect x="192" y="144" width="16" height="16" fill="#7c4dff" /><rect x="208" y="144" width="16" height="16" fill="#2d333b" /><rect x="16" y="160" width="16" height="16" fill="#2d333b" /><rect x="32" y="160" width="16" height="16" fill="#FFD700" /><rect x="48" y="160" width="16" height="16" fill="#7c4dff" /><rect x="64" y="160" width="16" height="16" fill="#7c4dff" /><rect x="80" y="160" width="16" height="16" fill="#7c4dff" /><rect x="96" y="160" width="16" height="16" fill="#7c4dff" /><rect x="112" y="160" width="16" height="16" fill="#7c4dff" /><rect x="128" y="160" width="16" height="16" fill="#7c4dff" /><rect x="144" y="160" width="16" height="16" fill="#7c4dff" /><rect x="160" y="160" width="16" height="16" fill="#7c4dff" /><rect x="176" y="160" width="16" height="16" fill="#7c4dff" /><rect x="192" y="160" width="16" height="16" fill="#7c4dff" /><rect x="208" y="160" width="16" height="16" fill="#FFD700" /><rect x="224" y="160" width="16" height="16" fill="#2d333b" /><rect x="32" y="176" width="16" height="16" fill="#2d333b" /><rect x="48" y="176" width="16" height="16" fill="#7c4dff" /><rect x="64" y="176" width="16" height="16" fill="#7c4dff" /><rect x="80" y="176" width="16" height="16" fill="#7c4dff" /><rect x="96" y="176" width="16" height="16" fill="#7c4dff" /><rect x="112" y="176" width="16" height="16" fill="#7c4dff" /><rect x="128" y="176" width="16" height="16" fill="#7c4dff" /><rect x="144" y="176" width="16" height="16" fill="#7c4dff" /><rect x="160" y="176" width="16" height="16" fill="#7c4dff" /><rect x="176" y="176" width="16" height="16" fill="#7c4dff" /><rect x="192" y="176" width="16" height="16" fill="#7c4dff" /><rect x="208" y="176" width="16" height="16" fill="#2d333b" /><rect x="48" y="192" width="16" height="16" fill="#2d333b" /><rect x="64" y="192" width="16" height="16" fill="#7c4dff" /><rect x="80" y="192" width="16" height="16" fill="#2d333b" /><rect x="160" y="192" width="16" height="16" fill="#2d333b" /><rect x="176" y="192" width="16" height="16" fill="#7c4dff" /><rect x="192" y="192" width="16" height="16" fill="#2d333b" /><rect x="48" y="208" width="16" height="16" fill="#2d333b" /><rect x="64" y="208" width="16" height="16" fill="#7c4dff" /><rect x="80" y="208" width="16" height="16" fill="#2d333b" /><rect x="160" y="208" width="16" height="16" fill="#2d333b" /><rect x="176" y="208" width="16" height="16" fill="#7c4dff" /><rect x="192" y="208" width="16" height="16" fill="#2d333b" /><rect x="64" y="224" width="16" height="16" fill="#2d333b" /><rect x="176" y="224" width="16" height="16" fill="#2d333b" />
              
            <animateTransform 
                attributeName="transform" 
                type="translate" 
                values="0 0; 0 -6; 0 0" 
                dur="1.5s" 
                repeatCount="indefinite" 
            />
            </g>
          </g>
          <text x="50%" y="296" text-anchor="middle" font-family="monospace" font-size="10" fill="#7c4dff">⭐ CELESTIAL</text>
        </svg>