
<svg width="200" height="200" viewBox="0 0 160 160" xmlns="http://www.w3.org/2000/svg">
  <rect width="100%" height="100%" fill="transparent"/>
  <g>
    
      <animateTransform 
        attributeName="transform" 
        type="translate" 
        values="0 0; 0 -5; 0 0" 
        dur="1s" 
        repeatCount="indefinite" 
      />
    
    <rect x="40" y="0" width="20" height="20" fill="#e06c75" /><rect x="100" y="0" width="20" height="20" fill="#e06c75" /><rect x="60" y="20" width="20" height="20" fill="#e06c75" /><rect x="80" y="20" width="20" height="20" fill="#e06c75" /><rect x="20" y="40" width="20" height="20" fill="#e06c75" /><rect x="40" y="40" width="20" height="20" fill="#e06c75" /><rect x="60" y="40" width="20" height="20" fill="#e06c75" /><rect x="80" y="40" width="20" height="20" fill="#e06c75" /><rect x="100" y="40" width="20" height="20" fill="#e06c75" /><rect x="120" y="40" width="20" height="20" fill="#e06c75" /><rect x="20" y="60" width="20" height="20" fill="#e06c75" /><rect x="40" y="60" width="20" height="20" fill="#e06c75" /><rect x="60" y="60" width="20" height="20" fill="#e06c75" /><rect x="80" y="60" width="20" height="20" fill="#e06c75" /><rect x="100" y="60" width="20" height="20" fill="#e06c75" /><rect x="120" y="60" width="20" height="20" fill="#e06c75" /><rect x="20" y="80" width="20" height="20" fill="#e06c75" /><rect x="60" y="80" width="20" height="20" fill="#e06c75" /><rect x="80" y="80" width="20" height="20" fill="#e06c75" /><rect x="120" y="80" width="20" height="20" fill="#e06c75" /><rect x="0" y="100" width="20" height="20" fill="#e06c75" /><rect x="140" y="100" width="20" height="20" fill="#e06c75" /><rect x="0" y="120" width="20" height="20" fill="#e06c75" /><rect x="140" y="120" width="20" height="20" fill="#e06c75" />
  </g>
  
  <text x="10" y="150" font-family="monospace" font-size="12" fill="#333">Status: happy</text>
</svg>
  