<svg xmlns="http://www.w3.org/2000/svg" width="296" height="341" viewBox="0 0 296 341">
      <style>
        .pet { transform-origin: center; }
      </style>
      <!-- Theme Background -->
      
        <rect x="5" y="5" width="286" height="326" rx="12" ry="12" fill="rgba(45, 51, 59, 0.15)"/>
      
      <!-- Weather Effects (behind pet) -->
      <g class="weather-layer" style="pointer-events: none;">
        
        <g fill="#FFD700">
          <circle cx="246.84330800637363" cy="105.80217345755821" r="1.3877397532083586">
          <animate attributeName="opacity" values="0.3;1;0.3" dur="2.922767229770808s" repeatCount="indefinite"/>
        </circle><circle cx="247.71468853023902" cy="18.315178022597287" r="2.467899184577599">
          <animate attributeName="opacity" values="0.3;1;0.3" dur="1.7572671989556001s" repeatCount="indefinite"/>
        </circle><circle cx="20.14985928673986" cy="129.79815512053102" r="2.1126325622881983">
          <animate attributeName="opacity" values="0.3;1;0.3" dur="2.989043894388155s" repeatCount="indefinite"/>
        </circle><circle cx="153.6554828884912" cy="16.04073505448653" r="1.8863265489795946">
          <animate attributeName="opacity" values="0.3;1;0.3" dur="1.3553841906825084s" repeatCount="indefinite"/>
        </circle><circle cx="144.1313160580568" cy="171.82776518847032" r="1.7464153329827896">
          <animate attributeName="opacity" values="0.3;1;0.3" dur="1.2774690528908552s" repeatCount="indefinite"/>
        </circle><circle cx="246.73548420614787" cy="120.20179256260998" r="2.306234324179529">
          <animate attributeName="opacity" values="0.3;1;0.3" dur="1.617281747310281s" repeatCount="indefinite"/>
        </circle><circle cx="168.13332893779094" cy="162.66819223018848" r="2.833444026514148">
          <animate attributeName="opacity" values="0.3;1;0.3" dur="2.9198846762644632s" repeatCount="indefinite"/>
        </circle><circle cx="76.25668824646561" cy="160.74109946328556" r="2.6188924462403746">
          <animate attributeName="opacity" values="0.3;1;0.3" dur="1.5800999171418115s" repeatCount="indefinite"/>
        </circle><circle cx="277.0569204960868" cy="98.5472574810466" r="1.7829106072359937">
          <animate attributeName="opacity" values="0.3;1;0.3" dur="1.818779833646647s" repeatCount="indefinite"/>
        </circle><circle cx="274.76266490119923" cy="54.93645852269184" r="2.2096269542764935">
          <animate attributeName="opacity" values="0.3;1;0.3" dur="1.8154885040602329s" repeatCount="indefinite"/>
        </circle><circle cx="265.87175778930225" cy="150.9153196450679" r="2.2443474843390803">
          <animate attributeName="opacity" values="0.3;1;0.3" dur="1.200028260500503s" repeatCount="indefinite"/>
        </circle><circle cx="100.92832887066571" cy="166.69449793309977" r="2.297409796165161">
          <animate attributeName="opacity" values="0.3;1;0.3" dur="2.3442258549465325s" repeatCount="indefinite"/>
        </circle><circle cx="45.20278716804678" cy="72.10951027893353" r="1.22197589423092">
          <animate attributeName="opacity" values="0.3;1;0.3" dur="1.7363767916442865s" repeatCount="indefinite"/>
        </circle><circle cx="281.44178062129475" cy="108.50736972380514" r="2.833012463999611">
          <animate attributeName="opacity" values="0.3;1;0.3" dur="1.1883607817431026s" repeatCount="indefinite"/>
        </circle><circle cx="164.73437965032997" cy="32.90131374630664" r="1.1721915564745884">
          <animate attributeName="opacity" values="0.3;1;0.3" dur="1.4999618638183594s" repeatCount="indefinite"/>
        </circle>
        </g>
      
      </g>
      <!-- Evolution Effects (behind pet) -->
      <g class="evolution-layer" style="pointer-events: none;">
        
      <defs>
        <radialGradient id="evolutionAura">
          <stop offset="0%" stop-color="#9C27B0" stop-opacity="0.6"/>
          <stop offset="70%" stop-color="#9C27B0" stop-opacity="0.2"/>
          <stop offset="100%" stop-color="#9C27B0" stop-opacity="0"/>
        </radialGradient>
        <filter id="evolutionGlow">
          <feGaussianBlur stdDeviation="3" result="coloredBlur"/>
          <feMerge>
            <feMergeNode in="coloredBlur"/>
            <feMergeNode in="SourceGraphic"/>
          </feMerge>
        </filter>
      </defs>
      <circle cx="148" cy="148" r="55" fill="url(#evolutionAura)">
        <animate attributeName="r" values="55;63;55" dur="2s" repeatCount="indefinite"/>
        <animate attributeName="opacity" values="0.7;1;0.7" dur="2s" repeatCount="indefinite"/>
      </circle>
    <g class="evolution-sparkles">
        <circle cx="198" cy="148" r="2" fill="#E0E0E0">
          <animate attributeName="opacity" values="0;1;0" dur="1.5s" begin="0s" repeatCount="indefinite"/>
          <animate attributeName="r" values="1;3;1" dur="1.5s" begin="0s" repeatCount="indefinite"/>
        </circle>
      
        <circle cx="148" cy="198" r="2" fill="#E0E0E0">
          <animate attributeName="opacity" values="0;1;0" dur="1.5s" begin="0.5s" repeatCount="indefinite"/>
          <animate attributeName="r" values="1;3;1" dur="1.5s" begin="0.5s" repeatCount="indefinite"/>
        </circle>
      
        <circle cx="98" cy="148" r="2" fill="#E0E0E0">
          <animate attributeName="opacity" values="0;1;0" dur="1.5s" begin="1s" repeatCount="indefinite"/>
          <animate attributeName="r" values="1;3;1" dur="1.5s" begin="1s" repeatCount="indefinite"/>
        </circle>
      
        <circle cx="148" cy="98" r="2" fill="#E0E0E0">
          <animate attributeName="opacity" values="0;1;0" dur="1.5s" begin="1.5s" repeatCount="indefinite"/>
          <animate attributeName="r" values="1;3;1" dur="1.5s" begin="1.5s" repeatCount="indefinite"/>
        </circle>
      </g>
      </g>
      <g transform="translate(13.599999999999994, 13.599999999999994) scale(1.05)" opacity="1">
        <g class="pet">
            <rect x="48" y="32" width="16" height="16" fill="#2d333b" /><rect x="64" y="32" width="16" height="16" fill="#2d333b" /><rect x="80" y="32" width="16" height="16" fill="#2d333b" /><rect x="96" y="32" width="16" height="16" fill="#2d333b" /><rect x="112" y="32" width="16" height="16" fill="#2d333b" /><rect x="128" y="32" width="16" height="16" fill="#2d333b" /><rect x="144" y="32" width="16" height="16" fill="#2d333b" /><rect x="160" y="32" width="16" height="16" fill="#2d333b" /><rect x="176" y="32" width="16" height="16" fill="#2d333b" /><rect x="192" y="32" width="16" height="16" fill="#2d333b" /><rect x="32" y="48" width="16" height="16" fill="#2d333b" /><rect x="48" y="48" width="16" height="16" fill="#FF0000" /><rect x="64" y="48" width="16" height="16" fill="#FF0000" /><rect x="80" y="48" width="16" height="16" fill="#FF0000" /><rect x="96" y="48" width="16" height="16" fill="#FF0000" /><rect x="112" y="48" width="16" height="16" fill="#FF0000" /><rect x="128" y="48" width="16" height="16" fill="#FF0000" /><rect x="144" y="48" width="16" height="16" fill="#FF0000" /><rect x="160" y="48" width="16" height="16" fill="#FF0000" /><rect x="176" y="48" width="16" height="16" fill="#FF0000" /><rect x="192" y="48" width="16" height="16" fill="#FF0000" /><rect x="208" y="48" width="16" height="16" fill="#2d333b" /><rect x="16" y="64" width="16" height="16" fill="#2d333b" /><rect x="32" y="64" width="16" height="16" fill="#FF0000" /><rect x="48" y="64" width="16" height="16" fill="#FF0000" /><rect x="64" y="64" width="16" height="16" fill="#2d333b" /><rect x="80" y="64" width="16" height="16" fill="#2d333b" /><rect x="96" y="64" width="16" height="16" fill="#2d333b" /><rect x="112" y="64" width="16" height="16" fill="#2d333b" /><rect x="128" y="64" width="16" height="16" fill="#2d333b" /><rect x="144" y="64" width="16" height="16" fill="#2d333b" /><rect x="160" y="64" width="16" height="16" fill="#2d333b" /><rect x="176" y="64" width="16" height="16" fill="#FF0000" /><rect x="192" y="64" width="16" height="16" fill="#FF0000" /><rect x="208" y="64" width="16" height="16" fill="#2d333b" /><rect x="16" y="80" width="16" height="16" fill="#2d333b" /><rect x="32" y="80" width="16" height="16" fill="#FF0000" /><rect x="48" y="80" width="16" height="16" fill="#FF0000" /><rect x="64" y="80" width="16" height="16" fill="#FF9F00" /><rect x="80" y="80" width="16" height="16" fill="#FF9F00" /><rect x="96" y="80" width="16" height="16" fill="#FF9F00" /><rect x="112" y="80" width="16" height="16" fill="#FF9F00" /><rect x="128" y="80" width="16" height="16" fill="#FF9F00" /><rect x="144" y="80" width="16" height="16" fill="#FF9F00" /><rect x="160" y="80" width="16" height="16" fill="#FF9F00" /><rect x="176" y="80" width="16" height="16" fill="#FF0000" /><rect x="192" y="80" width="16" height="16" fill="#FF0000" /><rect x="208" y="80" width="16" height="16" fill="#2d333b" /><rect x="224" y="80" width="16" height="16" fill="#2d333b" /><rect x="16" y="96" width="16" height="16" fill="#2d333b" /><rect x="32" y="96" width="16" height="16" fill="#FF0000" /><rect x="48" y="96" width="16" height="16" fill="#FF0000" /><rect x="64" y="96" width="16" height="16" fill="#FF0000" /><rect x="80" y="96" width="16" height="16" fill="#FF0000" /><rect x="96" y="96" width="16" height="16" fill="#FF0000" /><rect x="112" y="96" width="16" height="16" fill="#FF0000" /><rect x="128" y="96" width="16" height="16" fill="#FF0000" /><rect x="144" y="96" width="16" height="16" fill="#FF0000" /><rect x="160" y="96" width="16" height="16" fill="#FF0000" /><rect x="176" y="96" width="16" height="16" fill="#FF0000" /><rect x="192" y="96" width="16" height="16" fill="#FF0000" /><rect x="208" y="96" width="16" height="16" fill="#2d333b" /><rect x="224" y="96" width="16" height="16" fill="#FF0000" /><rect x="240" y="96" width="16" height="16" fill="#2d333b" /><rect x="0" y="112" width="16" height="16" fill="#2d333b" /><rect x="16" y="112" width="16" height="16" fill="#FF0000" /><rect x="32" y="112" width="16" height="16" fill="#FF0000" /><rect x="48" y="112" width="16" height="16" fill="#FF0000" /><rect x="64" y="112" width="16" height="16" fill="#FF0000" /><rect x="80" y="112" width="16" height="16" fill="#FF0000" /><rect x="96" y="112" width="16" height="16" fill="#FF0000" /><rect x="112" y="112" width="16" height="16" fill="#FF0000" /><rect x="128" y="112" width="16" height="16" fill="#FF0000" /><rect x="144" y="112" width="16" height="16" fill="#FF0000" /><rect x="160" y="112" width="16" height="16" fill="#FF0000" /><rect x="176" y="112" width="16" height="16" fill="#FF0000" /><rect x="192" y="112" width="16" height="16" fill="#FF0000" /><rect x="208" y="112" width="16" height="16" fill="#FF0000" /><rect x="224" y="112" width="16" height="16" fill="#FF0000" /><rect x="240" y="112" width="16" height="16" fill="#2d333b" /><rect x="0" y="128" width="16" height="16" fill="#2d333b" /><rect x="16" y="128" width="16" height="16" fill="#FF0000" /><rect x="32" y="128" width="16" height="16" fill="#FF0000" /><rect x="48" y="128" width="16" height="16" fill="#FF0000" /><rect x="64" y="128" width="16" height="16" fill="#FF0000" /><rect x="80" y="128" width="16" height="16" fill="#FF0000" /><rect x="96" y="128" width="16" height="16" fill="#FF0000" /><rect x="112" y="128" width="16" height="16" fill="#FF0000" /><rect x="128" y="128" width="16" height="16" fill="#FF0000" /><rect x="144" y="128" width="16" height="16" fill="#FF0000" /><rect x="160" y="128" width="16" height="16" fill="#FF0000" /><rect x="176" y="128" width="16" height="16" fill="#FF0000" /><rect x="192" y="128" width="16" height="16" fill="#FF0000" /><rect x="208" y="128" width="16" height="16" fill="#FF0000" /><rect x="224" y="128" width="16" height="16" fill="#FF0000" /><rect x="240" y="128" width="16" height="16" fill="#2d333b" /><rect x="16" y="144" width="16" height="16" fill="#2d333b" /><rect x="32" y="144" width="16" height="16" fill="#FF0000" /><rect x="48" y="144" width="16" height="16" fill="#FF0000" /><rect x="64" y="144" width="16" height="16" fill="#FF0000" /><rect x="80" y="144" width="16" height="16" fill="#FF0000" /><rect x="96" y="144" width="16" height="16" fill="#FF0000" /><rect x="112" y="144" width="16" height="16" fill="#FF0000" /><rect x="128" y="144" width="16" height="16" fill="#FF0000" /><rect x="144" y="144" width="16" height="16" fill="#FF0000" /><rect x="160" y="144" width="16" height="16" fill="#FF0000" /><rect x="176" y="144" width="16" height="16" fill="#FF0000" /><rect x="192" y="144" width="16" height="16" fill="#FF0000" /><rect x="208" y="144" width="16" height="16" fill="#2d333b" /><rect x="32" y="160" width="16" height="16" fill="#2d333b" /><rect x="48" y="160" width="16" height="16" fill="#2d333b" /><rect x="64" y="160" width="16" height="16" fill="#FF0000" /><rect x="80" y="160" width="16" height="16" fill="#FF0000" /><rect x="96" y="160" width="16" height="16" fill="#FF0000" /><rect x="112" y="160" width="16" height="16" fill="#FF0000" /><rect x="128" y="160" width="16" height="16" fill="#FF0000" /><rect x="144" y="160" width="16" height="16" fill="#FF0000" /><rect x="160" y="160" width="16" height="16" fill="#FF0000" /><rect x="176" y="160" width="16" height="16" fill="#2d333b" /><rect x="192" y="160" width="16" height="16" fill="#2d333b" /><rect x="48" y="176" width="16" height="16" fill="#2d333b" /><rect x="64" y="176" width="16" height="16" fill="#2d333b" /><rect x="80" y="176" width="16" height="16" fill="#2d333b" /><rect x="96" y="176" width="16" height="16" fill="#2d333b" /><rect x="112" y="176" width="16" height="16" fill="#2d333b" /><rect x="128" y="176" width="16" height="16" fill="#2d333b" /><rect x="144" y="176" width="16" height="16" fill="#2d333b" /><rect x="160" y="176" width="16" height="16" fill="#2d333b" />
            
        <animateTransform 
            attributeName="transform" 
            type="scale" 
            values="1 1; 1.02 0.98; 1 1" 
            dur="2s" 
            repeatCount="indefinite" 
        />
        </g>
        <!-- Speech Bubble -->
        
    <g transform="translate(226, -25)">
      <!-- Speech bubble -->
      <rect x="0" y="0" width="62" height="24" rx="10" ry="10" 
            fill="#FFFFFF" stroke="#2d333b" stroke-width="1.5"/>
      <!-- Bubble tail -->
      <polygon points="15,24 20,32 25,24" 
               fill="#FFFFFF" stroke="#2d333b" stroke-width="1.5"/>
      <line x1="16" y1="24" x2="24" y2="24" stroke="#FFFFFF" stroke-width="2"/>
      <!-- Text -->
      <text x="31" y="16" 
            font-family="'Segoe UI', Arial, sans-serif" font-size="10" 
            fill="#2d333b" text-anchor="middle">zzZ...</text>
    </g>
  
        <!-- Seasonal Accessory (z-index: above pet) -->
        
      </g>
      
      <!-- Level & Mood Text -->
      <text x="20" y="299" font-family="monospace" font-size="11" fill="#666">
        💫 Lv.53 Master
      </text>
      <text x="276" y="299" text-anchor="end" font-family="monospace" font-size="11" fill="#666">
        💤 SLEEPING 🔥3
      </text>
      
      <!-- XP Progress Bar -->
      <rect x="20" y="306" width="256" height="8" rx="4" fill="#e0e0e0" stroke="#0288d1" stroke-width="1"/>
      <rect x="20" y="306" width="46.08" height="8" rx="4" fill="#4fc3f7">
        <animate attributeName="width" from="0" to="46.08" dur="0.5s" fill="freeze"/>
      </rect>
      
      <!-- XP Text -->
      <text x="50%" y="329" text-anchor="middle" font-family="monospace" font-size="9" fill="#666">
        XP: 27230 / 28090 (18%)
      </text>
    
      
      <!-- Achievement Badges -->
      <g transform="translate(15, 311)">
    <g class="achievements">
      
      <g transform="translate(5, 0)">
        <title>Rising Star: Level 5</title>
        <circle cx="10" cy="10" r="10" fill="rgba(255,255,255,0.9)" stroke="#ddd" stroke-width="1"/>
        <text x="10" y="14" text-anchor="middle" font-size="11">🌟</text>
      </g>
    
      <g transform="translate(30, 0)">
        <title>Shining: Level 10</title>
        <circle cx="10" cy="10" r="10" fill="rgba(255,255,255,0.9)" stroke="#ddd" stroke-width="1"/>
        <text x="10" y="14" text-anchor="middle" font-size="11">✨</text>
      </g>
    
      <g transform="translate(55, 0)">
        <title>Rainbow: Level 25</title>
        <circle cx="10" cy="10" r="10" fill="rgba(255,255,255,0.9)" stroke="#ddd" stroke-width="1"/>
        <text x="10" y="14" text-anchor="middle" font-size="11">🌈</text>
      </g>
    
      <g transform="translate(80, 0)">
        <title>Rocket: Level 50</title>
        <circle cx="10" cy="10" r="10" fill="rgba(255,255,255,0.9)" stroke="#ddd" stroke-width="1"/>
        <text x="10" y="14" text-anchor="middle" font-size="11">🚀</text>
      </g>
    
      <g transform="translate(105, 0)">
        <title>Night Owl: Late night commit</title>
        <circle cx="10" cy="10" r="10" fill="rgba(255,255,255,0.9)" stroke="#ddd" stroke-width="1"/>
        <text x="10" y="14" text-anchor="middle" font-size="11">🦉</text>
      </g>
    
      <g transform="translate(130, 0)">
        <title>Weekend Warrior: Weekend commit</title>
        <circle cx="10" cy="10" r="10" fill="rgba(255,255,255,0.9)" stroke="#ddd" stroke-width="1"/>
        <text x="10" y="14" text-anchor="middle" font-size="11">🏖️</text>
      </g>
    
      <text x="160" y="14" font-family="monospace" font-size="9" fill="#666">+1</text>
    </g>
  </g>
    </svg>