<svg><rect x="40" y="0" width="20" height="20" fill="#e06c75" /><rect x="100" y="0" width="20" height="20" fill="#e06c75" /><rect x="60" y="20" width="20" height="20" fill="#e06c75" /><rect x="80" y="20" width="20" height="20" fill="#e06c75" /><rect x="20" y="40" width="20" height="20" fill="#e06c75" /><rect x="40" y="40" width="20" height="20" fill="#e06c75" /><rect x="60" y="40" width="20" height="20" fill="#e06c75" /><rect x="80" y="40" width="20" height="20" fill="#e06c75" /><rect x="100" y="40" width="20" height="20" fill="#e06c75" /><rect x="120" y="40" width="20" height="20" fill="#e06c75" /><rect x="20" y="60" width="20" height="20" fill="#e06c75" /><rect x="40" y="60" width="20" height="20" fill="#e06c75" /><rect x="60" y="60" width="20" height="20" fill="#e06c75" /><rect x="80" y="60" width="20" height="20" fill="#e06c75" /><rect x="100" y="60" width="20" height="20" fill="#e06c75" /><rect x="120" y="60" width="20" height="20" fill="#e06c75" /><rect x="20" y="80" width="20" height="20" fill="#e06c75" /><rect x="60" y="80" width="20" height="20" fill="#e06c75" /><rect x="80" y="80" width="20" height="20" fill="#e06c75" /><rect x="120" y="80" width="20" height="20" fill="#e06c75" /><rect x="0" y="100" width="20" height="20" fill="#e06c75" /><rect x="140" y="100" width="20" height="20" fill="#e06c75" /><rect x="0" y="120" width="20" height="20" fill="#e06c75" /><rect x="140" y="120" width="20" height="20" fill="#e06c75" /></svg>