<svg xmlns="http://www.w3.org/2000/svg" width="192" height="192" viewBox="0 0 192 192">
      <rect width="100%" height="100%" fill="transparent" />
      <g><rect x="80" y="0" width="16" height="16" fill="#24292e" /><rect x="80" y="16" width="16" height="16" fill="#24292e" /><rect x="0" y="32" width="16" height="16" fill="#24292e" /><rect x="64" y="32" width="16" height="16" fill="#24292e" /><rect x="80" y="32" width="16" height="16" fill="#24292e" /><rect x="96" y="32" width="16" height="16" fill="#24292e" /><rect x="160" y="32" width="16" height="16" fill="#24292e" /><rect x="16" y="48" width="16" height="16" fill="#24292e" /><rect x="48" y="48" width="16" height="16" fill="#24292e" /><rect x="64" y="48" width="16" height="16" fill="#24292e" /><rect x="80" y="48" width="16" height="16" fill="#24292e" /><rect x="96" y="48" width="16" height="16" fill="#24292e" /><rect x="112" y="48" width="16" height="16" fill="#24292e" /><rect x="144" y="48" width="16" height="16" fill="#24292e" /><rect x="32" y="64" width="16" height="16" fill="#24292e" /><rect x="48" y="64" width="16" height="16" fill="#24292e" /><rect x="64" y="64" width="16" height="16" fill="#e5c07b" /><rect x="80" y="64" width="16" height="16" fill="#e5c07b" /><rect x="96" y="64" width="16" height="16" fill="#e5c07b" /><rect x="112" y="64" width="16" height="16" fill="#24292e" /><rect x="128" y="64" width="16" height="16" fill="#24292e" /><rect x="16" y="80" width="16" height="16" fill="#24292e" /><rect x="32" y="80" width="16" height="16" fill="#24292e" /><rect x="48" y="80" width="16" height="16" fill="#e5c07b" /><rect x="64" y="80" width="16" height="16" fill="#ffffff" /><rect x="80" y="80" width="16" height="16" fill="#24292e" /><rect x="96" y="80" width="16" height="16" fill="#ffffff" /><rect x="112" y="80" width="16" height="16" fill="#e5c07b" /><rect x="128" y="80" width="16" height="16" fill="#24292e" /><rect x="144" y="80" width="16" height="16" fill="#24292e" /><rect x="0" y="96" width="16" height="16" fill="#24292e" /><rect x="32" y="96" width="16" height="16" fill="#24292e" /><rect x="48" y="96" width="16" height="16" fill="#e5c07b" /><rect x="64" y="96" width="16" height="16" fill="#e5c07b" /><rect x="80" y="96" width="16" height="16" fill="#e5c07b" /><rect x="96" y="96" width="16" height="16" fill="#e5c07b" /><rect x="112" y="96" width="16" height="16" fill="#e5c07b" /><rect x="128" y="96" width="16" height="16" fill="#24292e" /><rect x="160" y="96" width="16" height="16" fill="#24292e" /><rect x="32" y="112" width="16" height="16" fill="#24292e" /><rect x="48" y="112" width="16" height="16" fill="#24292e" /><rect x="64" y="112" width="16" height="16" fill="#e5c07b" /><rect x="80" y="112" width="16" height="16" fill="#e5c07b" /><rect x="96" y="112" width="16" height="16" fill="#e5c07b" /><rect x="112" y="112" width="16" height="16" fill="#24292e" /><rect x="128" y="112" width="16" height="16" fill="#24292e" /><rect x="16" y="128" width="16" height="16" fill="#24292e" /><rect x="64" y="128" width="16" height="16" fill="#24292e" /><rect x="80" y="128" width="16" height="16" fill="#24292e" /><rect x="96" y="128" width="16" height="16" fill="#24292e" /><rect x="144" y="128" width="16" height="16" fill="#24292e" /><rect x="0" y="144" width="16" height="16" fill="#24292e" /><rect x="48" y="144" width="16" height="16" fill="#24292e" /><rect x="112" y="144" width="16" height="16" fill="#24292e" /><rect x="160" y="144" width="16" height="16" fill="#24292e" /><rect x="32" y="160" width="16" height="16" fill="#24292e" /><rect x="128" y="160" width="16" height="16" fill="#24292e" /></g>
    </svg>