<svg xmlns="http://www.w3.org/2000/svg" width="296" height="341" viewBox="0 0 296 341">
      <style>
        .pet { transform-origin: center; }
      </style>
      <!-- Theme Background -->
      
        <rect x="5" y="5" width="286" height="326" rx="12" ry="12" fill="rgba(45, 51, 59, 0.15)"/>
      
      <!-- Weather Effects (behind pet) -->
      <g class="weather-layer" style="pointer-events: none;">
        
        <g fill="#FFD700">
          <circle cx="52.15034993685577" cy="30.674981863375315" r="1.3021784115105954">
          <animate attributeName="opacity" values="0.3;1;0.3" dur="2.0295852966894996s" repeatCount="indefinite"/>
        </circle><circle cx="74.966822757272" cy="76.56253532704591" r="1.1216798574959044">
          <animate attributeName="opacity" values="0.3;1;0.3" dur="1.0717972268589033s" repeatCount="indefinite"/>
        </circle><circle cx="250.63625795432708" cy="151.20515004836707" r="2.3769304110261857">
          <animate attributeName="opacity" values="0.3;1;0.3" dur="1.5716717662878792s" repeatCount="indefinite"/>
        </circle><circle cx="89.29511623624029" cy="75.52644941526403" r="2.6809372871892903">
          <animate attributeName="opacity" values="0.3;1;0.3" dur="2.541608914824242s" repeatCount="indefinite"/>
        </circle><circle cx="230.049361676258" cy="13.319062962763383" r="2.2459975104937864">
          <animate attributeName="opacity" values="0.3;1;0.3" dur="2.8187512041023366s" repeatCount="indefinite"/>
        </circle><circle cx="246.64089230359426" cy="175.90471559535328" r="2.072307030811552">
          <animate attributeName="opacity" values="0.3;1;0.3" dur="2.370607583932233s" repeatCount="indefinite"/>
        </circle><circle cx="95.98206165063581" cy="102.73975749437791" r="2.38974582135351">
          <animate attributeName="opacity" values="0.3;1;0.3" dur="2.7320184478850633s" repeatCount="indefinite"/>
        </circle><circle cx="252.80157905103667" cy="34.400872955338116" r="2.9976096694876104">
          <animate attributeName="opacity" values="0.3;1;0.3" dur="1.4086923443350963s" repeatCount="indefinite"/>
        </circle><circle cx="185.59481924399722" cy="72.63310659488454" r="2.9713282589809924">
          <animate attributeName="opacity" values="0.3;1;0.3" dur="1.5939888789776169s" repeatCount="indefinite"/>
        </circle><circle cx="189.75346001418907" cy="78.28508828824229" r="2.1291211403227743">
          <animate attributeName="opacity" values="0.3;1;0.3" dur="2.429096282389908s" repeatCount="indefinite"/>
        </circle><circle cx="127.28946786681782" cy="154.29758616732502" r="1.6036922867922296">
          <animate attributeName="opacity" values="0.3;1;0.3" dur="2.7695943037393245s" repeatCount="indefinite"/>
        </circle><circle cx="131.4614964594174" cy="143.2759369694887" r="1.337077755095553">
          <animate attributeName="opacity" values="0.3;1;0.3" dur="2.455768906891346s" repeatCount="indefinite"/>
        </circle><circle cx="31.957798908483372" cy="93.34209175555674" r="1.2666011558637904">
          <animate attributeName="opacity" values="0.3;1;0.3" dur="2.6475483308301437s" repeatCount="indefinite"/>
        </circle><circle cx="212.85241351812547" cy="18.771523959100954" r="2.875542224491175">
          <animate attributeName="opacity" values="0.3;1;0.3" dur="1.8814700971641964s" repeatCount="indefinite"/>
        </circle><circle cx="134.8464653519551" cy="154.140347439934" r="1.5889570422219839">
          <animate attributeName="opacity" values="0.3;1;0.3" dur="1.0854424479421256s" repeatCount="indefinite"/>
        </circle>
        </g>
      
      </g>
      <!-- Evolution Effects (behind pet) -->
      <g class="evolution-layer" style="pointer-events: none;">
        
      <defs>
        <radialGradient id="evolutionAura">
          <stop offset="0%" stop-color="#9C27B0" stop-opacity="0.6"/>
          <stop offset="70%" stop-color="#9C27B0" stop-opacity="0.2"/>
          <stop offset="100%" stop-color="#9C27B0" stop-opacity="0"/>
        </radialGradient>
        <filter id="evolutionGlow">
          <feGaussianBlur stdDeviation="3" result="coloredBlur"/>
          <feMerge>
            <feMergeNode in="coloredBlur"/>
            <feMergeNode in="SourceGraphic"/>
          </feMerge>
        </filter>
      </defs>
      <circle cx="148" cy="148" r="55" fill="url(#evolutionAura)">
        <animate attributeName="r" values="55;63;55" dur="2s" repeatCount="indefinite"/>
        <animate attributeName="opacity" values="0.7;1;0.7" dur="2s" repeatCount="indefinite"/>
      </circle>
    <g class="evolution-sparkles">
        <circle cx="198" cy="148" r="2" fill="#E0E0E0">
          <animate attributeName="opacity" values="0;1;0" dur="1.5s" begin="0s" repeatCount="indefinite"/>
          <animate attributeName="r" values="1;3;1" dur="1.5s" begin="0s" repeatCount="indefinite"/>
        </circle>
      
        <circle cx="148" cy="198" r="2" fill="#E0E0E0">
          <animate attributeName="opacity" values="0;1;0" dur="1.5s" begin="0.5s" repeatCount="indefinite"/>
          <animate attributeName="r" values="1;3;1" dur="1.5s" begin="0.5s" repeatCount="indefinite"/>
        </circle>
      
        <circle cx="98" cy="148" r="2" fill="#E0E0E0">
          <animate attributeName="opacity" values="0;1;0" dur="1.5s" begin="1s" repeatCount="indefinite"/>
          <animate attributeName="r" values="1;3;1" dur="1.5s" begin="1s" repeatCount="indefinite"/>
        </circle>
      
        <circle cx="148" cy="98" r="2" fill="#E0E0E0">
          <animate attributeName="opacity" values="0;1;0" dur="1.5s" begin="1.5s" repeatCount="indefinite"/>
          <animate attributeName="r" values="1;3;1" dur="1.5s" begin="1.5s" repeatCount="indefinite"/>
        </circle>
      </g>
      </g>
      <g transform="translate(13.599999999999994, 13.599999999999994) scale(1.05)" opacity="1">
        <g class="pet">
            <rect x="48" y="32" width="16" height="16" fill="#2d333b" /><rect x="64" y="32" width="16" height="16" fill="#2d333b" /><rect x="80" y="32" width="16" height="16" fill="#2d333b" /><rect x="96" y="32" width="16" height="16" fill="#2d333b" /><rect x="112" y="32" width="16" height="16" fill="#2d333b" /><rect x="128" y="32" width="16" height="16" fill="#2d333b" /><rect x="144" y="32" width="16" height="16" fill="#2d333b" /><rect x="160" y="32" width="16" height="16" fill="#2d333b" /><rect x="176" y="32" width="16" height="16" fill="#2d333b" /><rect x="192" y="32" width="16" height="16" fill="#2d333b" /><rect x="32" y="48" width="16" height="16" fill="#2d333b" /><rect x="48" y="48" width="16" height="16" fill="#FF0000" /><rect x="64" y="48" width="16" height="16" fill="#FF0000" /><rect x="80" y="48" width="16" height="16" fill="#FF0000" /><rect x="96" y="48" width="16" height="16" fill="#FF0000" /><rect x="112" y="48" width="16" height="16" fill="#FF0000" /><rect x="128" y="48" width="16" height="16" fill="#FF0000" /><rect x="144" y="48" width="16" height="16" fill="#FF0000" /><rect x="160" y="48" width="16" height="16" fill="#FF0000" /><rect x="176" y="48" width="16" height="16" fill="#FF0000" /><rect x="192" y="48" width="16" height="16" fill="#FF0000" /><rect x="208" y="48" width="16" height="16" fill="#2d333b" /><rect x="16" y="64" width="16" height="16" fill="#2d333b" /><rect x="32" y="64" width="16" height="16" fill="#FF0000" /><rect x="48" y="64" width="16" height="16" fill="#FF0000" /><rect x="64" y="64" width="16" height="16" fill="#2d333b" /><rect x="80" y="64" width="16" height="16" fill="#2d333b" /><rect x="96" y="64" width="16" height="16" fill="#2d333b" /><rect x="112" y="64" width="16" height="16" fill="#2d333b" /><rect x="128" y="64" width="16" height="16" fill="#2d333b" /><rect x="144" y="64" width="16" height="16" fill="#2d333b" /><rect x="160" y="64" width="16" height="16" fill="#2d333b" /><rect x="176" y="64" width="16" height="16" fill="#FF0000" /><rect x="192" y="64" width="16" height="16" fill="#FF0000" /><rect x="208" y="64" width="16" height="16" fill="#2d333b" /><rect x="16" y="80" width="16" height="16" fill="#2d333b" /><rect x="32" y="80" width="16" height="16" fill="#FF0000" /><rect x="48" y="80" width="16" height="16" fill="#FF0000" /><rect x="64" y="80" width="16" height="16" fill="#FF9F00" /><rect x="80" y="80" width="16" height="16" fill="#FF9F00" /><rect x="96" y="80" width="16" height="16" fill="#FF9F00" /><rect x="112" y="80" width="16" height="16" fill="#FF9F00" /><rect x="128" y="80" width="16" height="16" fill="#FF9F00" /><rect x="144" y="80" width="16" height="16" fill="#FF9F00" /><rect x="160" y="80" width="16" height="16" fill="#FF9F00" /><rect x="176" y="80" width="16" height="16" fill="#FF0000" /><rect x="192" y="80" width="16" height="16" fill="#FF0000" /><rect x="208" y="80" width="16" height="16" fill="#2d333b" /><rect x="224" y="80" width="16" height="16" fill="#2d333b" /><rect x="16" y="96" width="16" height="16" fill="#2d333b" /><rect x="32" y="96" width="16" height="16" fill="#FF0000" /><rect x="48" y="96" width="16" height="16" fill="#FF0000" /><rect x="64" y="96" width="16" height="16" fill="#FF0000" /><rect x="80" y="96" width="16" height="16" fill="#FF0000" /><rect x="96" y="96" width="16" height="16" fill="#FF0000" /><rect x="112" y="96" width="16" height="16" fill="#FF0000" /><rect x="128" y="96" width="16" height="16" fill="#FF0000" /><rect x="144" y="96" width="16" height="16" fill="#FF0000" /><rect x="160" y="96" width="16" height="16" fill="#FF0000" /><rect x="176" y="96" width="16" height="16" fill="#FF0000" /><rect x="192" y="96" width="16" height="16" fill="#FF0000" /><rect x="208" y="96" width="16" height="16" fill="#2d333b" /><rect x="224" y="96" width="16" height="16" fill="#FF0000" /><rect x="240" y="96" width="16" height="16" fill="#2d333b" /><rect x="0" y="112" width="16" height="16" fill="#2d333b" /><rect x="16" y="112" width="16" height="16" fill="#FF0000" /><rect x="32" y="112" width="16" height="16" fill="#FF0000" /><rect x="48" y="112" width="16" height="16" fill="#FF0000" /><rect x="64" y="112" width="16" height="16" fill="#FF0000" /><rect x="80" y="112" width="16" height="16" fill="#FF0000" /><rect x="96" y="112" width="16" height="16" fill="#FF0000" /><rect x="112" y="112" width="16" height="16" fill="#FF0000" /><rect x="128" y="112" width="16" height="16" fill="#FF0000" /><rect x="144" y="112" width="16" height="16" fill="#FF0000" /><rect x="160" y="112" width="16" height="16" fill="#FF0000" /><rect x="176" y="112" width="16" height="16" fill="#FF0000" /><rect x="192" y="112" width="16" height="16" fill="#FF0000" /><rect x="208" y="112" width="16" height="16" fill="#FF0000" /><rect x="224" y="112" width="16" height="16" fill="#FF0000" /><rect x="240" y="112" width="16" height="16" fill="#2d333b" /><rect x="0" y="128" width="16" height="16" fill="#2d333b" /><rect x="16" y="128" width="16" height="16" fill="#FF0000" /><rect x="32" y="128" width="16" height="16" fill="#FF0000" /><rect x="48" y="128" width="16" height="16" fill="#FF0000" /><rect x="64" y="128" width="16" height="16" fill="#FF0000" /><rect x="80" y="128" width="16" height="16" fill="#FF0000" /><rect x="96" y="128" width="16" height="16" fill="#FF0000" /><rect x="112" y="128" width="16" height="16" fill="#FF0000" /><rect x="128" y="128" width="16" height="16" fill="#FF0000" /><rect x="144" y="128" width="16" height="16" fill="#FF0000" /><rect x="160" y="128" width="16" height="16" fill="#FF0000" /><rect x="176" y="128" width="16" height="16" fill="#FF0000" /><rect x="192" y="128" width="16" height="16" fill="#FF0000" /><rect x="208" y="128" width="16" height="16" fill="#FF0000" /><rect x="224" y="128" width="16" height="16" fill="#FF0000" /><rect x="240" y="128" width="16" height="16" fill="#2d333b" /><rect x="16" y="144" width="16" height="16" fill="#2d333b" /><rect x="32" y="144" width="16" height="16" fill="#FF0000" /><rect x="48" y="144" width="16" height="16" fill="#FF0000" /><rect x="64" y="144" width="16" height="16" fill="#FF0000" /><rect x="80" y="144" width="16" height="16" fill="#FF0000" /><rect x="96" y="144" width="16" height="16" fill="#FF0000" /><rect x="112" y="144" width="16" height="16" fill="#FF0000" /><rect x="128" y="144" width="16" height="16" fill="#FF0000" /><rect x="144" y="144" width="16" height="16" fill="#FF0000" /><rect x="160" y="144" width="16" height="16" fill="#FF0000" /><rect x="176" y="144" width="16" height="16" fill="#FF0000" /><rect x="192" y="144" width="16" height="16" fill="#FF0000" /><rect x="208" y="144" width="16" height="16" fill="#2d333b" /><rect x="32" y="160" width="16" height="16" fill="#2d333b" /><rect x="48" y="160" width="16" height="16" fill="#2d333b" /><rect x="64" y="160" width="16" height="16" fill="#FF0000" /><rect x="80" y="160" width="16" height="16" fill="#FF0000" /><rect x="96" y="160" width="16" height="16" fill="#FF0000" /><rect x="112" y="160" width="16" height="16" fill="#FF0000" /><rect x="128" y="160" width="16" height="16" fill="#FF0000" /><rect x="144" y="160" width="16" height="16" fill="#FF0000" /><rect x="160" y="160" width="16" height="16" fill="#FF0000" /><rect x="176" y="160" width="16" height="16" fill="#2d333b" /><rect x="192" y="160" width="16" height="16" fill="#2d333b" /><rect x="48" y="176" width="16" height="16" fill="#2d333b" /><rect x="64" y="176" width="16" height="16" fill="#2d333b" /><rect x="80" y="176" width="16" height="16" fill="#2d333b" /><rect x="96" y="176" width="16" height="16" fill="#2d333b" /><rect x="112" y="176" width="16" height="16" fill="#2d333b" /><rect x="128" y="176" width="16" height="16" fill="#2d333b" /><rect x="144" y="176" width="16" height="16" fill="#2d333b" /><rect x="160" y="176" width="16" height="16" fill="#2d333b" />
            
        <animateTransform 
            attributeName="transform" 
            type="scale" 
            values="1 1; 1.02 0.98; 1 1" 
            dur="2s" 
            repeatCount="indefinite" 
        />
        </g>
        <!-- Speech Bubble -->
        
    <g transform="translate(226, -25)">
      <!-- Speech bubble -->
      <rect x="0" y="0" width="111" height="24" rx="10" ry="10" 
            fill="#FFFFFF" stroke="#2d333b" stroke-width="1.5"/>
      <!-- Bubble tail -->
      <polygon points="15,24 20,32 25,24" 
               fill="#FFFFFF" stroke="#2d333b" stroke-width="1.5"/>
      <line x1="16" y1="24" x2="24" y2="24" stroke="#FFFFFF" stroke-width="2"/>
      <!-- Text -->
      <text x="55.5" y="16" 
            font-family="'Segoe UI', Arial, sans-serif" font-size="10" 
            fill="#2d333b" text-anchor="middle">Recharging...</text>
    </g>
  
        <!-- Seasonal Accessory (z-index: above pet) -->
        
      </g>
      
      <!-- Level & Mood Text -->
      <text x="20" y="299" font-family="monospace" font-size="11" fill="#666">
        💫 Lv.63 Master
      </text>
      <text x="276" y="299" text-anchor="end" font-family="monospace" font-size="11" fill="#666">
        💤 SLEEPING 🔥6
      </text>
      
      <!-- XP Progress Bar -->
      <rect x="20" y="306" width="256" height="8" rx="4" fill="#e0e0e0" stroke="#0288d1" stroke-width="1"/>
      <rect x="20" y="306" width="227.84" height="8" rx="4" fill="#4fc3f7">
        <animate attributeName="width" from="0" to="227.84" dur="0.5s" fill="freeze"/>
      </rect>
      
      <!-- XP Text -->
      <text x="50%" y="329" text-anchor="middle" font-family="monospace" font-size="9" fill="#666">
        XP: 39560 / 39690 (89%)
      </text>
    
      
      <!-- Achievement Badges -->
      <g transform="translate(15, 311)">
    <g class="achievements">
      
      <g transform="translate(5, 0)">
        <title>Spark: 3 day streak</title>
        <circle cx="10" cy="10" r="10" fill="rgba(255,255,255,0.9)" stroke="#ddd" stroke-width="1"/>
        <text x="10" y="14" text-anchor="middle" font-size="11">⚡</text>
      </g>
    
      <g transform="translate(30, 0)">
        <title>Rising Star: Level 5</title>
        <circle cx="10" cy="10" r="10" fill="rgba(255,255,255,0.9)" stroke="#ddd" stroke-width="1"/>
        <text x="10" y="14" text-anchor="middle" font-size="11">🌟</text>
      </g>
    
      <g transform="translate(55, 0)">
        <title>Shining: Level 10</title>
        <circle cx="10" cy="10" r="10" fill="rgba(255,255,255,0.9)" stroke="#ddd" stroke-width="1"/>
        <text x="10" y="14" text-anchor="middle" font-size="11">✨</text>
      </g>
    
      <g transform="translate(80, 0)">
        <title>Rainbow: Level 25</title>
        <circle cx="10" cy="10" r="10" fill="rgba(255,255,255,0.9)" stroke="#ddd" stroke-width="1"/>
        <text x="10" y="14" text-anchor="middle" font-size="11">🌈</text>
      </g>
    
      <g transform="translate(105, 0)">
        <title>Rocket: Level 50</title>
        <circle cx="10" cy="10" r="10" fill="rgba(255,255,255,0.9)" stroke="#ddd" stroke-width="1"/>
        <text x="10" y="14" text-anchor="middle" font-size="11">🚀</text>
      </g>
    
      <g transform="translate(130, 0)">
        <title>Night Owl: Late night commit</title>
        <circle cx="10" cy="10" r="10" fill="rgba(255,255,255,0.9)" stroke="#ddd" stroke-width="1"/>
        <text x="10" y="14" text-anchor="middle" font-size="11">🦉</text>
      </g>
    
      
    </g>
  </g>
    </svg>