<svg xmlns="http://www.w3.org/2000/svg" width="296" height="341" viewBox="0 0 296 341">
      <style>
        .pet { transform-origin: center; }
      </style>
      <!-- Theme Background -->
      
        <rect x="5" y="5" width="286" height="326" rx="12" ry="12" fill="rgba(45, 51, 59, 0.15)"/>
      
      <!-- Weather Effects (behind pet) -->
      <g class="weather-layer" style="pointer-events: none;">
        
        <g fill="#FFD700">
          <circle cx="60.62878368773291" cy="143.88711227953192" r="1.262531465305055">
          <animate attributeName="opacity" values="0.3;1;0.3" dur="2.4261611384001625s" repeatCount="indefinite"/>
        </circle><circle cx="252.90140004149276" cy="30.501327710358265" r="2.3863168498150618">
          <animate attributeName="opacity" values="0.3;1;0.3" dur="2.690395466882692s" repeatCount="indefinite"/>
        </circle><circle cx="99.98610149801485" cy="109.97665494115044" r="2.4704362092181804">
          <animate attributeName="opacity" values="0.3;1;0.3" dur="1.2273815192204949s" repeatCount="indefinite"/>
        </circle><circle cx="206.79196757022723" cy="156.67299970424733" r="1.381482208515949">
          <animate attributeName="opacity" values="0.3;1;0.3" dur="1.9759360701067834s" repeatCount="indefinite"/>
        </circle><circle cx="171.5370615657204" cy="178.69821472451542" r="2.943153515599516">
          <animate attributeName="opacity" values="0.3;1;0.3" dur="1.8083134615040284s" repeatCount="indefinite"/>
        </circle><circle cx="27.54583820730946" cy="83.75017559674072" r="2.566638878060518">
          <animate attributeName="opacity" values="0.3;1;0.3" dur="2.452054053431827s" repeatCount="indefinite"/>
        </circle><circle cx="202.70058956273488" cy="73.886409200429" r="2.349957288809734">
          <animate attributeName="opacity" values="0.3;1;0.3" dur="2.5798328454282835s" repeatCount="indefinite"/>
        </circle><circle cx="43.45594399973096" cy="154.08976202323566" r="2.6431968407877853">
          <animate attributeName="opacity" values="0.3;1;0.3" dur="1.0002513025135764s" repeatCount="indefinite"/>
        </circle><circle cx="216.7583177288234" cy="80.26029556834509" r="1.6215135093858208">
          <animate attributeName="opacity" values="0.3;1;0.3" dur="2.485910081078327s" repeatCount="indefinite"/>
        </circle><circle cx="229.7497042404006" cy="173.16800504816794" r="2.881453946224827">
          <animate attributeName="opacity" values="0.3;1;0.3" dur="2.6309713916164283s" repeatCount="indefinite"/>
        </circle><circle cx="285.5637513396049" cy="134.6821693014267" r="1.5457024587853838">
          <animate attributeName="opacity" values="0.3;1;0.3" dur="1.016372916251096s" repeatCount="indefinite"/>
        </circle><circle cx="176.6454227693419" cy="173.2054018309496" r="2.8114615755629515">
          <animate attributeName="opacity" values="0.3;1;0.3" dur="1.2530909056826398s" repeatCount="indefinite"/>
        </circle><circle cx="178.93161799248213" cy="71.35652437374273" r="2.757427722551646">
          <animate attributeName="opacity" values="0.3;1;0.3" dur="2.7832747331651357s" repeatCount="indefinite"/>
        </circle><circle cx="232.22127038481713" cy="54.23858396899942" r="2.675039136860844">
          <animate attributeName="opacity" values="0.3;1;0.3" dur="1.582026688804119s" repeatCount="indefinite"/>
        </circle><circle cx="110.1259488866036" cy="24.92008745910363" r="1.5232219772912399">
          <animate attributeName="opacity" values="0.3;1;0.3" dur="1.991339961510819s" repeatCount="indefinite"/>
        </circle>
        </g>
      
      </g>
      <!-- Evolution Effects (behind pet) -->
      <g class="evolution-layer" style="pointer-events: none;">
        
      <defs>
        <radialGradient id="evolutionAura">
          <stop offset="0%" stop-color="#9C27B0" stop-opacity="0.6"/>
          <stop offset="70%" stop-color="#9C27B0" stop-opacity="0.2"/>
          <stop offset="100%" stop-color="#9C27B0" stop-opacity="0"/>
        </radialGradient>
        <filter id="evolutionGlow">
          <feGaussianBlur stdDeviation="3" result="coloredBlur"/>
          <feMerge>
            <feMergeNode in="coloredBlur"/>
            <feMergeNode in="SourceGraphic"/>
          </feMerge>
        </filter>
      </defs>
      <circle cx="148" cy="148" r="55" fill="url(#evolutionAura)">
        <animate attributeName="r" values="55;63;55" dur="2s" repeatCount="indefinite"/>
        <animate attributeName="opacity" values="0.7;1;0.7" dur="2s" repeatCount="indefinite"/>
      </circle>
    <g class="evolution-sparkles">
        <circle cx="198" cy="148" r="2" fill="#E0E0E0">
          <animate attributeName="opacity" values="0;1;0" dur="1.5s" begin="0s" repeatCount="indefinite"/>
          <animate attributeName="r" values="1;3;1" dur="1.5s" begin="0s" repeatCount="indefinite"/>
        </circle>
      
        <circle cx="148" cy="198" r="2" fill="#E0E0E0">
          <animate attributeName="opacity" values="0;1;0" dur="1.5s" begin="0.5s" repeatCount="indefinite"/>
          <animate attributeName="r" values="1;3;1" dur="1.5s" begin="0.5s" repeatCount="indefinite"/>
        </circle>
      
        <circle cx="98" cy="148" r="2" fill="#E0E0E0">
          <animate attributeName="opacity" values="0;1;0" dur="1.5s" begin="1s" repeatCount="indefinite"/>
          <animate attributeName="r" values="1;3;1" dur="1.5s" begin="1s" repeatCount="indefinite"/>
        </circle>
      
        <circle cx="148" cy="98" r="2" fill="#E0E0E0">
          <animate attributeName="opacity" values="0;1;0" dur="1.5s" begin="1.5s" repeatCount="indefinite"/>
          <animate attributeName="r" values="1;3;1" dur="1.5s" begin="1.5s" repeatCount="indefinite"/>
        </circle>
      </g>
      </g>
      <g transform="translate(13.599999999999994, 13.599999999999994) scale(1.05)" opacity="1">
        <g class="pet">
            <rect x="48" y="32" width="16" height="16" fill="#2d333b" /><rect x="64" y="32" width="16" height="16" fill="#2d333b" /><rect x="80" y="32" width="16" height="16" fill="#2d333b" /><rect x="96" y="32" width="16" height="16" fill="#2d333b" /><rect x="112" y="32" width="16" height="16" fill="#2d333b" /><rect x="128" y="32" width="16" height="16" fill="#2d333b" /><rect x="144" y="32" width="16" height="16" fill="#2d333b" /><rect x="160" y="32" width="16" height="16" fill="#2d333b" /><rect x="176" y="32" width="16" height="16" fill="#2d333b" /><rect x="192" y="32" width="16" height="16" fill="#2d333b" /><rect x="32" y="48" width="16" height="16" fill="#2d333b" /><rect x="48" y="48" width="16" height="16" fill="#FF0000" /><rect x="64" y="48" width="16" height="16" fill="#FF0000" /><rect x="80" y="48" width="16" height="16" fill="#FF0000" /><rect x="96" y="48" width="16" height="16" fill="#FF0000" /><rect x="112" y="48" width="16" height="16" fill="#FF0000" /><rect x="128" y="48" width="16" height="16" fill="#FF0000" /><rect x="144" y="48" width="16" height="16" fill="#FF0000" /><rect x="160" y="48" width="16" height="16" fill="#FF0000" /><rect x="176" y="48" width="16" height="16" fill="#FF0000" /><rect x="192" y="48" width="16" height="16" fill="#FF0000" /><rect x="208" y="48" width="16" height="16" fill="#2d333b" /><rect x="16" y="64" width="16" height="16" fill="#2d333b" /><rect x="32" y="64" width="16" height="16" fill="#FF0000" /><rect x="48" y="64" width="16" height="16" fill="#FF0000" /><rect x="64" y="64" width="16" height="16" fill="#2d333b" /><rect x="80" y="64" width="16" height="16" fill="#2d333b" /><rect x="96" y="64" width="16" height="16" fill="#2d333b" /><rect x="112" y="64" width="16" height="16" fill="#2d333b" /><rect x="128" y="64" width="16" height="16" fill="#2d333b" /><rect x="144" y="64" width="16" height="16" fill="#2d333b" /><rect x="160" y="64" width="16" height="16" fill="#2d333b" /><rect x="176" y="64" width="16" height="16" fill="#FF0000" /><rect x="192" y="64" width="16" height="16" fill="#FF0000" /><rect x="208" y="64" width="16" height="16" fill="#2d333b" /><rect x="16" y="80" width="16" height="16" fill="#2d333b" /><rect x="32" y="80" width="16" height="16" fill="#FF0000" /><rect x="48" y="80" width="16" height="16" fill="#FF0000" /><rect x="64" y="80" width="16" height="16" fill="#FF9F00" /><rect x="80" y="80" width="16" height="16" fill="#FF9F00" /><rect x="96" y="80" width="16" height="16" fill="#FF9F00" /><rect x="112" y="80" width="16" height="16" fill="#FF9F00" /><rect x="128" y="80" width="16" height="16" fill="#FF9F00" /><rect x="144" y="80" width="16" height="16" fill="#FF9F00" /><rect x="160" y="80" width="16" height="16" fill="#FF9F00" /><rect x="176" y="80" width="16" height="16" fill="#FF0000" /><rect x="192" y="80" width="16" height="16" fill="#FF0000" /><rect x="208" y="80" width="16" height="16" fill="#2d333b" /><rect x="224" y="80" width="16" height="16" fill="#2d333b" /><rect x="16" y="96" width="16" height="16" fill="#2d333b" /><rect x="32" y="96" width="16" height="16" fill="#FF0000" /><rect x="48" y="96" width="16" height="16" fill="#FF0000" /><rect x="64" y="96" width="16" height="16" fill="#FF0000" /><rect x="80" y="96" width="16" height="16" fill="#FF0000" /><rect x="96" y="96" width="16" height="16" fill="#FF0000" /><rect x="112" y="96" width="16" height="16" fill="#FF0000" /><rect x="128" y="96" width="16" height="16" fill="#FF0000" /><rect x="144" y="96" width="16" height="16" fill="#FF0000" /><rect x="160" y="96" width="16" height="16" fill="#FF0000" /><rect x="176" y="96" width="16" height="16" fill="#FF0000" /><rect x="192" y="96" width="16" height="16" fill="#FF0000" /><rect x="208" y="96" width="16" height="16" fill="#2d333b" /><rect x="224" y="96" width="16" height="16" fill="#FF0000" /><rect x="240" y="96" width="16" height="16" fill="#2d333b" /><rect x="0" y="112" width="16" height="16" fill="#2d333b" /><rect x="16" y="112" width="16" height="16" fill="#FF0000" /><rect x="32" y="112" width="16" height="16" fill="#FF0000" /><rect x="48" y="112" width="16" height="16" fill="#FF0000" /><rect x="64" y="112" width="16" height="16" fill="#FF0000" /><rect x="80" y="112" width="16" height="16" fill="#FF0000" /><rect x="96" y="112" width="16" height="16" fill="#FF0000" /><rect x="112" y="112" width="16" height="16" fill="#FF0000" /><rect x="128" y="112" width="16" height="16" fill="#FF0000" /><rect x="144" y="112" width="16" height="16" fill="#FF0000" /><rect x="160" y="112" width="16" height="16" fill="#FF0000" /><rect x="176" y="112" width="16" height="16" fill="#FF0000" /><rect x="192" y="112" width="16" height="16" fill="#FF0000" /><rect x="208" y="112" width="16" height="16" fill="#FF0000" /><rect x="224" y="112" width="16" height="16" fill="#FF0000" /><rect x="240" y="112" width="16" height="16" fill="#2d333b" /><rect x="0" y="128" width="16" height="16" fill="#2d333b" /><rect x="16" y="128" width="16" height="16" fill="#FF0000" /><rect x="32" y="128" width="16" height="16" fill="#FF0000" /><rect x="48" y="128" width="16" height="16" fill="#FF0000" /><rect x="64" y="128" width="16" height="16" fill="#FF0000" /><rect x="80" y="128" width="16" height="16" fill="#FF0000" /><rect x="96" y="128" width="16" height="16" fill="#FF0000" /><rect x="112" y="128" width="16" height="16" fill="#FF0000" /><rect x="128" y="128" width="16" height="16" fill="#FF0000" /><rect x="144" y="128" width="16" height="16" fill="#FF0000" /><rect x="160" y="128" width="16" height="16" fill="#FF0000" /><rect x="176" y="128" width="16" height="16" fill="#FF0000" /><rect x="192" y="128" width="16" height="16" fill="#FF0000" /><rect x="208" y="128" width="16" height="16" fill="#FF0000" /><rect x="224" y="128" width="16" height="16" fill="#FF0000" /><rect x="240" y="128" width="16" height="16" fill="#2d333b" /><rect x="16" y="144" width="16" height="16" fill="#2d333b" /><rect x="32" y="144" width="16" height="16" fill="#FF0000" /><rect x="48" y="144" width="16" height="16" fill="#FF0000" /><rect x="64" y="144" width="16" height="16" fill="#FF0000" /><rect x="80" y="144" width="16" height="16" fill="#FF0000" /><rect x="96" y="144" width="16" height="16" fill="#FF0000" /><rect x="112" y="144" width="16" height="16" fill="#FF0000" /><rect x="128" y="144" width="16" height="16" fill="#FF0000" /><rect x="144" y="144" width="16" height="16" fill="#FF0000" /><rect x="160" y="144" width="16" height="16" fill="#FF0000" /><rect x="176" y="144" width="16" height="16" fill="#FF0000" /><rect x="192" y="144" width="16" height="16" fill="#FF0000" /><rect x="208" y="144" width="16" height="16" fill="#2d333b" /><rect x="32" y="160" width="16" height="16" fill="#2d333b" /><rect x="48" y="160" width="16" height="16" fill="#2d333b" /><rect x="64" y="160" width="16" height="16" fill="#FF0000" /><rect x="80" y="160" width="16" height="16" fill="#FF0000" /><rect x="96" y="160" width="16" height="16" fill="#FF0000" /><rect x="112" y="160" width="16" height="16" fill="#FF0000" /><rect x="128" y="160" width="16" height="16" fill="#FF0000" /><rect x="144" y="160" width="16" height="16" fill="#FF0000" /><rect x="160" y="160" width="16" height="16" fill="#FF0000" /><rect x="176" y="160" width="16" height="16" fill="#2d333b" /><rect x="192" y="160" width="16" height="16" fill="#2d333b" /><rect x="48" y="176" width="16" height="16" fill="#2d333b" /><rect x="64" y="176" width="16" height="16" fill="#2d333b" /><rect x="80" y="176" width="16" height="16" fill="#2d333b" /><rect x="96" y="176" width="16" height="16" fill="#2d333b" /><rect x="112" y="176" width="16" height="16" fill="#2d333b" /><rect x="128" y="176" width="16" height="16" fill="#2d333b" /><rect x="144" y="176" width="16" height="16" fill="#2d333b" /><rect x="160" y="176" width="16" height="16" fill="#2d333b" />
            
        <animateTransform 
            attributeName="transform" 
            type="scale" 
            values="1 1; 1.02 0.98; 1 1" 
            dur="2s" 
            repeatCount="indefinite" 
        />
        </g>
        <!-- Speech Bubble -->
        
    <g transform="translate(226, -25)">
      <!-- Speech bubble -->
      <rect x="0" y="0" width="62" height="24" rx="10" ry="10" 
            fill="#FFFFFF" stroke="#2d333b" stroke-width="1.5"/>
      <!-- Bubble tail -->
      <polygon points="15,24 20,32 25,24" 
               fill="#FFFFFF" stroke="#2d333b" stroke-width="1.5"/>
      <line x1="16" y1="24" x2="24" y2="24" stroke="#FFFFFF" stroke-width="2"/>
      <!-- Text -->
      <text x="31" y="16" 
            font-family="'Segoe UI', Arial, sans-serif" font-size="10" 
            fill="#2d333b" text-anchor="middle">zzZ...</text>
    </g>
  
        <!-- Seasonal Accessory (z-index: above pet) -->
        <!-- Seasonal: VALENTINE -->

    <g transform="translate(128, -3)">
      <g>
        <!-- Pixel Heart -->
        <rect x="4" y="0" width="8" height="4" fill="#FF6B9D"/>
        <rect x="16" y="0" width="8" height="4" fill="#FF6B9D"/>
        <rect x="0" y="4" width="28" height="4" fill="#FF6B9D"/>
        <rect x="0" y="8" width="28" height="4" fill="#FF8FAB"/>
        <rect x="4" y="12" width="20" height="4" fill="#FF8FAB"/>
        <rect x="8" y="16" width="12" height="4" fill="#FFB3C6"/>
        <rect x="12" y="20" width="4" height="4" fill="#FFB3C6"/>
        <!-- Sparkle -->
        <circle cx="8" cy="6" r="2" fill="#FFFFFF" opacity="0.7"/>
        <!-- Pulse animation -->
        <animateTransform 
          attributeName="transform" 
          type="scale" 
          values="1;1.1;1" 
          dur="1s" 
          repeatCount="indefinite"
          additive="sum"
        />
      </g>
    </g>
  
      </g>
      
      <!-- Level & Mood Text -->
      <text x="20" y="299" font-family="monospace" font-size="11" fill="#666">
        💫 Lv.65 Master
      </text>
      <text x="276" y="299" text-anchor="end" font-family="monospace" font-size="11" fill="#666">
        💤 SLEEPING 🔥5
      </text>
      
      <!-- XP Progress Bar -->
      <rect x="20" y="306" width="256" height="8" rx="4" fill="#e0e0e0" stroke="#0288d1" stroke-width="1"/>
      <rect x="20" y="306" width="92.16" height="8" rx="4" fill="#4fc3f7">
        <animate attributeName="width" from="0" to="92.16" dur="0.5s" fill="freeze"/>
      </rect>
      
      <!-- XP Text -->
      <text x="50%" y="329" text-anchor="middle" font-family="monospace" font-size="9" fill="#666">
        XP: 41430 / 42250 (36%)
      </text>
    
      
      <!-- Achievement Badges -->
      <g transform="translate(15, 311)">
    <g class="achievements">
      
      <g transform="translate(5, 0)">
        <title>Rising Star: Level 5</title>
        <circle cx="10" cy="10" r="10" fill="rgba(255,255,255,0.9)" stroke="#ddd" stroke-width="1"/>
        <text x="10" y="14" text-anchor="middle" font-size="11">🌟</text>
      </g>
    
      <g transform="translate(30, 0)">
        <title>Shining: Level 10</title>
        <circle cx="10" cy="10" r="10" fill="rgba(255,255,255,0.9)" stroke="#ddd" stroke-width="1"/>
        <text x="10" y="14" text-anchor="middle" font-size="11">✨</text>
      </g>
    
      <g transform="translate(55, 0)">
        <title>Rainbow: Level 25</title>
        <circle cx="10" cy="10" r="10" fill="rgba(255,255,255,0.9)" stroke="#ddd" stroke-width="1"/>
        <text x="10" y="14" text-anchor="middle" font-size="11">🌈</text>
      </g>
    
      <g transform="translate(80, 0)">
        <title>Rocket: Level 50</title>
        <circle cx="10" cy="10" r="10" fill="rgba(255,255,255,0.9)" stroke="#ddd" stroke-width="1"/>
        <text x="10" y="14" text-anchor="middle" font-size="11">🚀</text>
      </g>
    
      <g transform="translate(105, 0)">
        <title>Night Owl: Late night commit</title>
        <circle cx="10" cy="10" r="10" fill="rgba(255,255,255,0.9)" stroke="#ddd" stroke-width="1"/>
        <text x="10" y="14" text-anchor="middle" font-size="11">🦉</text>
      </g>
    
      <g transform="translate(130, 0)">
        <title>Weekend Warrior: Weekend commit</title>
        <circle cx="10" cy="10" r="10" fill="rgba(255,255,255,0.9)" stroke="#ddd" stroke-width="1"/>
        <text x="10" y="14" text-anchor="middle" font-size="11">🏖️</text>
      </g>
    
      <text x="160" y="14" font-family="monospace" font-size="9" fill="#666">+1</text>
    </g>
  </g>
    </svg>