<svg xmlns="http://www.w3.org/2000/svg" width="296" height="341" viewBox="0 0 296 341">
      <style>
        .pet { transform-origin: center; }
      </style>
      <!-- Theme Background -->
      
        <rect x="5" y="5" width="286" height="326" rx="12" ry="12" fill="rgba(45, 51, 59, 0.15)"/>
      
      <!-- Weather Effects (behind pet) -->
      <g class="weather-layer" style="pointer-events: none;">
        
        <g fill="#FFD700">
          <circle cx="155.27505728146528" cy="88.93532821938871" r="2.8305058725737027">
          <animate attributeName="opacity" values="0.3;1;0.3" dur="2.6600864610780843s" repeatCount="indefinite"/>
        </circle><circle cx="110.1426509068058" cy="147.81371562724203" r="1.6771854801362016">
          <animate attributeName="opacity" values="0.3;1;0.3" dur="1.2829067077989902s" repeatCount="indefinite"/>
        </circle><circle cx="271.37304389938356" cy="63.544390488494685" r="2.244665679851428">
          <animate attributeName="opacity" values="0.3;1;0.3" dur="1.0664488744990201s" repeatCount="indefinite"/>
        </circle><circle cx="61.49819355726342" cy="18.568897728508414" r="2.1891049697774156">
          <animate attributeName="opacity" values="0.3;1;0.3" dur="1.6124744066509997s" repeatCount="indefinite"/>
        </circle><circle cx="97.73816415665097" cy="165.0442214067986" r="2.259569667817121">
          <animate attributeName="opacity" values="0.3;1;0.3" dur="1.0362821345569495s" repeatCount="indefinite"/>
        </circle><circle cx="162.19839953095928" cy="142.03398610075038" r="2.6814822221024355">
          <animate attributeName="opacity" values="0.3;1;0.3" dur="1.1212783143940777s" repeatCount="indefinite"/>
        </circle><circle cx="39.089362795072084" cy="116.57641683363947" r="2.055192766648215">
          <animate attributeName="opacity" values="0.3;1;0.3" dur="1.0636270485744443s" repeatCount="indefinite"/>
        </circle><circle cx="169.36157264107544" cy="85.73596263220854" r="2.483579486153253">
          <animate attributeName="opacity" values="0.3;1;0.3" dur="1.359385939616383s" repeatCount="indefinite"/>
        </circle><circle cx="112.80856284361037" cy="47.76588448803577" r="2.3374797821640727">
          <animate attributeName="opacity" values="0.3;1;0.3" dur="2.076773429599382s" repeatCount="indefinite"/>
        </circle><circle cx="43.37229976371255" cy="169.39516243034944" r="1.3040613749059813">
          <animate attributeName="opacity" values="0.3;1;0.3" dur="2.4063643195957445s" repeatCount="indefinite"/>
        </circle><circle cx="201.36034850716302" cy="67.62015496973498" r="1.4557449497808461">
          <animate attributeName="opacity" values="0.3;1;0.3" dur="1.8947706504912283s" repeatCount="indefinite"/>
        </circle><circle cx="148.55642747737681" cy="74.25513327775023" r="1.8848225043608116">
          <animate attributeName="opacity" values="0.3;1;0.3" dur="1.8376184646507232s" repeatCount="indefinite"/>
        </circle><circle cx="68.67319483284544" cy="60.19464899964782" r="2.238041612604849">
          <animate attributeName="opacity" values="0.3;1;0.3" dur="1.6828054210780343s" repeatCount="indefinite"/>
        </circle><circle cx="281.4218905977442" cy="84.44346077734416" r="2.892899846934898">
          <animate attributeName="opacity" values="0.3;1;0.3" dur="1.2584075300237711s" repeatCount="indefinite"/>
        </circle><circle cx="275.8068080873549" cy="132.07936280865488" r="1.037836377567555">
          <animate attributeName="opacity" values="0.3;1;0.3" dur="2.6640695097011826s" repeatCount="indefinite"/>
        </circle>
        </g>
      
      </g>
      <!-- Evolution Effects (behind pet) -->
      <g class="evolution-layer" style="pointer-events: none;">
        
      <defs>
        <radialGradient id="evolutionAura">
          <stop offset="0%" stop-color="#9C27B0" stop-opacity="0.6"/>
          <stop offset="70%" stop-color="#9C27B0" stop-opacity="0.2"/>
          <stop offset="100%" stop-color="#9C27B0" stop-opacity="0"/>
        </radialGradient>
        <filter id="evolutionGlow">
          <feGaussianBlur stdDeviation="3" result="coloredBlur"/>
          <feMerge>
            <feMergeNode in="coloredBlur"/>
            <feMergeNode in="SourceGraphic"/>
          </feMerge>
        </filter>
      </defs>
      <circle cx="148" cy="148" r="55" fill="url(#evolutionAura)">
        <animate attributeName="r" values="55;63;55" dur="2s" repeatCount="indefinite"/>
        <animate attributeName="opacity" values="0.7;1;0.7" dur="2s" repeatCount="indefinite"/>
      </circle>
    <g class="evolution-sparkles">
        <circle cx="198" cy="148" r="2" fill="#E0E0E0">
          <animate attributeName="opacity" values="0;1;0" dur="1.5s" begin="0s" repeatCount="indefinite"/>
          <animate attributeName="r" values="1;3;1" dur="1.5s" begin="0s" repeatCount="indefinite"/>
        </circle>
      
        <circle cx="148" cy="198" r="2" fill="#E0E0E0">
          <animate attributeName="opacity" values="0;1;0" dur="1.5s" begin="0.5s" repeatCount="indefinite"/>
          <animate attributeName="r" values="1;3;1" dur="1.5s" begin="0.5s" repeatCount="indefinite"/>
        </circle>
      
        <circle cx="98" cy="148" r="2" fill="#E0E0E0">
          <animate attributeName="opacity" values="0;1;0" dur="1.5s" begin="1s" repeatCount="indefinite"/>
          <animate attributeName="r" values="1;3;1" dur="1.5s" begin="1s" repeatCount="indefinite"/>
        </circle>
      
        <circle cx="148" cy="98" r="2" fill="#E0E0E0">
          <animate attributeName="opacity" values="0;1;0" dur="1.5s" begin="1.5s" repeatCount="indefinite"/>
          <animate attributeName="r" values="1;3;1" dur="1.5s" begin="1.5s" repeatCount="indefinite"/>
        </circle>
      </g>
      </g>
      <g transform="translate(13.599999999999994, 13.599999999999994) scale(1.05)" opacity="1">
        <g class="pet">
            <rect x="48" y="32" width="16" height="16" fill="#2d333b" /><rect x="64" y="32" width="16" height="16" fill="#2d333b" /><rect x="80" y="32" width="16" height="16" fill="#2d333b" /><rect x="96" y="32" width="16" height="16" fill="#2d333b" /><rect x="112" y="32" width="16" height="16" fill="#2d333b" /><rect x="128" y="32" width="16" height="16" fill="#2d333b" /><rect x="144" y="32" width="16" height="16" fill="#2d333b" /><rect x="160" y="32" width="16" height="16" fill="#2d333b" /><rect x="176" y="32" width="16" height="16" fill="#2d333b" /><rect x="192" y="32" width="16" height="16" fill="#2d333b" /><rect x="32" y="48" width="16" height="16" fill="#2d333b" /><rect x="48" y="48" width="16" height="16" fill="#FF0000" /><rect x="64" y="48" width="16" height="16" fill="#FF0000" /><rect x="80" y="48" width="16" height="16" fill="#FF0000" /><rect x="96" y="48" width="16" height="16" fill="#FF0000" /><rect x="112" y="48" width="16" height="16" fill="#FF0000" /><rect x="128" y="48" width="16" height="16" fill="#FF0000" /><rect x="144" y="48" width="16" height="16" fill="#FF0000" /><rect x="160" y="48" width="16" height="16" fill="#FF0000" /><rect x="176" y="48" width="16" height="16" fill="#FF0000" /><rect x="192" y="48" width="16" height="16" fill="#FF0000" /><rect x="208" y="48" width="16" height="16" fill="#2d333b" /><rect x="16" y="64" width="16" height="16" fill="#2d333b" /><rect x="32" y="64" width="16" height="16" fill="#FF0000" /><rect x="48" y="64" width="16" height="16" fill="#FF0000" /><rect x="64" y="64" width="16" height="16" fill="#2d333b" /><rect x="80" y="64" width="16" height="16" fill="#2d333b" /><rect x="96" y="64" width="16" height="16" fill="#2d333b" /><rect x="112" y="64" width="16" height="16" fill="#2d333b" /><rect x="128" y="64" width="16" height="16" fill="#2d333b" /><rect x="144" y="64" width="16" height="16" fill="#2d333b" /><rect x="160" y="64" width="16" height="16" fill="#2d333b" /><rect x="176" y="64" width="16" height="16" fill="#FF0000" /><rect x="192" y="64" width="16" height="16" fill="#FF0000" /><rect x="208" y="64" width="16" height="16" fill="#2d333b" /><rect x="16" y="80" width="16" height="16" fill="#2d333b" /><rect x="32" y="80" width="16" height="16" fill="#FF0000" /><rect x="48" y="80" width="16" height="16" fill="#FF0000" /><rect x="64" y="80" width="16" height="16" fill="#FF9F00" /><rect x="80" y="80" width="16" height="16" fill="#FF9F00" /><rect x="96" y="80" width="16" height="16" fill="#FF9F00" /><rect x="112" y="80" width="16" height="16" fill="#FF9F00" /><rect x="128" y="80" width="16" height="16" fill="#FF9F00" /><rect x="144" y="80" width="16" height="16" fill="#FF9F00" /><rect x="160" y="80" width="16" height="16" fill="#FF9F00" /><rect x="176" y="80" width="16" height="16" fill="#FF0000" /><rect x="192" y="80" width="16" height="16" fill="#FF0000" /><rect x="208" y="80" width="16" height="16" fill="#2d333b" /><rect x="224" y="80" width="16" height="16" fill="#2d333b" /><rect x="16" y="96" width="16" height="16" fill="#2d333b" /><rect x="32" y="96" width="16" height="16" fill="#FF0000" /><rect x="48" y="96" width="16" height="16" fill="#FF0000" /><rect x="64" y="96" width="16" height="16" fill="#FF0000" /><rect x="80" y="96" width="16" height="16" fill="#FF0000" /><rect x="96" y="96" width="16" height="16" fill="#FF0000" /><rect x="112" y="96" width="16" height="16" fill="#FF0000" /><rect x="128" y="96" width="16" height="16" fill="#FF0000" /><rect x="144" y="96" width="16" height="16" fill="#FF0000" /><rect x="160" y="96" width="16" height="16" fill="#FF0000" /><rect x="176" y="96" width="16" height="16" fill="#FF0000" /><rect x="192" y="96" width="16" height="16" fill="#FF0000" /><rect x="208" y="96" width="16" height="16" fill="#2d333b" /><rect x="224" y="96" width="16" height="16" fill="#FF0000" /><rect x="240" y="96" width="16" height="16" fill="#2d333b" /><rect x="0" y="112" width="16" height="16" fill="#2d333b" /><rect x="16" y="112" width="16" height="16" fill="#FF0000" /><rect x="32" y="112" width="16" height="16" fill="#FF0000" /><rect x="48" y="112" width="16" height="16" fill="#FF0000" /><rect x="64" y="112" width="16" height="16" fill="#FF0000" /><rect x="80" y="112" width="16" height="16" fill="#FF0000" /><rect x="96" y="112" width="16" height="16" fill="#FF0000" /><rect x="112" y="112" width="16" height="16" fill="#FF0000" /><rect x="128" y="112" width="16" height="16" fill="#FF0000" /><rect x="144" y="112" width="16" height="16" fill="#FF0000" /><rect x="160" y="112" width="16" height="16" fill="#FF0000" /><rect x="176" y="112" width="16" height="16" fill="#FF0000" /><rect x="192" y="112" width="16" height="16" fill="#FF0000" /><rect x="208" y="112" width="16" height="16" fill="#FF0000" /><rect x="224" y="112" width="16" height="16" fill="#FF0000" /><rect x="240" y="112" width="16" height="16" fill="#2d333b" /><rect x="0" y="128" width="16" height="16" fill="#2d333b" /><rect x="16" y="128" width="16" height="16" fill="#FF0000" /><rect x="32" y="128" width="16" height="16" fill="#FF0000" /><rect x="48" y="128" width="16" height="16" fill="#FF0000" /><rect x="64" y="128" width="16" height="16" fill="#FF0000" /><rect x="80" y="128" width="16" height="16" fill="#FF0000" /><rect x="96" y="128" width="16" height="16" fill="#FF0000" /><rect x="112" y="128" width="16" height="16" fill="#FF0000" /><rect x="128" y="128" width="16" height="16" fill="#FF0000" /><rect x="144" y="128" width="16" height="16" fill="#FF0000" /><rect x="160" y="128" width="16" height="16" fill="#FF0000" /><rect x="176" y="128" width="16" height="16" fill="#FF0000" /><rect x="192" y="128" width="16" height="16" fill="#FF0000" /><rect x="208" y="128" width="16" height="16" fill="#FF0000" /><rect x="224" y="128" width="16" height="16" fill="#FF0000" /><rect x="240" y="128" width="16" height="16" fill="#2d333b" /><rect x="16" y="144" width="16" height="16" fill="#2d333b" /><rect x="32" y="144" width="16" height="16" fill="#FF0000" /><rect x="48" y="144" width="16" height="16" fill="#FF0000" /><rect x="64" y="144" width="16" height="16" fill="#FF0000" /><rect x="80" y="144" width="16" height="16" fill="#FF0000" /><rect x="96" y="144" width="16" height="16" fill="#FF0000" /><rect x="112" y="144" width="16" height="16" fill="#FF0000" /><rect x="128" y="144" width="16" height="16" fill="#FF0000" /><rect x="144" y="144" width="16" height="16" fill="#FF0000" /><rect x="160" y="144" width="16" height="16" fill="#FF0000" /><rect x="176" y="144" width="16" height="16" fill="#FF0000" /><rect x="192" y="144" width="16" height="16" fill="#FF0000" /><rect x="208" y="144" width="16" height="16" fill="#2d333b" /><rect x="32" y="160" width="16" height="16" fill="#2d333b" /><rect x="48" y="160" width="16" height="16" fill="#2d333b" /><rect x="64" y="160" width="16" height="16" fill="#FF0000" /><rect x="80" y="160" width="16" height="16" fill="#FF0000" /><rect x="96" y="160" width="16" height="16" fill="#FF0000" /><rect x="112" y="160" width="16" height="16" fill="#FF0000" /><rect x="128" y="160" width="16" height="16" fill="#FF0000" /><rect x="144" y="160" width="16" height="16" fill="#FF0000" /><rect x="160" y="160" width="16" height="16" fill="#FF0000" /><rect x="176" y="160" width="16" height="16" fill="#2d333b" /><rect x="192" y="160" width="16" height="16" fill="#2d333b" /><rect x="48" y="176" width="16" height="16" fill="#2d333b" /><rect x="64" y="176" width="16" height="16" fill="#2d333b" /><rect x="80" y="176" width="16" height="16" fill="#2d333b" /><rect x="96" y="176" width="16" height="16" fill="#2d333b" /><rect x="112" y="176" width="16" height="16" fill="#2d333b" /><rect x="128" y="176" width="16" height="16" fill="#2d333b" /><rect x="144" y="176" width="16" height="16" fill="#2d333b" /><rect x="160" y="176" width="16" height="16" fill="#2d333b" />
            
        <animateTransform 
            attributeName="transform" 
            type="scale" 
            values="1 1; 1.02 0.98; 1 1" 
            dur="2s" 
            repeatCount="indefinite" 
        />
        </g>
        <!-- Speech Bubble -->
        
    <g transform="translate(226, -25)">
      <!-- Speech bubble -->
      <rect x="0" y="0" width="69" height="24" rx="10" ry="10" 
            fill="#FFFFFF" stroke="#2d333b" stroke-width="1.5"/>
      <!-- Bubble tail -->
      <polygon points="15,24 20,32 25,24" 
               fill="#FFFFFF" stroke="#2d333b" stroke-width="1.5"/>
      <line x1="16" y1="24" x2="24" y2="24" stroke="#FFFFFF" stroke-width="2"/>
      <!-- Text -->
      <text x="34.5" y="16" 
            font-family="'Segoe UI', Arial, sans-serif" font-size="10" 
            fill="#2d333b" text-anchor="middle">*snore*</text>
    </g>
  
        <!-- Seasonal Accessory (z-index: above pet) -->
        
      </g>
      
      <!-- Level & Mood Text -->
      <text x="20" y="299" font-family="monospace" font-size="11" fill="#666">
        💫 Lv.54 Master
      </text>
      <text x="276" y="299" text-anchor="end" font-family="monospace" font-size="11" fill="#666">
        💤 SLEEPING 🔥5
      </text>
      
      <!-- XP Progress Bar -->
      <rect x="20" y="306" width="256" height="8" rx="4" fill="#e0e0e0" stroke="#0288d1" stroke-width="1"/>
      <rect x="20" y="306" width="238.08" height="8" rx="4" fill="#4fc3f7">
        <animate attributeName="width" from="0" to="238.08" dur="0.5s" fill="freeze"/>
      </rect>
      
      <!-- XP Text -->
      <text x="50%" y="329" text-anchor="middle" font-family="monospace" font-size="9" fill="#666">
        XP: 29090 / 29160 (93%)
      </text>
    
      
      <!-- Achievement Badges -->
      <g transform="translate(15, 311)">
    <g class="achievements">
      
      <g transform="translate(5, 0)">
        <title>Spark: 3 day streak</title>
        <circle cx="10" cy="10" r="10" fill="rgba(255,255,255,0.9)" stroke="#ddd" stroke-width="1"/>
        <text x="10" y="14" text-anchor="middle" font-size="11">⚡</text>
      </g>
    
      <g transform="translate(30, 0)">
        <title>Rising Star: Level 5</title>
        <circle cx="10" cy="10" r="10" fill="rgba(255,255,255,0.9)" stroke="#ddd" stroke-width="1"/>
        <text x="10" y="14" text-anchor="middle" font-size="11">🌟</text>
      </g>
    
      <g transform="translate(55, 0)">
        <title>Shining: Level 10</title>
        <circle cx="10" cy="10" r="10" fill="rgba(255,255,255,0.9)" stroke="#ddd" stroke-width="1"/>
        <text x="10" y="14" text-anchor="middle" font-size="11">✨</text>
      </g>
    
      <g transform="translate(80, 0)">
        <title>Rainbow: Level 25</title>
        <circle cx="10" cy="10" r="10" fill="rgba(255,255,255,0.9)" stroke="#ddd" stroke-width="1"/>
        <text x="10" y="14" text-anchor="middle" font-size="11">🌈</text>
      </g>
    
      <g transform="translate(105, 0)">
        <title>Rocket: Level 50</title>
        <circle cx="10" cy="10" r="10" fill="rgba(255,255,255,0.9)" stroke="#ddd" stroke-width="1"/>
        <text x="10" y="14" text-anchor="middle" font-size="11">🚀</text>
      </g>
    
      <g transform="translate(130, 0)">
        <title>Night Owl: Late night commit</title>
        <circle cx="10" cy="10" r="10" fill="rgba(255,255,255,0.9)" stroke="#ddd" stroke-width="1"/>
        <text x="10" y="14" text-anchor="middle" font-size="11">🦉</text>
      </g>
    
      
    </g>
  </g>
    </svg>