<svg xmlns="http://www.w3.org/2000/svg" width="296" height="306" viewBox="0 0 296 306">
          <style>.pet { transform-origin: center; }</style>
          <rect x="5" y="5" width="286" height="291" rx="12" ry="12" fill="rgba(45, 51, 59, 0.15)"/>
          <g transform="translate(20, 20)">
            <g class="pet"><rect x="96" y="16" width="16" height="16" fill="#FFD700" /><rect x="64" y="32" width="16" height="16" fill="#ffffff" /><rect x="80" y="32" width="16" height="16" fill="#ffffff" /><rect x="96" y="32" width="16" height="16" fill="#FFD700" /><rect x="112" y="32" width="16" height="16" fill="#ffffff" /><rect x="128" y="32" width="16" height="16" fill="#ffffff" /><rect x="48" y="48" width="16" height="16" fill="#ffffff" /><rect x="64" y="48" width="16" height="16" fill="#2d333b" /><rect x="80" y="48" width="16" height="16" fill="#ffffff" /><rect x="96" y="48" width="16" height="16" fill="#ffffff" /><rect x="112" y="48" width="16" height="16" fill="#ffffff" /><rect x="128" y="48" width="16" height="16" fill="#ffffff" /><rect x="144" y="48" width="16" height="16" fill="#FF0000" /><rect x="48" y="64" width="16" height="16" fill="#ffffff" /><rect x="64" y="64" width="16" height="16" fill="#ffffff" /><rect x="80" y="64" width="16" height="16" fill="#ffffff" /><rect x="96" y="64" width="16" height="16" fill="#ffffff" /><rect x="112" y="64" width="16" height="16" fill="#ffffff" /><rect x="128" y="64" width="16" height="16" fill="#FF0000" /><rect x="144" y="64" width="16" height="16" fill="#FF9F00" /><rect x="64" y="80" width="16" height="16" fill="#ffffff" /><rect x="80" y="80" width="16" height="16" fill="#ffffff" /><rect x="96" y="80" width="16" height="16" fill="#ffffff" /><rect x="112" y="80" width="16" height="16" fill="#ffffff" /><rect x="128" y="80" width="16" height="16" fill="#FF0000" /><rect x="144" y="80" width="16" height="16" fill="#FF9F00" /><rect x="160" y="80" width="16" height="16" fill="#FFD700" /><rect x="80" y="96" width="16" height="16" fill="#ffffff" /><rect x="96" y="96" width="16" height="16" fill="#ffffff" /><rect x="112" y="96" width="16" height="16" fill="#FF0000" /><rect x="128" y="96" width="16" height="16" fill="#FF9F00" /><rect x="144" y="96" width="16" height="16" fill="#FFD700" /><rect x="160" y="96" width="16" height="16" fill="#98c379" /><rect x="64" y="112" width="16" height="16" fill="#ffffff" /><rect x="80" y="112" width="16" height="16" fill="#ffffff" /><rect x="96" y="112" width="16" height="16" fill="#FF0000" /><rect x="112" y="112" width="16" height="16" fill="#FF9F00" /><rect x="128" y="112" width="16" height="16" fill="#FFD700" /><rect x="144" y="112" width="16" height="16" fill="#98c379" /><rect x="160" y="112" width="16" height="16" fill="#00ADD8" /><rect x="48" y="128" width="16" height="16" fill="#ffffff" /><rect x="64" y="128" width="16" height="16" fill="#ffffff" /><rect x="80" y="128" width="16" height="16" fill="#FF0000" /><rect x="96" y="128" width="16" height="16" fill="#FF9F00" /><rect x="112" y="128" width="16" height="16" fill="#FFD700" /><rect x="128" y="128" width="16" height="16" fill="#98c379" /><rect x="144" y="128" width="16" height="16" fill="#00ADD8" /><rect x="160" y="128" width="16" height="16" fill="#C678DD" /><rect x="32" y="144" width="16" height="16" fill="#ffffff" /><rect x="48" y="144" width="16" height="16" fill="#ffffff" /><rect x="64" y="144" width="16" height="16" fill="#ffffff" /><rect x="80" y="144" width="16" height="16" fill="#ffffff" /><rect x="96" y="144" width="16" height="16" fill="#ffffff" /><rect x="112" y="144" width="16" height="16" fill="#98c379" /><rect x="128" y="144" width="16" height="16" fill="#00ADD8" /><rect x="144" y="144" width="16" height="16" fill="#C678DD" /><rect x="32" y="160" width="16" height="16" fill="#ffffff" /><rect x="48" y="160" width="16" height="16" fill="#ffffff" /><rect x="64" y="160" width="16" height="16" fill="#ffffff" /><rect x="80" y="160" width="16" height="16" fill="#ffffff" /><rect x="96" y="160" width="16" height="16" fill="#ffffff" /><rect x="112" y="160" width="16" height="16" fill="#ffffff" /><rect x="16" y="176" width="16" height="16" fill="#ffffff" /><rect x="32" y="176" width="16" height="16" fill="#ffffff" /><rect x="80" y="176" width="16" height="16" fill="#ffffff" /><rect x="96" y="176" width="16" height="16" fill="#ffffff" /><rect x="16" y="192" width="16" height="16" fill="#ffffff" /><rect x="32" y="192" width="16" height="16" fill="#ffffff" /><rect x="80" y="192" width="16" height="16" fill="#ffffff" /><rect x="96" y="192" width="16" height="16" fill="#ffffff" /></g>
            
            <g transform="translate(150, 70)">
                <rect x="0" y="0" width="35" height="50" rx="3" fill="#D32F2F"/>
                <rect x="2" y="2" width="31" height="46" rx="2" fill="#E53935"/>
                <rect x="5" y="5" width="25" height="40" rx="1" stroke="#FFD700" stroke-width="2" fill="none"/>
                <circle cx="17.5" cy="25" r="10" fill="#FFD700"/>
                <circle cx="17.5" cy="25" r="7" fill="#FFC107"/>
            </g>
        
          </g>
          <text x="50%" y="296" text-anchor="middle" font-family="monospace" font-size="10" fill="#666">🧧 TẾT</text>
        </svg>