<svg xmlns="http://www.w3.org/2000/svg" width="296" height="306" viewBox="0 0 296 306">
          <style>.pet { transform-origin: center; }</style>
          <rect x="5" y="5" width="286" height="291" rx="12" ry="12" fill="rgba(45, 51, 59, 0.15)"/>
          <g transform="translate(20, 20)">
            <g class="pet"><rect x="96" y="16" width="16" height="16" fill="#FFD700" /><rect x="64" y="32" width="16" height="16" fill="#ffffff" /><rect x="80" y="32" width="16" height="16" fill="#ffffff" /><rect x="96" y="32" width="16" height="16" fill="#FFD700" /><rect x="112" y="32" width="16" height="16" fill="#ffffff" /><rect x="128" y="32" width="16" height="16" fill="#ffffff" /><rect x="48" y="48" width="16" height="16" fill="#ffffff" /><rect x="64" y="48" width="16" height="16" fill="#2d333b" /><rect x="80" y="48" width="16" height="16" fill="#ffffff" /><rect x="96" y="48" width="16" height="16" fill="#ffffff" /><rect x="112" y="48" width="16" height="16" fill="#ffffff" /><rect x="128" y="48" width="16" height="16" fill="#ffffff" /><rect x="144" y="48" width="16" height="16" fill="#FF0000" /><rect x="48" y="64" width="16" height="16" fill="#ffffff" /><rect x="64" y="64" width="16" height="16" fill="#ffffff" /><rect x="80" y="64" width="16" height="16" fill="#ffffff" /><rect x="96" y="64" width="16" height="16" fill="#ffffff" /><rect x="112" y="64" width="16" height="16" fill="#ffffff" /><rect x="128" y="64" width="16" height="16" fill="#FF0000" /><rect x="144" y="64" width="16" height="16" fill="#FF9F00" /><rect x="64" y="80" width="16" height="16" fill="#ffffff" /><rect x="80" y="80" width="16" height="16" fill="#ffffff" /><rect x="96" y="80" width="16" height="16" fill="#ffffff" /><rect x="112" y="80" width="16" height="16" fill="#ffffff" /><rect x="128" y="80" width="16" height="16" fill="#FF0000" /><rect x="144" y="80" width="16" height="16" fill="#FF9F00" /><rect x="160" y="80" width="16" height="16" fill="#FFD700" /><rect x="80" y="96" width="16" height="16" fill="#ffffff" /><rect x="96" y="96" width="16" height="16" fill="#ffffff" /><rect x="112" y="96" width="16" height="16" fill="#FF0000" /><rect x="128" y="96" width="16" height="16" fill="#FF9F00" /><rect x="144" y="96" width="16" height="16" fill="#FFD700" /><rect x="160" y="96" width="16" height="16" fill="#98c379" /><rect x="64" y="112" width="16" height="16" fill="#ffffff" /><rect x="80" y="112" width="16" height="16" fill="#ffffff" /><rect x="96" y="112" width="16" height="16" fill="#FF0000" /><rect x="112" y="112" width="16" height="16" fill="#FF9F00" /><rect x="128" y="112" width="16" height="16" fill="#FFD700" /><rect x="144" y="112" width="16" height="16" fill="#98c379" /><rect x="160" y="112" width="16" height="16" fill="#00ADD8" /><rect x="48" y="128" width="16" height="16" fill="#ffffff" /><rect x="64" y="128" width="16" height="16" fill="#ffffff" /><rect x="80" y="128" width="16" height="16" fill="#FF0000" /><rect x="96" y="128" width="16" height="16" fill="#FF9F00" /><rect x="112" y="128" width="16" height="16" fill="#FFD700" /><rect x="128" y="128" width="16" height="16" fill="#98c379" /><rect x="144" y="128" width="16" height="16" fill="#00ADD8" /><rect x="160" y="128" width="16" height="16" fill="#C678DD" /><rect x="32" y="144" width="16" height="16" fill="#ffffff" /><rect x="48" y="144" width="16" height="16" fill="#ffffff" /><rect x="64" y="144" width="16" height="16" fill="#ffffff" /><rect x="80" y="144" width="16" height="16" fill="#ffffff" /><rect x="96" y="144" width="16" height="16" fill="#ffffff" /><rect x="112" y="144" width="16" height="16" fill="#98c379" /><rect x="128" y="144" width="16" height="16" fill="#00ADD8" /><rect x="144" y="144" width="16" height="16" fill="#C678DD" /><rect x="32" y="160" width="16" height="16" fill="#ffffff" /><rect x="48" y="160" width="16" height="16" fill="#ffffff" /><rect x="64" y="160" width="16" height="16" fill="#ffffff" /><rect x="80" y="160" width="16" height="16" fill="#ffffff" /><rect x="96" y="160" width="16" height="16" fill="#ffffff" /><rect x="112" y="160" width="16" height="16" fill="#ffffff" /><rect x="16" y="176" width="16" height="16" fill="#ffffff" /><rect x="32" y="176" width="16" height="16" fill="#ffffff" /><rect x="80" y="176" width="16" height="16" fill="#ffffff" /><rect x="96" y="176" width="16" height="16" fill="#ffffff" /><rect x="16" y="192" width="16" height="16" fill="#ffffff" /><rect x="32" y="192" width="16" height="16" fill="#ffffff" /><rect x="80" y="192" width="16" height="16" fill="#ffffff" /><rect x="96" y="192" width="16" height="16" fill="#ffffff" /></g>
            
            <g transform="translate(155, 60)">
                <rect x="0" y="10" width="25" height="28" rx="3" fill="#8B4513"/>
                <rect x="3" y="13" width="19" height="22" rx="2" fill="#5C4033"/>
                <rect x="4" y="14" width="17" height="12" fill="#3C2415"/>
                <path d="M25,15 Q35,15 35,24 Q35,33 25,33" stroke="#8B4513" stroke-width="4" fill="none"/>
            </g>
        
          </g>
          <text x="50%" y="296" text-anchor="middle" font-family="monospace" font-size="10" fill="#666">☕ PROGRAMMER DAY</text>
        </svg>