<svg xmlns="http://www.w3.org/2000/svg" width="296" height="306" viewBox="0 0 296 306">
      <style>.pet { transform-origin: center; }</style>
      <rect x="5" y="5" width="286" height="291" rx="12" ry="12" fill="rgba(45, 51, 59, 0.15)"/>
      <g transform="translate(20, 20)">
        <g class="pet"><rect x="224" y="32" width="16" height="16" fill="#ffffff" /><rect x="208" y="48" width="16" height="16" fill="#98c379" /><rect x="160" y="64" width="16" height="16" fill="#ffffff" /><rect x="176" y="64" width="16" height="16" fill="#ffffff" /><rect x="192" y="64" width="16" height="16" fill="#98c379" /><rect x="144" y="80" width="16" height="16" fill="#ffffff" /><rect x="160" y="80" width="16" height="16" fill="#ffffff" /><rect x="176" y="80" width="16" height="16" fill="#ffffff" /><rect x="192" y="80" width="16" height="16" fill="#ffffff" /><rect x="144" y="96" width="16" height="16" fill="#ffffff" /><rect x="160" y="96" width="16" height="16" fill="#ffffff" /><rect x="176" y="96" width="16" height="16" fill="#2d333b" /><rect x="192" y="96" width="16" height="16" fill="#ffffff" /><rect x="208" y="96" width="16" height="16" fill="#ffffff" /><rect x="144" y="112" width="16" height="16" fill="#ffffff" /><rect x="160" y="112" width="16" height="16" fill="#C678DD" /><rect x="176" y="112" width="16" height="16" fill="#ffffff" /><rect x="192" y="112" width="16" height="16" fill="#ffffff" /><rect x="208" y="112" width="16" height="16" fill="#ffffff" /><rect x="32" y="128" width="16" height="16" fill="#C678DD" /><rect x="48" y="128" width="16" height="16" fill="#C678DD" /><rect x="96" y="128" width="16" height="16" fill="#ffffff" /><rect x="112" y="128" width="16" height="16" fill="#ffffff" /><rect x="128" y="128" width="16" height="16" fill="#ffffff" /><rect x="144" y="128" width="16" height="16" fill="#ffffff" /><rect x="160" y="128" width="16" height="16" fill="#ffffff" /><rect x="176" y="128" width="16" height="16" fill="#ffffff" /><rect x="192" y="128" width="16" height="16" fill="#ffffff" /><rect x="16" y="144" width="16" height="16" fill="#C678DD" /><rect x="32" y="144" width="16" height="16" fill="#FF9F00" /><rect x="48" y="144" width="16" height="16" fill="#FF9F00" /><rect x="64" y="144" width="16" height="16" fill="#C678DD" /><rect x="80" y="144" width="16" height="16" fill="#ffffff" /><rect x="96" y="144" width="16" height="16" fill="#ffffff" /><rect x="112" y="144" width="16" height="16" fill="#ffffff" /><rect x="128" y="144" width="16" height="16" fill="#ffffff" /><rect x="144" y="144" width="16" height="16" fill="#ffffff" /><rect x="160" y="144" width="16" height="16" fill="#ffffff" /><rect x="176" y="144" width="16" height="16" fill="#ffffff" /><rect x="192" y="144" width="16" height="16" fill="#ffffff" /><rect x="16" y="160" width="16" height="16" fill="#C678DD" /><rect x="32" y="160" width="16" height="16" fill="#FF9F00" /><rect x="48" y="160" width="16" height="16" fill="#98c379" /><rect x="64" y="160" width="16" height="16" fill="#ffffff" /><rect x="80" y="160" width="16" height="16" fill="#ffffff" /><rect x="96" y="160" width="16" height="16" fill="#ffffff" /><rect x="112" y="160" width="16" height="16" fill="#ffffff" /><rect x="128" y="160" width="16" height="16" fill="#ffffff" /><rect x="144" y="160" width="16" height="16" fill="#ffffff" /><rect x="160" y="160" width="16" height="16" fill="#ffffff" /><rect x="176" y="160" width="16" height="16" fill="#ffffff" /><rect x="192" y="160" width="16" height="16" fill="#ffffff" /><rect x="16" y="176" width="16" height="16" fill="#C678DD" /><rect x="32" y="176" width="16" height="16" fill="#FF9F00" /><rect x="48" y="176" width="16" height="16" fill="#98c379" /><rect x="64" y="176" width="16" height="16" fill="#ffffff" /><rect x="80" y="176" width="16" height="16" fill="#ffffff" /><rect x="96" y="176" width="16" height="16" fill="#ffffff" /><rect x="112" y="176" width="16" height="16" fill="#ffffff" /><rect x="128" y="176" width="16" height="16" fill="#ffffff" /><rect x="144" y="176" width="16" height="16" fill="#ffffff" /><rect x="160" y="176" width="16" height="16" fill="#ffffff" /><rect x="176" y="176" width="16" height="16" fill="#ffffff" /><rect x="192" y="176" width="16" height="16" fill="#ffffff" /><rect x="0" y="192" width="16" height="16" fill="#C678DD" /><rect x="16" y="192" width="16" height="16" fill="#FF9F00" /><rect x="32" y="192" width="16" height="16" fill="#98c379" /><rect x="48" y="192" width="16" height="16" fill="#98c379" /><rect x="64" y="192" width="16" height="16" fill="#ffffff" /><rect x="80" y="192" width="16" height="16" fill="#ffffff" /><rect x="96" y="192" width="16" height="16" fill="#ffffff" /><rect x="112" y="192" width="16" height="16" fill="#ffffff" /><rect x="128" y="192" width="16" height="16" fill="#ffffff" /><rect x="144" y="192" width="16" height="16" fill="#ffffff" /><rect x="160" y="192" width="16" height="16" fill="#ffffff" /><rect x="176" y="192" width="16" height="16" fill="#ffffff" /><rect x="0" y="208" width="16" height="16" fill="#C678DD" /><rect x="16" y="208" width="16" height="16" fill="#FF9F00" /><rect x="32" y="208" width="16" height="16" fill="#98c379" /><rect x="48" y="208" width="16" height="16" fill="#00ADD8" /><rect x="64" y="208" width="16" height="16" fill="#ffffff" /><rect x="80" y="208" width="16" height="16" fill="#ffffff" /><rect x="96" y="208" width="16" height="16" fill="#ffffff" /><rect x="112" y="208" width="16" height="16" fill="#ffffff" /><rect x="128" y="208" width="16" height="16" fill="#ffffff" /><rect x="144" y="208" width="16" height="16" fill="#ffffff" /><rect x="160" y="208" width="16" height="16" fill="#ffffff" /><rect x="0" y="224" width="16" height="16" fill="#FF9F00" /><rect x="16" y="224" width="16" height="16" fill="#98c379" /><rect x="32" y="224" width="16" height="16" fill="#98c379" /><rect x="48" y="224" width="16" height="16" fill="#00ADD8" /><rect x="64" y="224" width="16" height="16" fill="#ffffff" /><rect x="80" y="224" width="16" height="16" fill="#ffffff" /><rect x="96" y="224" width="16" height="16" fill="#ffffff" /><rect x="128" y="224" width="16" height="16" fill="#ffffff" /><rect x="144" y="224" width="16" height="16" fill="#ffffff" /><rect x="160" y="224" width="16" height="16" fill="#ffffff" /><rect x="64" y="240" width="16" height="16" fill="#ffffff" /><rect x="80" y="240" width="16" height="16" fill="#ffffff" /><rect x="128" y="240" width="16" height="16" fill="#ffffff" /><rect x="144" y="240" width="16" height="16" fill="#ffffff" /></g>
        
        <g transform="translate(179, 20)">
            <!-- Lantern -->
            <rect x="22" y="0" width="6" height="8" fill="#D84315"/>
            <ellipse cx="25" cy="30" rx="18" ry="22" fill="#FF5722"/>
            <ellipse cx="25" cy="30" rx="14" ry="18" fill="#FF7043"/>
            <!-- Lantern lines -->
            <line x1="25" y1="8" x2="25" y2="52" stroke="#BF360C" stroke-width="2"/>
            <path d="M10,20 Q25,15 40,20" stroke="#BF360C" stroke-width="1.5" fill="none"/>
            <path d="M10,40 Q25,45 40,40" stroke="#BF360C" stroke-width="1.5" fill="none"/>
            <!-- Glow effect -->
            <ellipse cx="25" cy="30" rx="10" ry="12" fill="#FFEB3B" opacity="0.3"/>
            <!-- Tassel -->
            <rect x="23" y="52" width="4" height="5" fill="#D84315"/>
            <line x1="22" y1="57" x2="22" y2="65" stroke="#FF5722" stroke-width="2"/>
            <line x1="25" y1="57" x2="25" y2="68" stroke="#FF5722" stroke-width="2"/>
            <line x1="28" y1="57" x2="28" y2="65" stroke="#FF5722" stroke-width="2"/>
        </g>
    
      </g>
      <text x="50%" y="296" text-anchor="middle" font-family="monospace" font-size="10" fill="#666">🥮 MID AUTUMN</text>
    </svg>