<svg xmlns="http://www.w3.org/2000/svg" width="296" height="296" viewBox="0 0 296 296">
      <style>.pet { transform-origin: center; }</style>
      <rect width="100%" height="100%" fill="transparent" />
      <g transform="translate(20, 20)" opacity="1">
        <g class="pet"><rect x="96" y="16" width="16" height="16" fill="#FFD700" /><rect x="80" y="32" width="16" height="16" fill="#FFD700" /><rect x="96" y="32" width="16" height="16" fill="#FFD700" /><rect x="64" y="48" width="16" height="16" fill="#ffffff" /><rect x="80" y="48" width="16" height="16" fill="#ffffff" /><rect x="96" y="48" width="16" height="16" fill="#ffffff" /><rect x="112" y="48" width="16" height="16" fill="#ffffff" /><rect x="224" y="48" width="16" height="16" fill="#FF0000" /><rect x="48" y="64" width="16" height="16" fill="#ffffff" /><rect x="64" y="64" width="16" height="16" fill="#ffffff" /><rect x="80" y="64" width="16" height="16" fill="#2d333b" /><rect x="96" y="64" width="16" height="16" fill="#2d333b" /><rect x="112" y="64" width="16" height="16" fill="#ffffff" /><rect x="128" y="64" width="16" height="16" fill="#ffffff" /><rect x="208" y="64" width="16" height="16" fill="#FF0000" /><rect x="224" y="64" width="16" height="16" fill="#FF9F00" /><rect x="32" y="80" width="16" height="16" fill="#ffffff" /><rect x="48" y="80" width="16" height="16" fill="#ffffff" /><rect x="64" y="80" width="16" height="16" fill="#ffffff" /><rect x="80" y="80" width="16" height="16" fill="#ffffff" /><rect x="96" y="80" width="16" height="16" fill="#ffffff" /><rect x="112" y="80" width="16" height="16" fill="#ffffff" /><rect x="128" y="80" width="16" height="16" fill="#ffffff" /><rect x="144" y="80" width="16" height="16" fill="#ffffff" /><rect x="192" y="80" width="16" height="16" fill="#FF0000" /><rect x="208" y="80" width="16" height="16" fill="#FF9F00" /><rect x="224" y="80" width="16" height="16" fill="#FFD700" /><rect x="32" y="96" width="16" height="16" fill="#ffffff" /><rect x="48" y="96" width="16" height="16" fill="#ffffff" /><rect x="64" y="96" width="16" height="16" fill="#ffffff" /><rect x="80" y="96" width="16" height="16" fill="#ffffff" /><rect x="96" y="96" width="16" height="16" fill="#ffffff" /><rect x="112" y="96" width="16" height="16" fill="#ffffff" /><rect x="128" y="96" width="16" height="16" fill="#ffffff" /><rect x="144" y="96" width="16" height="16" fill="#ffffff" /><rect x="176" y="96" width="16" height="16" fill="#FF0000" /><rect x="192" y="96" width="16" height="16" fill="#FF9F00" /><rect x="208" y="96" width="16" height="16" fill="#FFD700" /><rect x="224" y="96" width="16" height="16" fill="#98c379" /><rect x="32" y="112" width="16" height="16" fill="#ffffff" /><rect x="48" y="112" width="16" height="16" fill="#ffffff" /><rect x="64" y="112" width="16" height="16" fill="#ffffff" /><rect x="80" y="112" width="16" height="16" fill="#ffffff" /><rect x="96" y="112" width="16" height="16" fill="#ffffff" /><rect x="112" y="112" width="16" height="16" fill="#ffffff" /><rect x="128" y="112" width="16" height="16" fill="#ffffff" /><rect x="144" y="112" width="16" height="16" fill="#ffffff" /><rect x="176" y="112" width="16" height="16" fill="#FF9F00" /><rect x="192" y="112" width="16" height="16" fill="#FFD700" /><rect x="208" y="112" width="16" height="16" fill="#98c379" /><rect x="224" y="112" width="16" height="16" fill="#00ADD8" /><rect x="48" y="128" width="16" height="16" fill="#ffffff" /><rect x="64" y="128" width="16" height="16" fill="#ffffff" /><rect x="112" y="128" width="16" height="16" fill="#ffffff" /><rect x="128" y="128" width="16" height="16" fill="#ffffff" /><rect x="176" y="128" width="16" height="16" fill="#FFD700" /><rect x="192" y="128" width="16" height="16" fill="#98c379" /><rect x="208" y="128" width="16" height="16" fill="#00ADD8" /><rect x="224" y="128" width="16" height="16" fill="#C678DD" /><rect x="48" y="144" width="16" height="16" fill="#ffffff" /><rect x="64" y="144" width="16" height="16" fill="#ffffff" /><rect x="112" y="144" width="16" height="16" fill="#ffffff" /><rect x="128" y="144" width="16" height="16" fill="#ffffff" /><rect x="176" y="144" width="16" height="16" fill="#98c379" /><rect x="192" y="144" width="16" height="16" fill="#00ADD8" /><rect x="224" y="144" width="16" height="16" fill="#C678DD" /><rect x="176" y="160" width="16" height="16" fill="#00ADD8" /><rect x="208" y="160" width="16" height="16" fill="#C678DD" /><rect x="192" y="176" width="16" height="16" fill="#C678DD" /><animateTransform attributeName="transform" type="translate" values="0 0; 0 -4; 0 0" dur="0.5s" repeatCount="indefinite" /></g>
      </g>
      <text x="50%" y="291" text-anchor="middle" font-family="monospace" font-size="12" fill="#666">HAPPY</text>
    </svg>