<svg xmlns="http://www.w3.org/2000/svg" width="296" height="296" viewBox="0 0 296 296">
      <style>.pet { transform-origin: center; }</style>
      <rect x="5" y="5" width="286" height="281" rx="12" ry="12" fill="rgba(45, 51, 59, 0.15)"/>
      <g class="weather-layer" style="pointer-events: none;">
        
                <g>
                    <g>
                    <path d="M10,0 Q15,-5 20,0 Q15,5 10,0" fill="#FF9800" opacity="0.8">
                        <animateTransform attributeName="transform" type="translate" values="0,0;20.671095137325132,296" dur="6.423890341669794s" begin="1.0872241994759886s" repeatCount="indefinite"/>
                    </path>
                </g><g>
                    <path d="M39.6,0 Q44.6,-5 49.6,0 Q44.6,5 39.6,0" fill="#F44336" opacity="0.8">
                        <animateTransform attributeName="transform" type="translate" values="0,0;21.799534220023723,296" dur="6.757507931335603s" begin="2.287044022248938s" repeatCount="indefinite"/>
                    </path>
                </g><g>
                    <path d="M69.2,0 Q74.2,-5 79.2,0 Q74.2,5 69.2,0" fill="#795548" opacity="0.8">
                        <animateTransform attributeName="transform" type="translate" values="0,0;1.3044228043711037,296" dur="4.744911769500066s" begin="0.6779958256140204s" repeatCount="indefinite"/>
                    </path>
                </g><g>
                    <path d="M98.80000000000001,0 Q103.80000000000001,-5 108.80000000000001,0 Q103.80000000000001,5 98.80000000000001,0" fill="#FFC107" opacity="0.8">
                        <animateTransform attributeName="transform" type="translate" values="0,0;4.003706299076917,296" dur="4.141971556804287s" begin="0.7792333139940575s" repeatCount="indefinite"/>
                    </path>
                </g><g>
                    <path d="M128.4,0 Q133.4,-5 138.4,0 Q133.4,5 128.4,0" fill="#FF9800" opacity="0.8">
                        <animateTransform attributeName="transform" type="translate" values="0,0;16.62027058981314,296" dur="6.440721042556797s" begin="0.41039007354094736s" repeatCount="indefinite"/>
                    </path>
                </g><g>
                    <path d="M158,0 Q163,-5 168,0 Q163,5 158,0" fill="#F44336" opacity="0.8">
                        <animateTransform attributeName="transform" type="translate" values="0,0;21.86610645373405,296" dur="5.702091663945021s" begin="2.060650599044671s" repeatCount="indefinite"/>
                    </path>
                </g><g>
                    <path d="M187.60000000000002,0 Q192.60000000000002,-5 197.60000000000002,0 Q192.60000000000002,5 187.60000000000002,0" fill="#795548" opacity="0.8">
                        <animateTransform attributeName="transform" type="translate" values="0,0;20.45852538745648,296" dur="6.3290825467514775s" begin="0.6931122341947429s" repeatCount="indefinite"/>
                    </path>
                </g><g>
                    <path d="M217.20000000000002,0 Q222.20000000000002,-5 227.20000000000002,0 Q222.20000000000002,5 217.20000000000002,0" fill="#FFC107" opacity="0.8">
                        <animateTransform attributeName="transform" type="translate" values="0,0;2.4738543885195075,296" dur="5.404753643688759s" begin="2.0642521662076883s" repeatCount="indefinite"/>
                    </path>
                </g><g>
                    <path d="M246.8,0 Q251.8,-5 256.8,0 Q251.8,5 246.8,0" fill="#FF9800" opacity="0.8">
                        <animateTransform attributeName="transform" type="translate" values="0,0;14.785470446559998,296" dur="6.8777861529819395s" begin="2.201631673588518s" repeatCount="indefinite"/>
                    </path>
                </g><g>
                    <path d="M276.40000000000003,0 Q281.40000000000003,-5 286.40000000000003,0 Q281.40000000000003,5 276.40000000000003,0" fill="#F44336" opacity="0.8">
                        <animateTransform attributeName="transform" type="translate" values="0,0;8.653587530535349,296" dur="5.037167530680272s" begin="1.1562796589061413s" repeatCount="indefinite"/>
                    </path>
                </g>
                </g>
            
      </g>
      <g transform="translate(20, 20)">
        <g class="pet"><rect x="224" y="32" width="16" height="16" fill="#ffffff" /><rect x="208" y="48" width="16" height="16" fill="#98c379" /><rect x="160" y="64" width="16" height="16" fill="#ffffff" /><rect x="176" y="64" width="16" height="16" fill="#ffffff" /><rect x="192" y="64" width="16" height="16" fill="#98c379" /><rect x="144" y="80" width="16" height="16" fill="#ffffff" /><rect x="160" y="80" width="16" height="16" fill="#ffffff" /><rect x="176" y="80" width="16" height="16" fill="#ffffff" /><rect x="192" y="80" width="16" height="16" fill="#ffffff" /><rect x="144" y="96" width="16" height="16" fill="#ffffff" /><rect x="160" y="96" width="16" height="16" fill="#ffffff" /><rect x="176" y="96" width="16" height="16" fill="#2d333b" /><rect x="192" y="96" width="16" height="16" fill="#ffffff" /><rect x="208" y="96" width="16" height="16" fill="#ffffff" /><rect x="144" y="112" width="16" height="16" fill="#ffffff" /><rect x="160" y="112" width="16" height="16" fill="#C678DD" /><rect x="176" y="112" width="16" height="16" fill="#ffffff" /><rect x="192" y="112" width="16" height="16" fill="#ffffff" /><rect x="208" y="112" width="16" height="16" fill="#ffffff" /><rect x="32" y="128" width="16" height="16" fill="#C678DD" /><rect x="48" y="128" width="16" height="16" fill="#C678DD" /><rect x="96" y="128" width="16" height="16" fill="#ffffff" /><rect x="112" y="128" width="16" height="16" fill="#ffffff" /><rect x="128" y="128" width="16" height="16" fill="#ffffff" /><rect x="144" y="128" width="16" height="16" fill="#ffffff" /><rect x="160" y="128" width="16" height="16" fill="#ffffff" /><rect x="176" y="128" width="16" height="16" fill="#ffffff" /><rect x="192" y="128" width="16" height="16" fill="#ffffff" /><rect x="16" y="144" width="16" height="16" fill="#C678DD" /><rect x="32" y="144" width="16" height="16" fill="#FF9F00" /><rect x="48" y="144" width="16" height="16" fill="#FF9F00" /><rect x="64" y="144" width="16" height="16" fill="#C678DD" /><rect x="80" y="144" width="16" height="16" fill="#ffffff" /><rect x="96" y="144" width="16" height="16" fill="#ffffff" /><rect x="112" y="144" width="16" height="16" fill="#ffffff" /><rect x="128" y="144" width="16" height="16" fill="#ffffff" /><rect x="144" y="144" width="16" height="16" fill="#ffffff" /><rect x="160" y="144" width="16" height="16" fill="#ffffff" /><rect x="176" y="144" width="16" height="16" fill="#ffffff" /><rect x="192" y="144" width="16" height="16" fill="#ffffff" /><rect x="16" y="160" width="16" height="16" fill="#C678DD" /><rect x="32" y="160" width="16" height="16" fill="#FF9F00" /><rect x="48" y="160" width="16" height="16" fill="#98c379" /><rect x="64" y="160" width="16" height="16" fill="#ffffff" /><rect x="80" y="160" width="16" height="16" fill="#ffffff" /><rect x="96" y="160" width="16" height="16" fill="#ffffff" /><rect x="112" y="160" width="16" height="16" fill="#ffffff" /><rect x="128" y="160" width="16" height="16" fill="#ffffff" /><rect x="144" y="160" width="16" height="16" fill="#ffffff" /><rect x="160" y="160" width="16" height="16" fill="#ffffff" /><rect x="176" y="160" width="16" height="16" fill="#ffffff" /><rect x="192" y="160" width="16" height="16" fill="#ffffff" /><rect x="16" y="176" width="16" height="16" fill="#C678DD" /><rect x="32" y="176" width="16" height="16" fill="#FF9F00" /><rect x="48" y="176" width="16" height="16" fill="#98c379" /><rect x="64" y="176" width="16" height="16" fill="#ffffff" /><rect x="80" y="176" width="16" height="16" fill="#ffffff" /><rect x="96" y="176" width="16" height="16" fill="#ffffff" /><rect x="112" y="176" width="16" height="16" fill="#ffffff" /><rect x="128" y="176" width="16" height="16" fill="#ffffff" /><rect x="144" y="176" width="16" height="16" fill="#ffffff" /><rect x="160" y="176" width="16" height="16" fill="#ffffff" /><rect x="176" y="176" width="16" height="16" fill="#ffffff" /><rect x="192" y="176" width="16" height="16" fill="#ffffff" /><rect x="0" y="192" width="16" height="16" fill="#C678DD" /><rect x="16" y="192" width="16" height="16" fill="#FF9F00" /><rect x="32" y="192" width="16" height="16" fill="#98c379" /><rect x="48" y="192" width="16" height="16" fill="#98c379" /><rect x="64" y="192" width="16" height="16" fill="#ffffff" /><rect x="80" y="192" width="16" height="16" fill="#ffffff" /><rect x="96" y="192" width="16" height="16" fill="#ffffff" /><rect x="112" y="192" width="16" height="16" fill="#ffffff" /><rect x="128" y="192" width="16" height="16" fill="#ffffff" /><rect x="144" y="192" width="16" height="16" fill="#ffffff" /><rect x="160" y="192" width="16" height="16" fill="#ffffff" /><rect x="176" y="192" width="16" height="16" fill="#ffffff" /><rect x="0" y="208" width="16" height="16" fill="#C678DD" /><rect x="16" y="208" width="16" height="16" fill="#FF9F00" /><rect x="32" y="208" width="16" height="16" fill="#98c379" /><rect x="48" y="208" width="16" height="16" fill="#00ADD8" /><rect x="64" y="208" width="16" height="16" fill="#ffffff" /><rect x="80" y="208" width="16" height="16" fill="#ffffff" /><rect x="96" y="208" width="16" height="16" fill="#ffffff" /><rect x="112" y="208" width="16" height="16" fill="#ffffff" /><rect x="128" y="208" width="16" height="16" fill="#ffffff" /><rect x="144" y="208" width="16" height="16" fill="#ffffff" /><rect x="160" y="208" width="16" height="16" fill="#ffffff" /><rect x="0" y="224" width="16" height="16" fill="#FF9F00" /><rect x="16" y="224" width="16" height="16" fill="#98c379" /><rect x="32" y="224" width="16" height="16" fill="#98c379" /><rect x="48" y="224" width="16" height="16" fill="#00ADD8" /><rect x="64" y="224" width="16" height="16" fill="#ffffff" /><rect x="80" y="224" width="16" height="16" fill="#ffffff" /><rect x="96" y="224" width="16" height="16" fill="#ffffff" /><rect x="128" y="224" width="16" height="16" fill="#ffffff" /><rect x="144" y="224" width="16" height="16" fill="#ffffff" /><rect x="160" y="224" width="16" height="16" fill="#ffffff" /><rect x="64" y="240" width="16" height="16" fill="#ffffff" /><rect x="80" y="240" width="16" height="16" fill="#ffffff" /><rect x="128" y="240" width="16" height="16" fill="#ffffff" /><rect x="144" y="240" width="16" height="16" fill="#ffffff" /><animateTransform attributeName="transform" type="translate" values="0 0; 0 -4; 0 0" dur="0.5s" repeatCount="indefinite" /></g>
      </g>
      <text x="50%" y="291" text-anchor="middle" font-family="monospace" font-size="11" fill="#666">🍂 LEAVES</text>
    </svg>