<svg xmlns="http://www.w3.org/2000/svg" width="296" height="296" viewBox="0 0 296 296">
      <style>.pet { transform-origin: center; }</style>
      <rect x="5" y="5" width="286" height="281" rx="12" ry="12" fill="rgba(45, 51, 59, 0.15)"/>
      <g class="weather-layer" style="pointer-events: none;">
        
                <g fill="#ffffff">
                    <circle cx="5" cy="0" r="2.5382017768400083" opacity="0.8">
                    <animate attributeName="cy" values="0;296" dur="4.067443048537816s" begin="1.0606804097704883s" repeatCount="indefinite"/>
                </circle><circle cx="19.8" cy="0" r="2.8490033186504418" opacity="0.8">
                    <animate attributeName="cy" values="0;296" dur="4.935636744477203s" begin="1.5225756300651603s" repeatCount="indefinite"/>
                </circle><circle cx="34.6" cy="0" r="3.8006855461009676" opacity="0.8">
                    <animate attributeName="cy" values="0;296" dur="2.2894384843771114s" begin="0.7966675893023605s" repeatCount="indefinite"/>
                </circle><circle cx="49.400000000000006" cy="0" r="2.1783244426060575" opacity="0.8">
                    <animate attributeName="cy" values="0;296" dur="4.55919600969445s" begin="1.302624813949817s" repeatCount="indefinite"/>
                </circle><circle cx="64.2" cy="0" r="4.266210045372591" opacity="0.8">
                    <animate attributeName="cy" values="0;296" dur="3.8753002617054166s" begin="0.9393790449924038s" repeatCount="indefinite"/>
                </circle><circle cx="79" cy="0" r="3.7316640446143996" opacity="0.8">
                    <animate attributeName="cy" values="0;296" dur="3.176106255543625s" begin="0.17855837599561974s" repeatCount="indefinite"/>
                </circle><circle cx="93.80000000000001" cy="0" r="4.166522488340729" opacity="0.8">
                    <animate attributeName="cy" values="0;296" dur="3.7301568013836954s" begin="0.18163873088058313s" repeatCount="indefinite"/>
                </circle><circle cx="108.60000000000001" cy="0" r="5.632077896848346" opacity="0.8">
                    <animate attributeName="cy" values="0;296" dur="4.780405785036865s" begin="0.7274199353306714s" repeatCount="indefinite"/>
                </circle><circle cx="123.4" cy="0" r="2.7319548698650795" opacity="0.8">
                    <animate attributeName="cy" values="0;296" dur="4.886297054867486s" begin="0.5372203852440616s" repeatCount="indefinite"/>
                </circle><circle cx="138.20000000000002" cy="0" r="4.366677831802098" opacity="0.8">
                    <animate attributeName="cy" values="0;296" dur="2.8911144580863s" begin="1.6010136823879142s" repeatCount="indefinite"/>
                </circle><circle cx="153" cy="0" r="5.675324164072421" opacity="0.8">
                    <animate attributeName="cy" values="0;296" dur="2.0607806932748236s" begin="0.25145836008951505s" repeatCount="indefinite"/>
                </circle><circle cx="167.8" cy="0" r="4.2620757627720485" opacity="0.8">
                    <animate attributeName="cy" values="0;296" dur="4.153155098673821s" begin="1.6820592733132722s" repeatCount="indefinite"/>
                </circle><circle cx="182.60000000000002" cy="0" r="3.715120340154832" opacity="0.8">
                    <animate attributeName="cy" values="0;296" dur="3.586513128934943s" begin="0.082193106530565s" repeatCount="indefinite"/>
                </circle><circle cx="197.4" cy="0" r="4.409609362162239" opacity="0.8">
                    <animate attributeName="cy" values="0;296" dur="2.526816511911184s" begin="0.8275975875353296s" repeatCount="indefinite"/>
                </circle><circle cx="212.20000000000002" cy="0" r="4.388963159160423" opacity="0.8">
                    <animate attributeName="cy" values="0;296" dur="2.3562341696889915s" begin="1.9738901799242656s" repeatCount="indefinite"/>
                </circle><circle cx="227" cy="0" r="2.858864225867019" opacity="0.8">
                    <animate attributeName="cy" values="0;296" dur="2.3812641801895964s" begin="1.4900583408499144s" repeatCount="indefinite"/>
                </circle><circle cx="241.8" cy="0" r="3.768933264571854" opacity="0.8">
                    <animate attributeName="cy" values="0;296" dur="4.580215362317746s" begin="0.6661682057863443s" repeatCount="indefinite"/>
                </circle><circle cx="256.6" cy="0" r="5.643319786098564" opacity="0.8">
                    <animate attributeName="cy" values="0;296" dur="2.119672910827638s" begin="1.50448301763746s" repeatCount="indefinite"/>
                </circle><circle cx="271.40000000000003" cy="0" r="4.698238562874181" opacity="0.8">
                    <animate attributeName="cy" values="0;296" dur="3.787530644848132s" begin="0.5204289937289168s" repeatCount="indefinite"/>
                </circle><circle cx="286.2" cy="0" r="4.210355071389203" opacity="0.8">
                    <animate attributeName="cy" values="0;296" dur="3.024846886223184s" begin="0.21300310013488s" repeatCount="indefinite"/>
                </circle>
                </g>
            
      </g>
      <g transform="translate(20, 20)">
        <g class="pet"><rect x="224" y="32" width="16" height="16" fill="#ffffff" /><rect x="208" y="48" width="16" height="16" fill="#98c379" /><rect x="160" y="64" width="16" height="16" fill="#ffffff" /><rect x="176" y="64" width="16" height="16" fill="#ffffff" /><rect x="192" y="64" width="16" height="16" fill="#98c379" /><rect x="144" y="80" width="16" height="16" fill="#ffffff" /><rect x="160" y="80" width="16" height="16" fill="#ffffff" /><rect x="176" y="80" width="16" height="16" fill="#ffffff" /><rect x="192" y="80" width="16" height="16" fill="#ffffff" /><rect x="144" y="96" width="16" height="16" fill="#ffffff" /><rect x="160" y="96" width="16" height="16" fill="#ffffff" /><rect x="176" y="96" width="16" height="16" fill="#2d333b" /><rect x="192" y="96" width="16" height="16" fill="#ffffff" /><rect x="208" y="96" width="16" height="16" fill="#ffffff" /><rect x="144" y="112" width="16" height="16" fill="#ffffff" /><rect x="160" y="112" width="16" height="16" fill="#C678DD" /><rect x="176" y="112" width="16" height="16" fill="#ffffff" /><rect x="192" y="112" width="16" height="16" fill="#ffffff" /><rect x="208" y="112" width="16" height="16" fill="#ffffff" /><rect x="32" y="128" width="16" height="16" fill="#C678DD" /><rect x="48" y="128" width="16" height="16" fill="#C678DD" /><rect x="96" y="128" width="16" height="16" fill="#ffffff" /><rect x="112" y="128" width="16" height="16" fill="#ffffff" /><rect x="128" y="128" width="16" height="16" fill="#ffffff" /><rect x="144" y="128" width="16" height="16" fill="#ffffff" /><rect x="160" y="128" width="16" height="16" fill="#ffffff" /><rect x="176" y="128" width="16" height="16" fill="#ffffff" /><rect x="192" y="128" width="16" height="16" fill="#ffffff" /><rect x="16" y="144" width="16" height="16" fill="#C678DD" /><rect x="32" y="144" width="16" height="16" fill="#FF9F00" /><rect x="48" y="144" width="16" height="16" fill="#FF9F00" /><rect x="64" y="144" width="16" height="16" fill="#C678DD" /><rect x="80" y="144" width="16" height="16" fill="#ffffff" /><rect x="96" y="144" width="16" height="16" fill="#ffffff" /><rect x="112" y="144" width="16" height="16" fill="#ffffff" /><rect x="128" y="144" width="16" height="16" fill="#ffffff" /><rect x="144" y="144" width="16" height="16" fill="#ffffff" /><rect x="160" y="144" width="16" height="16" fill="#ffffff" /><rect x="176" y="144" width="16" height="16" fill="#ffffff" /><rect x="192" y="144" width="16" height="16" fill="#ffffff" /><rect x="16" y="160" width="16" height="16" fill="#C678DD" /><rect x="32" y="160" width="16" height="16" fill="#FF9F00" /><rect x="48" y="160" width="16" height="16" fill="#98c379" /><rect x="64" y="160" width="16" height="16" fill="#ffffff" /><rect x="80" y="160" width="16" height="16" fill="#ffffff" /><rect x="96" y="160" width="16" height="16" fill="#ffffff" /><rect x="112" y="160" width="16" height="16" fill="#ffffff" /><rect x="128" y="160" width="16" height="16" fill="#ffffff" /><rect x="144" y="160" width="16" height="16" fill="#ffffff" /><rect x="160" y="160" width="16" height="16" fill="#ffffff" /><rect x="176" y="160" width="16" height="16" fill="#ffffff" /><rect x="192" y="160" width="16" height="16" fill="#ffffff" /><rect x="16" y="176" width="16" height="16" fill="#C678DD" /><rect x="32" y="176" width="16" height="16" fill="#FF9F00" /><rect x="48" y="176" width="16" height="16" fill="#98c379" /><rect x="64" y="176" width="16" height="16" fill="#ffffff" /><rect x="80" y="176" width="16" height="16" fill="#ffffff" /><rect x="96" y="176" width="16" height="16" fill="#ffffff" /><rect x="112" y="176" width="16" height="16" fill="#ffffff" /><rect x="128" y="176" width="16" height="16" fill="#ffffff" /><rect x="144" y="176" width="16" height="16" fill="#ffffff" /><rect x="160" y="176" width="16" height="16" fill="#ffffff" /><rect x="176" y="176" width="16" height="16" fill="#ffffff" /><rect x="192" y="176" width="16" height="16" fill="#ffffff" /><rect x="0" y="192" width="16" height="16" fill="#C678DD" /><rect x="16" y="192" width="16" height="16" fill="#FF9F00" /><rect x="32" y="192" width="16" height="16" fill="#98c379" /><rect x="48" y="192" width="16" height="16" fill="#98c379" /><rect x="64" y="192" width="16" height="16" fill="#ffffff" /><rect x="80" y="192" width="16" height="16" fill="#ffffff" /><rect x="96" y="192" width="16" height="16" fill="#ffffff" /><rect x="112" y="192" width="16" height="16" fill="#ffffff" /><rect x="128" y="192" width="16" height="16" fill="#ffffff" /><rect x="144" y="192" width="16" height="16" fill="#ffffff" /><rect x="160" y="192" width="16" height="16" fill="#ffffff" /><rect x="176" y="192" width="16" height="16" fill="#ffffff" /><rect x="0" y="208" width="16" height="16" fill="#C678DD" /><rect x="16" y="208" width="16" height="16" fill="#FF9F00" /><rect x="32" y="208" width="16" height="16" fill="#98c379" /><rect x="48" y="208" width="16" height="16" fill="#00ADD8" /><rect x="64" y="208" width="16" height="16" fill="#ffffff" /><rect x="80" y="208" width="16" height="16" fill="#ffffff" /><rect x="96" y="208" width="16" height="16" fill="#ffffff" /><rect x="112" y="208" width="16" height="16" fill="#ffffff" /><rect x="128" y="208" width="16" height="16" fill="#ffffff" /><rect x="144" y="208" width="16" height="16" fill="#ffffff" /><rect x="160" y="208" width="16" height="16" fill="#ffffff" /><rect x="0" y="224" width="16" height="16" fill="#FF9F00" /><rect x="16" y="224" width="16" height="16" fill="#98c379" /><rect x="32" y="224" width="16" height="16" fill="#98c379" /><rect x="48" y="224" width="16" height="16" fill="#00ADD8" /><rect x="64" y="224" width="16" height="16" fill="#ffffff" /><rect x="80" y="224" width="16" height="16" fill="#ffffff" /><rect x="96" y="224" width="16" height="16" fill="#ffffff" /><rect x="128" y="224" width="16" height="16" fill="#ffffff" /><rect x="144" y="224" width="16" height="16" fill="#ffffff" /><rect x="160" y="224" width="16" height="16" fill="#ffffff" /><rect x="64" y="240" width="16" height="16" fill="#ffffff" /><rect x="80" y="240" width="16" height="16" fill="#ffffff" /><rect x="128" y="240" width="16" height="16" fill="#ffffff" /><rect x="144" y="240" width="16" height="16" fill="#ffffff" /><animateTransform attributeName="transform" type="translate" values="0 0; 0 -4; 0 0" dur="0.5s" repeatCount="indefinite" /></g>
      </g>
      <text x="50%" y="291" text-anchor="middle" font-family="monospace" font-size="11" fill="#666">❄️ SNOW</text>
    </svg>