<svg xmlns="http://www.w3.org/2000/svg" width="296" height="296" viewBox="0 0 296 296">
      <style>.pet { transform-origin: center; }</style>
      <rect x="5" y="5" width="286" height="281" rx="12" ry="12" fill="rgba(45, 51, 59, 0.15)"/>
      <g class="weather-layer" style="pointer-events: none;">
        
                <g opacity="0.6">
                    <line x1="10" y1="-10" x2="5" y2="10" stroke="#4FC3F7" stroke-width="2" stroke-linecap="round">
                    <animate attributeName="y1" values="-10;306" dur="0.7s" begin="0s" repeatCount="indefinite"/>
                    <animate attributeName="y2" values="10;326" dur="0.7s" begin="0s" repeatCount="indefinite"/>
                </line><line x1="29.733333333333334" y1="-10" x2="24.733333333333334" y2="10" stroke="#4FC3F7" stroke-width="2" stroke-linecap="round">
                    <animate attributeName="y1" values="-10;306" dur="0.7s" begin="0.1s" repeatCount="indefinite"/>
                    <animate attributeName="y2" values="10;326" dur="0.7s" begin="0.1s" repeatCount="indefinite"/>
                </line><line x1="49.46666666666667" y1="-10" x2="44.46666666666667" y2="10" stroke="#4FC3F7" stroke-width="2" stroke-linecap="round">
                    <animate attributeName="y1" values="-10;306" dur="0.7s" begin="0.2s" repeatCount="indefinite"/>
                    <animate attributeName="y2" values="10;326" dur="0.7s" begin="0.2s" repeatCount="indefinite"/>
                </line><line x1="69.2" y1="-10" x2="64.2" y2="10" stroke="#4FC3F7" stroke-width="2" stroke-linecap="round">
                    <animate attributeName="y1" values="-10;306" dur="0.7s" begin="0.30000000000000004s" repeatCount="indefinite"/>
                    <animate attributeName="y2" values="10;326" dur="0.7s" begin="0.30000000000000004s" repeatCount="indefinite"/>
                </line><line x1="88.93333333333334" y1="-10" x2="83.93333333333334" y2="10" stroke="#4FC3F7" stroke-width="2" stroke-linecap="round">
                    <animate attributeName="y1" values="-10;306" dur="0.7s" begin="0.4s" repeatCount="indefinite"/>
                    <animate attributeName="y2" values="10;326" dur="0.7s" begin="0.4s" repeatCount="indefinite"/>
                </line><line x1="108.66666666666667" y1="-10" x2="103.66666666666667" y2="10" stroke="#4FC3F7" stroke-width="2" stroke-linecap="round">
                    <animate attributeName="y1" values="-10;306" dur="0.7s" begin="0.5s" repeatCount="indefinite"/>
                    <animate attributeName="y2" values="10;326" dur="0.7s" begin="0.5s" repeatCount="indefinite"/>
                </line><line x1="128.4" y1="-10" x2="123.4" y2="10" stroke="#4FC3F7" stroke-width="2" stroke-linecap="round">
                    <animate attributeName="y1" values="-10;306" dur="0.7s" begin="0.6000000000000001s" repeatCount="indefinite"/>
                    <animate attributeName="y2" values="10;326" dur="0.7s" begin="0.6000000000000001s" repeatCount="indefinite"/>
                </line><line x1="148.13333333333333" y1="-10" x2="143.13333333333333" y2="10" stroke="#4FC3F7" stroke-width="2" stroke-linecap="round">
                    <animate attributeName="y1" values="-10;306" dur="0.7s" begin="0.7000000000000001s" repeatCount="indefinite"/>
                    <animate attributeName="y2" values="10;326" dur="0.7s" begin="0.7000000000000001s" repeatCount="indefinite"/>
                </line><line x1="167.86666666666667" y1="-10" x2="162.86666666666667" y2="10" stroke="#4FC3F7" stroke-width="2" stroke-linecap="round">
                    <animate attributeName="y1" values="-10;306" dur="0.7s" begin="0.8s" repeatCount="indefinite"/>
                    <animate attributeName="y2" values="10;326" dur="0.7s" begin="0.8s" repeatCount="indefinite"/>
                </line><line x1="187.60000000000002" y1="-10" x2="182.60000000000002" y2="10" stroke="#4FC3F7" stroke-width="2" stroke-linecap="round">
                    <animate attributeName="y1" values="-10;306" dur="0.7s" begin="0.9s" repeatCount="indefinite"/>
                    <animate attributeName="y2" values="10;326" dur="0.7s" begin="0.9s" repeatCount="indefinite"/>
                </line><line x1="207.33333333333334" y1="-10" x2="202.33333333333334" y2="10" stroke="#4FC3F7" stroke-width="2" stroke-linecap="round">
                    <animate attributeName="y1" values="-10;306" dur="0.7s" begin="0s" repeatCount="indefinite"/>
                    <animate attributeName="y2" values="10;326" dur="0.7s" begin="0s" repeatCount="indefinite"/>
                </line><line x1="227.06666666666666" y1="-10" x2="222.06666666666666" y2="10" stroke="#4FC3F7" stroke-width="2" stroke-linecap="round">
                    <animate attributeName="y1" values="-10;306" dur="0.7s" begin="0.10000000000000009s" repeatCount="indefinite"/>
                    <animate attributeName="y2" values="10;326" dur="0.7s" begin="0.10000000000000009s" repeatCount="indefinite"/>
                </line><line x1="246.8" y1="-10" x2="241.8" y2="10" stroke="#4FC3F7" stroke-width="2" stroke-linecap="round">
                    <animate attributeName="y1" values="-10;306" dur="0.7s" begin="0.20000000000000018s" repeatCount="indefinite"/>
                    <animate attributeName="y2" values="10;326" dur="0.7s" begin="0.20000000000000018s" repeatCount="indefinite"/>
                </line><line x1="266.53333333333336" y1="-10" x2="261.53333333333336" y2="10" stroke="#4FC3F7" stroke-width="2" stroke-linecap="round">
                    <animate attributeName="y1" values="-10;306" dur="0.7s" begin="0.30000000000000004s" repeatCount="indefinite"/>
                    <animate attributeName="y2" values="10;326" dur="0.7s" begin="0.30000000000000004s" repeatCount="indefinite"/>
                </line><line x1="286.26666666666665" y1="-10" x2="281.26666666666665" y2="10" stroke="#4FC3F7" stroke-width="2" stroke-linecap="round">
                    <animate attributeName="y1" values="-10;306" dur="0.7s" begin="0.40000000000000013s" repeatCount="indefinite"/>
                    <animate attributeName="y2" values="10;326" dur="0.7s" begin="0.40000000000000013s" repeatCount="indefinite"/>
                </line>
                </g>
            
      </g>
      <g transform="translate(20, 20)">
        <g class="pet"><rect x="224" y="32" width="16" height="16" fill="#ffffff" /><rect x="208" y="48" width="16" height="16" fill="#98c379" /><rect x="160" y="64" width="16" height="16" fill="#ffffff" /><rect x="176" y="64" width="16" height="16" fill="#ffffff" /><rect x="192" y="64" width="16" height="16" fill="#98c379" /><rect x="144" y="80" width="16" height="16" fill="#ffffff" /><rect x="160" y="80" width="16" height="16" fill="#ffffff" /><rect x="176" y="80" width="16" height="16" fill="#ffffff" /><rect x="192" y="80" width="16" height="16" fill="#ffffff" /><rect x="144" y="96" width="16" height="16" fill="#ffffff" /><rect x="160" y="96" width="16" height="16" fill="#ffffff" /><rect x="176" y="96" width="16" height="16" fill="#2d333b" /><rect x="192" y="96" width="16" height="16" fill="#ffffff" /><rect x="208" y="96" width="16" height="16" fill="#ffffff" /><rect x="144" y="112" width="16" height="16" fill="#ffffff" /><rect x="160" y="112" width="16" height="16" fill="#C678DD" /><rect x="176" y="112" width="16" height="16" fill="#ffffff" /><rect x="192" y="112" width="16" height="16" fill="#ffffff" /><rect x="208" y="112" width="16" height="16" fill="#ffffff" /><rect x="32" y="128" width="16" height="16" fill="#C678DD" /><rect x="48" y="128" width="16" height="16" fill="#C678DD" /><rect x="96" y="128" width="16" height="16" fill="#ffffff" /><rect x="112" y="128" width="16" height="16" fill="#ffffff" /><rect x="128" y="128" width="16" height="16" fill="#ffffff" /><rect x="144" y="128" width="16" height="16" fill="#ffffff" /><rect x="160" y="128" width="16" height="16" fill="#ffffff" /><rect x="176" y="128" width="16" height="16" fill="#ffffff" /><rect x="192" y="128" width="16" height="16" fill="#ffffff" /><rect x="16" y="144" width="16" height="16" fill="#C678DD" /><rect x="32" y="144" width="16" height="16" fill="#FF9F00" /><rect x="48" y="144" width="16" height="16" fill="#FF9F00" /><rect x="64" y="144" width="16" height="16" fill="#C678DD" /><rect x="80" y="144" width="16" height="16" fill="#ffffff" /><rect x="96" y="144" width="16" height="16" fill="#ffffff" /><rect x="112" y="144" width="16" height="16" fill="#ffffff" /><rect x="128" y="144" width="16" height="16" fill="#ffffff" /><rect x="144" y="144" width="16" height="16" fill="#ffffff" /><rect x="160" y="144" width="16" height="16" fill="#ffffff" /><rect x="176" y="144" width="16" height="16" fill="#ffffff" /><rect x="192" y="144" width="16" height="16" fill="#ffffff" /><rect x="16" y="160" width="16" height="16" fill="#C678DD" /><rect x="32" y="160" width="16" height="16" fill="#FF9F00" /><rect x="48" y="160" width="16" height="16" fill="#98c379" /><rect x="64" y="160" width="16" height="16" fill="#ffffff" /><rect x="80" y="160" width="16" height="16" fill="#ffffff" /><rect x="96" y="160" width="16" height="16" fill="#ffffff" /><rect x="112" y="160" width="16" height="16" fill="#ffffff" /><rect x="128" y="160" width="16" height="16" fill="#ffffff" /><rect x="144" y="160" width="16" height="16" fill="#ffffff" /><rect x="160" y="160" width="16" height="16" fill="#ffffff" /><rect x="176" y="160" width="16" height="16" fill="#ffffff" /><rect x="192" y="160" width="16" height="16" fill="#ffffff" /><rect x="16" y="176" width="16" height="16" fill="#C678DD" /><rect x="32" y="176" width="16" height="16" fill="#FF9F00" /><rect x="48" y="176" width="16" height="16" fill="#98c379" /><rect x="64" y="176" width="16" height="16" fill="#ffffff" /><rect x="80" y="176" width="16" height="16" fill="#ffffff" /><rect x="96" y="176" width="16" height="16" fill="#ffffff" /><rect x="112" y="176" width="16" height="16" fill="#ffffff" /><rect x="128" y="176" width="16" height="16" fill="#ffffff" /><rect x="144" y="176" width="16" height="16" fill="#ffffff" /><rect x="160" y="176" width="16" height="16" fill="#ffffff" /><rect x="176" y="176" width="16" height="16" fill="#ffffff" /><rect x="192" y="176" width="16" height="16" fill="#ffffff" /><rect x="0" y="192" width="16" height="16" fill="#C678DD" /><rect x="16" y="192" width="16" height="16" fill="#FF9F00" /><rect x="32" y="192" width="16" height="16" fill="#98c379" /><rect x="48" y="192" width="16" height="16" fill="#98c379" /><rect x="64" y="192" width="16" height="16" fill="#ffffff" /><rect x="80" y="192" width="16" height="16" fill="#ffffff" /><rect x="96" y="192" width="16" height="16" fill="#ffffff" /><rect x="112" y="192" width="16" height="16" fill="#ffffff" /><rect x="128" y="192" width="16" height="16" fill="#ffffff" /><rect x="144" y="192" width="16" height="16" fill="#ffffff" /><rect x="160" y="192" width="16" height="16" fill="#ffffff" /><rect x="176" y="192" width="16" height="16" fill="#ffffff" /><rect x="0" y="208" width="16" height="16" fill="#C678DD" /><rect x="16" y="208" width="16" height="16" fill="#FF9F00" /><rect x="32" y="208" width="16" height="16" fill="#98c379" /><rect x="48" y="208" width="16" height="16" fill="#00ADD8" /><rect x="64" y="208" width="16" height="16" fill="#ffffff" /><rect x="80" y="208" width="16" height="16" fill="#ffffff" /><rect x="96" y="208" width="16" height="16" fill="#ffffff" /><rect x="112" y="208" width="16" height="16" fill="#ffffff" /><rect x="128" y="208" width="16" height="16" fill="#ffffff" /><rect x="144" y="208" width="16" height="16" fill="#ffffff" /><rect x="160" y="208" width="16" height="16" fill="#ffffff" /><rect x="0" y="224" width="16" height="16" fill="#FF9F00" /><rect x="16" y="224" width="16" height="16" fill="#98c379" /><rect x="32" y="224" width="16" height="16" fill="#98c379" /><rect x="48" y="224" width="16" height="16" fill="#00ADD8" /><rect x="64" y="224" width="16" height="16" fill="#ffffff" /><rect x="80" y="224" width="16" height="16" fill="#ffffff" /><rect x="96" y="224" width="16" height="16" fill="#ffffff" /><rect x="128" y="224" width="16" height="16" fill="#ffffff" /><rect x="144" y="224" width="16" height="16" fill="#ffffff" /><rect x="160" y="224" width="16" height="16" fill="#ffffff" /><rect x="64" y="240" width="16" height="16" fill="#ffffff" /><rect x="80" y="240" width="16" height="16" fill="#ffffff" /><rect x="128" y="240" width="16" height="16" fill="#ffffff" /><rect x="144" y="240" width="16" height="16" fill="#ffffff" /><animateTransform attributeName="transform" type="translate" values="0 0; 0 -4; 0 0" dur="0.5s" repeatCount="indefinite" /></g>
      </g>
      <text x="50%" y="291" text-anchor="middle" font-family="monospace" font-size="11" fill="#666">🌧️ RAIN</text>
    </svg>