<svg xmlns="http://www.w3.org/2000/svg" width="296" height="296" viewBox="0 0 296 296">
      <style>.pet { transform-origin: center; }</style>
      <rect x="5" y="5" width="286" height="281" rx="12" ry="12" fill="rgba(45, 51, 59, 0.15)"/>
      <g class="weather-layer" style="pointer-events: none;">
        
                <g fill="#ffffff">
                    <circle cx="5" cy="0" r="3.7387325697161753" opacity="0.8">
                    <animate attributeName="cy" values="0;296" dur="4.7871852681400435s" begin="0.23558869651647907s" repeatCount="indefinite"/>
                </circle><circle cx="19.8" cy="0" r="2.582049769706278" opacity="0.8">
                    <animate attributeName="cy" values="0;296" dur="2.8545086805929385s" begin="1.5820504791767682s" repeatCount="indefinite"/>
                </circle><circle cx="34.6" cy="0" r="4.112233648580077" opacity="0.8">
                    <animate attributeName="cy" values="0;296" dur="3.503687073470349s" begin="0.428334043994147s" repeatCount="indefinite"/>
                </circle><circle cx="49.400000000000006" cy="0" r="2.964282295126271" opacity="0.8">
                    <animate attributeName="cy" values="0;296" dur="2.806672326802477s" begin="0.9249932905908222s" repeatCount="indefinite"/>
                </circle><circle cx="64.2" cy="0" r="2.4456759359874694" opacity="0.8">
                    <animate attributeName="cy" values="0;296" dur="3.3594208195150737s" begin="1.7892004377218473s" repeatCount="indefinite"/>
                </circle><circle cx="79" cy="0" r="4.813358375888976" opacity="0.8">
                    <animate attributeName="cy" values="0;296" dur="4.919163461865409s" begin="0.9755475984805142s" repeatCount="indefinite"/>
                </circle><circle cx="93.80000000000001" cy="0" r="5.639508450704428" opacity="0.8">
                    <animate attributeName="cy" values="0;296" dur="4.10372453516074s" begin="1.147944638064709s" repeatCount="indefinite"/>
                </circle><circle cx="108.60000000000001" cy="0" r="4.343273499190449" opacity="0.8">
                    <animate attributeName="cy" values="0;296" dur="3.345287487643895s" begin="1.2680063894733071s" repeatCount="indefinite"/>
                </circle><circle cx="123.4" cy="0" r="5.448578380453059" opacity="0.8">
                    <animate attributeName="cy" values="0;296" dur="4.835049709897335s" begin="1.8373171747233825s" repeatCount="indefinite"/>
                </circle><circle cx="138.20000000000002" cy="0" r="5.312188046484162" opacity="0.8">
                    <animate attributeName="cy" values="0;296" dur="2.5844948420547307s" begin="0.5449589862104429s" repeatCount="indefinite"/>
                </circle><circle cx="153" cy="0" r="5.538097184743448" opacity="0.8">
                    <animate attributeName="cy" values="0;296" dur="2.5447575586866242s" begin="0.7701145844739217s" repeatCount="indefinite"/>
                </circle><circle cx="167.8" cy="0" r="3.0514464669810257" opacity="0.8">
                    <animate attributeName="cy" values="0;296" dur="4.976531336295338s" begin="1.0760570085033785s" repeatCount="indefinite"/>
                </circle><circle cx="182.60000000000002" cy="0" r="4.975146193374606" opacity="0.8">
                    <animate attributeName="cy" values="0;296" dur="2.2224706930816986s" begin="0.4662312485674067s" repeatCount="indefinite"/>
                </circle><circle cx="197.4" cy="0" r="5.734545123445749" opacity="0.8">
                    <animate attributeName="cy" values="0;296" dur="3.652091745754656s" begin="1.1187214672491623s" repeatCount="indefinite"/>
                </circle><circle cx="212.20000000000002" cy="0" r="2.359081307797524" opacity="0.8">
                    <animate attributeName="cy" values="0;296" dur="3.774478694394028s" begin="0.5140675905698138s" repeatCount="indefinite"/>
                </circle><circle cx="227" cy="0" r="3.285146960285198" opacity="0.8">
                    <animate attributeName="cy" values="0;296" dur="4.684384810110953s" begin="1.202050968022534s" repeatCount="indefinite"/>
                </circle><circle cx="241.8" cy="0" r="4.998213177889239" opacity="0.8">
                    <animate attributeName="cy" values="0;296" dur="2.246668171881038s" begin="0.1355957348908401s" repeatCount="indefinite"/>
                </circle><circle cx="256.6" cy="0" r="5.134624385813897" opacity="0.8">
                    <animate attributeName="cy" values="0;296" dur="3.249925744865223s" begin="1.811027830449226s" repeatCount="indefinite"/>
                </circle><circle cx="271.40000000000003" cy="0" r="5.79918741856402" opacity="0.8">
                    <animate attributeName="cy" values="0;296" dur="3.574215497934768s" begin="0.3860071534604672s" repeatCount="indefinite"/>
                </circle><circle cx="286.2" cy="0" r="5.897800170043448" opacity="0.8">
                    <animate attributeName="cy" values="0;296" dur="2.1721301470105163s" begin="1.4018738909701685s" repeatCount="indefinite"/>
                </circle>
                </g>
            
      </g>
      <g transform="translate(20, 20)">
        <g class="pet"><rect x="224" y="32" width="16" height="16" fill="#ffffff" /><rect x="208" y="48" width="16" height="16" fill="#98c379" /><rect x="160" y="64" width="16" height="16" fill="#ffffff" /><rect x="176" y="64" width="16" height="16" fill="#ffffff" /><rect x="192" y="64" width="16" height="16" fill="#98c379" /><rect x="144" y="80" width="16" height="16" fill="#ffffff" /><rect x="160" y="80" width="16" height="16" fill="#ffffff" /><rect x="176" y="80" width="16" height="16" fill="#ffffff" /><rect x="192" y="80" width="16" height="16" fill="#ffffff" /><rect x="144" y="96" width="16" height="16" fill="#ffffff" /><rect x="160" y="96" width="16" height="16" fill="#ffffff" /><rect x="176" y="96" width="16" height="16" fill="#2d333b" /><rect x="192" y="96" width="16" height="16" fill="#ffffff" /><rect x="208" y="96" width="16" height="16" fill="#ffffff" /><rect x="144" y="112" width="16" height="16" fill="#ffffff" /><rect x="160" y="112" width="16" height="16" fill="#C678DD" /><rect x="176" y="112" width="16" height="16" fill="#ffffff" /><rect x="192" y="112" width="16" height="16" fill="#ffffff" /><rect x="208" y="112" width="16" height="16" fill="#ffffff" /><rect x="32" y="128" width="16" height="16" fill="#C678DD" /><rect x="48" y="128" width="16" height="16" fill="#C678DD" /><rect x="96" y="128" width="16" height="16" fill="#ffffff" /><rect x="112" y="128" width="16" height="16" fill="#ffffff" /><rect x="128" y="128" width="16" height="16" fill="#ffffff" /><rect x="144" y="128" width="16" height="16" fill="#ffffff" /><rect x="160" y="128" width="16" height="16" fill="#ffffff" /><rect x="176" y="128" width="16" height="16" fill="#ffffff" /><rect x="192" y="128" width="16" height="16" fill="#ffffff" /><rect x="16" y="144" width="16" height="16" fill="#C678DD" /><rect x="32" y="144" width="16" height="16" fill="#FF9F00" /><rect x="48" y="144" width="16" height="16" fill="#FF9F00" /><rect x="64" y="144" width="16" height="16" fill="#C678DD" /><rect x="80" y="144" width="16" height="16" fill="#ffffff" /><rect x="96" y="144" width="16" height="16" fill="#ffffff" /><rect x="112" y="144" width="16" height="16" fill="#ffffff" /><rect x="128" y="144" width="16" height="16" fill="#ffffff" /><rect x="144" y="144" width="16" height="16" fill="#ffffff" /><rect x="160" y="144" width="16" height="16" fill="#ffffff" /><rect x="176" y="144" width="16" height="16" fill="#ffffff" /><rect x="192" y="144" width="16" height="16" fill="#ffffff" /><rect x="16" y="160" width="16" height="16" fill="#C678DD" /><rect x="32" y="160" width="16" height="16" fill="#FF9F00" /><rect x="48" y="160" width="16" height="16" fill="#98c379" /><rect x="64" y="160" width="16" height="16" fill="#ffffff" /><rect x="80" y="160" width="16" height="16" fill="#ffffff" /><rect x="96" y="160" width="16" height="16" fill="#ffffff" /><rect x="112" y="160" width="16" height="16" fill="#ffffff" /><rect x="128" y="160" width="16" height="16" fill="#ffffff" /><rect x="144" y="160" width="16" height="16" fill="#ffffff" /><rect x="160" y="160" width="16" height="16" fill="#ffffff" /><rect x="176" y="160" width="16" height="16" fill="#ffffff" /><rect x="192" y="160" width="16" height="16" fill="#ffffff" /><rect x="16" y="176" width="16" height="16" fill="#C678DD" /><rect x="32" y="176" width="16" height="16" fill="#FF9F00" /><rect x="48" y="176" width="16" height="16" fill="#98c379" /><rect x="64" y="176" width="16" height="16" fill="#ffffff" /><rect x="80" y="176" width="16" height="16" fill="#ffffff" /><rect x="96" y="176" width="16" height="16" fill="#ffffff" /><rect x="112" y="176" width="16" height="16" fill="#ffffff" /><rect x="128" y="176" width="16" height="16" fill="#ffffff" /><rect x="144" y="176" width="16" height="16" fill="#ffffff" /><rect x="160" y="176" width="16" height="16" fill="#ffffff" /><rect x="176" y="176" width="16" height="16" fill="#ffffff" /><rect x="192" y="176" width="16" height="16" fill="#ffffff" /><rect x="0" y="192" width="16" height="16" fill="#C678DD" /><rect x="16" y="192" width="16" height="16" fill="#FF9F00" /><rect x="32" y="192" width="16" height="16" fill="#98c379" /><rect x="48" y="192" width="16" height="16" fill="#98c379" /><rect x="64" y="192" width="16" height="16" fill="#ffffff" /><rect x="80" y="192" width="16" height="16" fill="#ffffff" /><rect x="96" y="192" width="16" height="16" fill="#ffffff" /><rect x="112" y="192" width="16" height="16" fill="#ffffff" /><rect x="128" y="192" width="16" height="16" fill="#ffffff" /><rect x="144" y="192" width="16" height="16" fill="#ffffff" /><rect x="160" y="192" width="16" height="16" fill="#ffffff" /><rect x="176" y="192" width="16" height="16" fill="#ffffff" /><rect x="0" y="208" width="16" height="16" fill="#C678DD" /><rect x="16" y="208" width="16" height="16" fill="#FF9F00" /><rect x="32" y="208" width="16" height="16" fill="#98c379" /><rect x="48" y="208" width="16" height="16" fill="#00ADD8" /><rect x="64" y="208" width="16" height="16" fill="#ffffff" /><rect x="80" y="208" width="16" height="16" fill="#ffffff" /><rect x="96" y="208" width="16" height="16" fill="#ffffff" /><rect x="112" y="208" width="16" height="16" fill="#ffffff" /><rect x="128" y="208" width="16" height="16" fill="#ffffff" /><rect x="144" y="208" width="16" height="16" fill="#ffffff" /><rect x="160" y="208" width="16" height="16" fill="#ffffff" /><rect x="0" y="224" width="16" height="16" fill="#FF9F00" /><rect x="16" y="224" width="16" height="16" fill="#98c379" /><rect x="32" y="224" width="16" height="16" fill="#98c379" /><rect x="48" y="224" width="16" height="16" fill="#00ADD8" /><rect x="64" y="224" width="16" height="16" fill="#ffffff" /><rect x="80" y="224" width="16" height="16" fill="#ffffff" /><rect x="96" y="224" width="16" height="16" fill="#ffffff" /><rect x="128" y="224" width="16" height="16" fill="#ffffff" /><rect x="144" y="224" width="16" height="16" fill="#ffffff" /><rect x="160" y="224" width="16" height="16" fill="#ffffff" /><rect x="64" y="240" width="16" height="16" fill="#ffffff" /><rect x="80" y="240" width="16" height="16" fill="#ffffff" /><rect x="128" y="240" width="16" height="16" fill="#ffffff" /><rect x="144" y="240" width="16" height="16" fill="#ffffff" /><animateTransform attributeName="transform" type="translate" values="0 0; 0 -4; 0 0" dur="0.5s" repeatCount="indefinite" /></g>
      </g>
      <text x="50%" y="291" text-anchor="middle" font-family="monospace" font-size="11" fill="#666">❄️ SNOW</text>
    </svg>