<svg xmlns="http://www.w3.org/2000/svg" width="296" height="296" viewBox="0 0 296 296">
      <style>.pet { transform-origin: center; }</style>
      <rect x="5" y="5" width="286" height="281" rx="12" ry="12" fill="rgba(45, 51, 59, 0.15)"/>
      <g class="weather-layer" style="pointer-events: none;">
        
                <g>
                    <circle cx="261.3451340506565" cy="201.6356066409964" r="3" fill="#FFEB3B" opacity="0.8">
                    <animate attributeName="cx" values="261.3451340506565;274.7059752685296;261.3451340506565" dur="3.0012119127675527s" repeatCount="indefinite"/>
                    <animate attributeName="cy" values="201.6356066409964;181.3955368557124;201.6356066409964" dur="3.0012119127675527s" repeatCount="indefinite"/>
                    <animate attributeName="opacity" values="0.3;0.9;0.3" dur="1.5s" repeatCount="indefinite"/>
                </circle><circle cx="109.0157605054361" cy="23.51716167647811" r="3" fill="#FFEB3B" opacity="0.8">
                    <animate attributeName="cx" values="109.0157605054361;99.41888140186977;109.0157605054361" dur="4.182480225139417s" repeatCount="indefinite"/>
                    <animate attributeName="cy" values="23.51716167647811;44.204757640056414;23.51716167647811" dur="4.182480225139417s" repeatCount="indefinite"/>
                    <animate attributeName="opacity" values="0.3;0.9;0.3" dur="1.5s" repeatCount="indefinite"/>
                </circle><circle cx="153.73819235953368" cy="179.30546013984377" r="3" fill="#FFEB3B" opacity="0.8">
                    <animate attributeName="cx" values="153.73819235953368;151.6093607181032;153.73819235953368" dur="4.625232139952573s" repeatCount="indefinite"/>
                    <animate attributeName="cy" values="179.30546013984377;197.08228502001614;179.30546013984377" dur="4.625232139952573s" repeatCount="indefinite"/>
                    <animate attributeName="opacity" values="0.3;0.9;0.3" dur="1.5s" repeatCount="indefinite"/>
                </circle><circle cx="228.98249663462087" cy="252.9953708680216" r="3" fill="#FFEB3B" opacity="0.8">
                    <animate attributeName="cx" values="228.98249663462087;205.05756510283575;228.98249663462087" dur="4.6040692760543465s" repeatCount="indefinite"/>
                    <animate attributeName="cy" values="252.9953708680216;247.46540403260042;252.9953708680216" dur="4.6040692760543465s" repeatCount="indefinite"/>
                    <animate attributeName="opacity" values="0.3;0.9;0.3" dur="1.5s" repeatCount="indefinite"/>
                </circle><circle cx="83.45947858480213" cy="113.35849053009701" r="3" fill="#FFEB3B" opacity="0.8">
                    <animate attributeName="cx" values="83.45947858480213;92.19277101432758;83.45947858480213" dur="5.580616494965837s" repeatCount="indefinite"/>
                    <animate attributeName="cy" values="113.35849053009701;86.00184650055314;113.35849053009701" dur="5.580616494965837s" repeatCount="indefinite"/>
                    <animate attributeName="opacity" values="0.3;0.9;0.3" dur="1.5s" repeatCount="indefinite"/>
                </circle><circle cx="191.29254211735474" cy="271.3959642683274" r="3" fill="#FFEB3B" opacity="0.8">
                    <animate attributeName="cx" values="191.29254211735474;177.32638047911888;191.29254211735474" dur="6.0353691723933185s" repeatCount="indefinite"/>
                    <animate attributeName="cy" values="271.3959642683274;241.86155817277788;271.3959642683274" dur="6.0353691723933185s" repeatCount="indefinite"/>
                    <animate attributeName="opacity" values="0.3;0.9;0.3" dur="1.5s" repeatCount="indefinite"/>
                </circle><circle cx="183.32038508988143" cy="208.54662675906513" r="3" fill="#FFEB3B" opacity="0.8">
                    <animate attributeName="cx" values="183.32038508988143;174.8423892110384;183.32038508988143" dur="4.846419118157593s" repeatCount="indefinite"/>
                    <animate attributeName="cy" values="208.54662675906513;217.48058759005903;208.54662675906513" dur="4.846419118157593s" repeatCount="indefinite"/>
                    <animate attributeName="opacity" values="0.3;0.9;0.3" dur="1.5s" repeatCount="indefinite"/>
                </circle><circle cx="24.84322606133759" cy="178.36175306177046" r="3" fill="#FFEB3B" opacity="0.8">
                    <animate attributeName="cx" values="24.84322606133759;50.48698580053552;24.84322606133759" dur="3.417445182601832s" repeatCount="indefinite"/>
                    <animate attributeName="cy" values="178.36175306177046;150.29026478169664;178.36175306177046" dur="3.417445182601832s" repeatCount="indefinite"/>
                    <animate attributeName="opacity" values="0.3;0.9;0.3" dur="1.5s" repeatCount="indefinite"/>
                </circle>
                </g>
            
      </g>
      <g transform="translate(20, 20)">
        <g class="pet"><rect x="224" y="32" width="16" height="16" fill="#ffffff" /><rect x="208" y="48" width="16" height="16" fill="#98c379" /><rect x="160" y="64" width="16" height="16" fill="#ffffff" /><rect x="176" y="64" width="16" height="16" fill="#ffffff" /><rect x="192" y="64" width="16" height="16" fill="#98c379" /><rect x="144" y="80" width="16" height="16" fill="#ffffff" /><rect x="160" y="80" width="16" height="16" fill="#ffffff" /><rect x="176" y="80" width="16" height="16" fill="#ffffff" /><rect x="192" y="80" width="16" height="16" fill="#ffffff" /><rect x="144" y="96" width="16" height="16" fill="#ffffff" /><rect x="160" y="96" width="16" height="16" fill="#ffffff" /><rect x="176" y="96" width="16" height="16" fill="#2d333b" /><rect x="192" y="96" width="16" height="16" fill="#ffffff" /><rect x="208" y="96" width="16" height="16" fill="#ffffff" /><rect x="144" y="112" width="16" height="16" fill="#ffffff" /><rect x="160" y="112" width="16" height="16" fill="#C678DD" /><rect x="176" y="112" width="16" height="16" fill="#ffffff" /><rect x="192" y="112" width="16" height="16" fill="#ffffff" /><rect x="208" y="112" width="16" height="16" fill="#ffffff" /><rect x="32" y="128" width="16" height="16" fill="#C678DD" /><rect x="48" y="128" width="16" height="16" fill="#C678DD" /><rect x="96" y="128" width="16" height="16" fill="#ffffff" /><rect x="112" y="128" width="16" height="16" fill="#ffffff" /><rect x="128" y="128" width="16" height="16" fill="#ffffff" /><rect x="144" y="128" width="16" height="16" fill="#ffffff" /><rect x="160" y="128" width="16" height="16" fill="#ffffff" /><rect x="176" y="128" width="16" height="16" fill="#ffffff" /><rect x="192" y="128" width="16" height="16" fill="#ffffff" /><rect x="16" y="144" width="16" height="16" fill="#C678DD" /><rect x="32" y="144" width="16" height="16" fill="#FF9F00" /><rect x="48" y="144" width="16" height="16" fill="#FF9F00" /><rect x="64" y="144" width="16" height="16" fill="#C678DD" /><rect x="80" y="144" width="16" height="16" fill="#ffffff" /><rect x="96" y="144" width="16" height="16" fill="#ffffff" /><rect x="112" y="144" width="16" height="16" fill="#ffffff" /><rect x="128" y="144" width="16" height="16" fill="#ffffff" /><rect x="144" y="144" width="16" height="16" fill="#ffffff" /><rect x="160" y="144" width="16" height="16" fill="#ffffff" /><rect x="176" y="144" width="16" height="16" fill="#ffffff" /><rect x="192" y="144" width="16" height="16" fill="#ffffff" /><rect x="16" y="160" width="16" height="16" fill="#C678DD" /><rect x="32" y="160" width="16" height="16" fill="#FF9F00" /><rect x="48" y="160" width="16" height="16" fill="#98c379" /><rect x="64" y="160" width="16" height="16" fill="#ffffff" /><rect x="80" y="160" width="16" height="16" fill="#ffffff" /><rect x="96" y="160" width="16" height="16" fill="#ffffff" /><rect x="112" y="160" width="16" height="16" fill="#ffffff" /><rect x="128" y="160" width="16" height="16" fill="#ffffff" /><rect x="144" y="160" width="16" height="16" fill="#ffffff" /><rect x="160" y="160" width="16" height="16" fill="#ffffff" /><rect x="176" y="160" width="16" height="16" fill="#ffffff" /><rect x="192" y="160" width="16" height="16" fill="#ffffff" /><rect x="16" y="176" width="16" height="16" fill="#C678DD" /><rect x="32" y="176" width="16" height="16" fill="#FF9F00" /><rect x="48" y="176" width="16" height="16" fill="#98c379" /><rect x="64" y="176" width="16" height="16" fill="#ffffff" /><rect x="80" y="176" width="16" height="16" fill="#ffffff" /><rect x="96" y="176" width="16" height="16" fill="#ffffff" /><rect x="112" y="176" width="16" height="16" fill="#ffffff" /><rect x="128" y="176" width="16" height="16" fill="#ffffff" /><rect x="144" y="176" width="16" height="16" fill="#ffffff" /><rect x="160" y="176" width="16" height="16" fill="#ffffff" /><rect x="176" y="176" width="16" height="16" fill="#ffffff" /><rect x="192" y="176" width="16" height="16" fill="#ffffff" /><rect x="0" y="192" width="16" height="16" fill="#C678DD" /><rect x="16" y="192" width="16" height="16" fill="#FF9F00" /><rect x="32" y="192" width="16" height="16" fill="#98c379" /><rect x="48" y="192" width="16" height="16" fill="#98c379" /><rect x="64" y="192" width="16" height="16" fill="#ffffff" /><rect x="80" y="192" width="16" height="16" fill="#ffffff" /><rect x="96" y="192" width="16" height="16" fill="#ffffff" /><rect x="112" y="192" width="16" height="16" fill="#ffffff" /><rect x="128" y="192" width="16" height="16" fill="#ffffff" /><rect x="144" y="192" width="16" height="16" fill="#ffffff" /><rect x="160" y="192" width="16" height="16" fill="#ffffff" /><rect x="176" y="192" width="16" height="16" fill="#ffffff" /><rect x="0" y="208" width="16" height="16" fill="#C678DD" /><rect x="16" y="208" width="16" height="16" fill="#FF9F00" /><rect x="32" y="208" width="16" height="16" fill="#98c379" /><rect x="48" y="208" width="16" height="16" fill="#00ADD8" /><rect x="64" y="208" width="16" height="16" fill="#ffffff" /><rect x="80" y="208" width="16" height="16" fill="#ffffff" /><rect x="96" y="208" width="16" height="16" fill="#ffffff" /><rect x="112" y="208" width="16" height="16" fill="#ffffff" /><rect x="128" y="208" width="16" height="16" fill="#ffffff" /><rect x="144" y="208" width="16" height="16" fill="#ffffff" /><rect x="160" y="208" width="16" height="16" fill="#ffffff" /><rect x="0" y="224" width="16" height="16" fill="#FF9F00" /><rect x="16" y="224" width="16" height="16" fill="#98c379" /><rect x="32" y="224" width="16" height="16" fill="#98c379" /><rect x="48" y="224" width="16" height="16" fill="#00ADD8" /><rect x="64" y="224" width="16" height="16" fill="#ffffff" /><rect x="80" y="224" width="16" height="16" fill="#ffffff" /><rect x="96" y="224" width="16" height="16" fill="#ffffff" /><rect x="128" y="224" width="16" height="16" fill="#ffffff" /><rect x="144" y="224" width="16" height="16" fill="#ffffff" /><rect x="160" y="224" width="16" height="16" fill="#ffffff" /><rect x="64" y="240" width="16" height="16" fill="#ffffff" /><rect x="80" y="240" width="16" height="16" fill="#ffffff" /><rect x="128" y="240" width="16" height="16" fill="#ffffff" /><rect x="144" y="240" width="16" height="16" fill="#ffffff" /><animateTransform attributeName="transform" type="translate" values="0 0; 0 -4; 0 0" dur="0.5s" repeatCount="indefinite" /></g>
      </g>
      <text x="50%" y="291" text-anchor="middle" font-family="monospace" font-size="11" fill="#666">🪲 FIREFLIES</text>
    </svg>