<svg xmlns="http://www.w3.org/2000/svg" width="296" height="296" viewBox="0 0 296 296">
      <style>.pet { transform-origin: center; }</style>
      <rect x="5" y="5" width="286" height="281" rx="12" ry="12" fill="rgba(45, 51, 59, 0.15)"/>
      <g class="weather-layer" style="pointer-events: none;">
        
                <g fill="#ffffff">
                    <circle cx="5" cy="0" r="4.791261513253455" opacity="0.8">
                    <animate attributeName="cy" values="0;296" dur="2.042400800728499s" begin="0.20498387052414424s" repeatCount="indefinite"/>
                </circle><circle cx="19.8" cy="0" r="4.639669748627016" opacity="0.8">
                    <animate attributeName="cy" values="0;296" dur="4.185968529814305s" begin="1.4565116540456868s" repeatCount="indefinite"/>
                </circle><circle cx="34.6" cy="0" r="4.189626479092794" opacity="0.8">
                    <animate attributeName="cy" values="0;296" dur="4.780913539706353s" begin="1.736762701654262s" repeatCount="indefinite"/>
                </circle><circle cx="49.400000000000006" cy="0" r="3.243524783452571" opacity="0.8">
                    <animate attributeName="cy" values="0;296" dur="4.7109410034843275s" begin="1.4427995834757383s" repeatCount="indefinite"/>
                </circle><circle cx="64.2" cy="0" r="3.464863781298706" opacity="0.8">
                    <animate attributeName="cy" values="0;296" dur="4.992704785500834s" begin="0.05818024820047274s" repeatCount="indefinite"/>
                </circle><circle cx="79" cy="0" r="5.04937898224793" opacity="0.8">
                    <animate attributeName="cy" values="0;296" dur="4.010669864413159s" begin="1.4546663337694592s" repeatCount="indefinite"/>
                </circle><circle cx="93.80000000000001" cy="0" r="2.479804067089094" opacity="0.8">
                    <animate attributeName="cy" values="0;296" dur="2.052354799033197s" begin="0.4053709890052688s" repeatCount="indefinite"/>
                </circle><circle cx="108.60000000000001" cy="0" r="4.8006980506052015" opacity="0.8">
                    <animate attributeName="cy" values="0;296" dur="4.2747497299068495s" begin="1.550839833580003s" repeatCount="indefinite"/>
                </circle><circle cx="123.4" cy="0" r="2.7389665466505946" opacity="0.8">
                    <animate attributeName="cy" values="0;296" dur="4.002204750288598s" begin="1.7540191161174188s" repeatCount="indefinite"/>
                </circle><circle cx="138.20000000000002" cy="0" r="2.2311736430478906" opacity="0.8">
                    <animate attributeName="cy" values="0;296" dur="3.715146238091938s" begin="0.08592190447710646s" repeatCount="indefinite"/>
                </circle><circle cx="153" cy="0" r="3.4114974791971235" opacity="0.8">
                    <animate attributeName="cy" values="0;296" dur="3.4324509500381177s" begin="0.40680791855265586s" repeatCount="indefinite"/>
                </circle><circle cx="167.8" cy="0" r="2.771144150671648" opacity="0.8">
                    <animate attributeName="cy" values="0;296" dur="2.32184616976304s" begin="0.11330941754663959s" repeatCount="indefinite"/>
                </circle><circle cx="182.60000000000002" cy="0" r="5.136611396971068" opacity="0.8">
                    <animate attributeName="cy" values="0;296" dur="4.849226310541752s" begin="0.8065679936042129s" repeatCount="indefinite"/>
                </circle><circle cx="197.4" cy="0" r="4.591619107425192" opacity="0.8">
                    <animate attributeName="cy" values="0;296" dur="2.039635094122289s" begin="0.12754719605399334s" repeatCount="indefinite"/>
                </circle><circle cx="212.20000000000002" cy="0" r="3.095489660613846" opacity="0.8">
                    <animate attributeName="cy" values="0;296" dur="2.331214292975127s" begin="0.14017326727803692s" repeatCount="indefinite"/>
                </circle><circle cx="227" cy="0" r="3.911429151707642" opacity="0.8">
                    <animate attributeName="cy" values="0;296" dur="3.0586175424106687s" begin="0.9865828438533999s" repeatCount="indefinite"/>
                </circle><circle cx="241.8" cy="0" r="5.828729542121192" opacity="0.8">
                    <animate attributeName="cy" values="0;296" dur="3.372208473761776s" begin="0.6856674773809726s" repeatCount="indefinite"/>
                </circle><circle cx="256.6" cy="0" r="4.615364323789269" opacity="0.8">
                    <animate attributeName="cy" values="0;296" dur="4.528551752762594s" begin="0.2818375422660826s" repeatCount="indefinite"/>
                </circle><circle cx="271.40000000000003" cy="0" r="3.009074545018688" opacity="0.8">
                    <animate attributeName="cy" values="0;296" dur="2.150610115892035s" begin="0.8509018780547244s" repeatCount="indefinite"/>
                </circle><circle cx="286.2" cy="0" r="5.2788219171572255" opacity="0.8">
                    <animate attributeName="cy" values="0;296" dur="4.213972213496724s" begin="0.8446078311277931s" repeatCount="indefinite"/>
                </circle>
                </g>
            
      </g>
      <g transform="translate(20, 20)">
        <g class="pet"><rect x="224" y="32" width="16" height="16" fill="#ffffff" /><rect x="208" y="48" width="16" height="16" fill="#98c379" /><rect x="160" y="64" width="16" height="16" fill="#ffffff" /><rect x="176" y="64" width="16" height="16" fill="#ffffff" /><rect x="192" y="64" width="16" height="16" fill="#98c379" /><rect x="144" y="80" width="16" height="16" fill="#ffffff" /><rect x="160" y="80" width="16" height="16" fill="#ffffff" /><rect x="176" y="80" width="16" height="16" fill="#ffffff" /><rect x="192" y="80" width="16" height="16" fill="#ffffff" /><rect x="144" y="96" width="16" height="16" fill="#ffffff" /><rect x="160" y="96" width="16" height="16" fill="#ffffff" /><rect x="176" y="96" width="16" height="16" fill="#2d333b" /><rect x="192" y="96" width="16" height="16" fill="#ffffff" /><rect x="208" y="96" width="16" height="16" fill="#ffffff" /><rect x="144" y="112" width="16" height="16" fill="#ffffff" /><rect x="160" y="112" width="16" height="16" fill="#C678DD" /><rect x="176" y="112" width="16" height="16" fill="#ffffff" /><rect x="192" y="112" width="16" height="16" fill="#ffffff" /><rect x="208" y="112" width="16" height="16" fill="#ffffff" /><rect x="32" y="128" width="16" height="16" fill="#C678DD" /><rect x="48" y="128" width="16" height="16" fill="#C678DD" /><rect x="96" y="128" width="16" height="16" fill="#ffffff" /><rect x="112" y="128" width="16" height="16" fill="#ffffff" /><rect x="128" y="128" width="16" height="16" fill="#ffffff" /><rect x="144" y="128" width="16" height="16" fill="#ffffff" /><rect x="160" y="128" width="16" height="16" fill="#ffffff" /><rect x="176" y="128" width="16" height="16" fill="#ffffff" /><rect x="192" y="128" width="16" height="16" fill="#ffffff" /><rect x="16" y="144" width="16" height="16" fill="#C678DD" /><rect x="32" y="144" width="16" height="16" fill="#FF9F00" /><rect x="48" y="144" width="16" height="16" fill="#FF9F00" /><rect x="64" y="144" width="16" height="16" fill="#C678DD" /><rect x="80" y="144" width="16" height="16" fill="#ffffff" /><rect x="96" y="144" width="16" height="16" fill="#ffffff" /><rect x="112" y="144" width="16" height="16" fill="#ffffff" /><rect x="128" y="144" width="16" height="16" fill="#ffffff" /><rect x="144" y="144" width="16" height="16" fill="#ffffff" /><rect x="160" y="144" width="16" height="16" fill="#ffffff" /><rect x="176" y="144" width="16" height="16" fill="#ffffff" /><rect x="192" y="144" width="16" height="16" fill="#ffffff" /><rect x="16" y="160" width="16" height="16" fill="#C678DD" /><rect x="32" y="160" width="16" height="16" fill="#FF9F00" /><rect x="48" y="160" width="16" height="16" fill="#98c379" /><rect x="64" y="160" width="16" height="16" fill="#ffffff" /><rect x="80" y="160" width="16" height="16" fill="#ffffff" /><rect x="96" y="160" width="16" height="16" fill="#ffffff" /><rect x="112" y="160" width="16" height="16" fill="#ffffff" /><rect x="128" y="160" width="16" height="16" fill="#ffffff" /><rect x="144" y="160" width="16" height="16" fill="#ffffff" /><rect x="160" y="160" width="16" height="16" fill="#ffffff" /><rect x="176" y="160" width="16" height="16" fill="#ffffff" /><rect x="192" y="160" width="16" height="16" fill="#ffffff" /><rect x="16" y="176" width="16" height="16" fill="#C678DD" /><rect x="32" y="176" width="16" height="16" fill="#FF9F00" /><rect x="48" y="176" width="16" height="16" fill="#98c379" /><rect x="64" y="176" width="16" height="16" fill="#ffffff" /><rect x="80" y="176" width="16" height="16" fill="#ffffff" /><rect x="96" y="176" width="16" height="16" fill="#ffffff" /><rect x="112" y="176" width="16" height="16" fill="#ffffff" /><rect x="128" y="176" width="16" height="16" fill="#ffffff" /><rect x="144" y="176" width="16" height="16" fill="#ffffff" /><rect x="160" y="176" width="16" height="16" fill="#ffffff" /><rect x="176" y="176" width="16" height="16" fill="#ffffff" /><rect x="192" y="176" width="16" height="16" fill="#ffffff" /><rect x="0" y="192" width="16" height="16" fill="#C678DD" /><rect x="16" y="192" width="16" height="16" fill="#FF9F00" /><rect x="32" y="192" width="16" height="16" fill="#98c379" /><rect x="48" y="192" width="16" height="16" fill="#98c379" /><rect x="64" y="192" width="16" height="16" fill="#ffffff" /><rect x="80" y="192" width="16" height="16" fill="#ffffff" /><rect x="96" y="192" width="16" height="16" fill="#ffffff" /><rect x="112" y="192" width="16" height="16" fill="#ffffff" /><rect x="128" y="192" width="16" height="16" fill="#ffffff" /><rect x="144" y="192" width="16" height="16" fill="#ffffff" /><rect x="160" y="192" width="16" height="16" fill="#ffffff" /><rect x="176" y="192" width="16" height="16" fill="#ffffff" /><rect x="0" y="208" width="16" height="16" fill="#C678DD" /><rect x="16" y="208" width="16" height="16" fill="#FF9F00" /><rect x="32" y="208" width="16" height="16" fill="#98c379" /><rect x="48" y="208" width="16" height="16" fill="#00ADD8" /><rect x="64" y="208" width="16" height="16" fill="#ffffff" /><rect x="80" y="208" width="16" height="16" fill="#ffffff" /><rect x="96" y="208" width="16" height="16" fill="#ffffff" /><rect x="112" y="208" width="16" height="16" fill="#ffffff" /><rect x="128" y="208" width="16" height="16" fill="#ffffff" /><rect x="144" y="208" width="16" height="16" fill="#ffffff" /><rect x="160" y="208" width="16" height="16" fill="#ffffff" /><rect x="0" y="224" width="16" height="16" fill="#FF9F00" /><rect x="16" y="224" width="16" height="16" fill="#98c379" /><rect x="32" y="224" width="16" height="16" fill="#98c379" /><rect x="48" y="224" width="16" height="16" fill="#00ADD8" /><rect x="64" y="224" width="16" height="16" fill="#ffffff" /><rect x="80" y="224" width="16" height="16" fill="#ffffff" /><rect x="96" y="224" width="16" height="16" fill="#ffffff" /><rect x="128" y="224" width="16" height="16" fill="#ffffff" /><rect x="144" y="224" width="16" height="16" fill="#ffffff" /><rect x="160" y="224" width="16" height="16" fill="#ffffff" /><rect x="64" y="240" width="16" height="16" fill="#ffffff" /><rect x="80" y="240" width="16" height="16" fill="#ffffff" /><rect x="128" y="240" width="16" height="16" fill="#ffffff" /><rect x="144" y="240" width="16" height="16" fill="#ffffff" /><animateTransform attributeName="transform" type="translate" values="0 0; 0 -4; 0 0" dur="0.5s" repeatCount="indefinite" /></g>
      </g>
      <text x="50%" y="291" text-anchor="middle" font-family="monospace" font-size="11" fill="#666">❄️ SNOW</text>
    </svg>